<svg width="79" height="79" viewBox="0 0 79 79" fill="none" xmlns="http://www.w3.org/2000/svg">
<path d="M39.4856 0C17.6851 0 0 17.727 0 39.5792C0 53.6425 7.32441 65.9893 18.347 73.0137C23.4554 76.2591 29.3696 78.3794 35.7155 78.9708C37.0537 79.0429 38.0466 78.9852 38.9532 78.7545C39.1259 78.7112 39.3129 78.6535 39.4856 78.5958C39.6295 78.5525 39.7878 78.4948 39.9317 78.4371C40.0324 78.3939 40.1188 78.365 40.2195 78.3217C40.3778 78.2496 40.5217 78.1775 40.6656 78.1054C41.4858 77.6727 42.1909 77.139 42.7953 76.5476C42.4355 76.5765 42.0758 76.6053 41.716 76.6197C41.3995 76.7928 41.0541 76.9515 40.68 77.0813C40.5505 77.1246 40.4353 77.1678 40.3058 77.2111C40.1907 77.2544 39.9029 77.3409 39.5 77.413C39.3417 77.4419 39.169 77.4707 38.9676 77.4996C38.6798 77.5428 38.3632 77.5717 38.0322 77.5861C36.694 77.6438 34.9672 77.413 33.4563 76.2735C33.4131 76.2303 33.3556 76.2014 33.3124 76.1582C30.492 75.6822 27.7435 74.8889 25.0814 73.7494C23.0237 72.8695 21.0667 71.831 19.2104 70.605C17.0951 69.2203 15.1237 67.6048 13.3106 65.7874C9.91457 62.3833 7.23807 58.4023 5.36739 53.9886C3.43916 49.4163 2.46065 44.5554 2.46065 39.5359C2.46065 34.5164 3.43916 29.6555 5.36739 25.0831C7.23807 20.655 9.90018 16.6884 13.3106 13.2844C16.7066 9.88037 20.6781 7.19752 25.0814 5.32242C29.643 3.38961 34.4923 2.40879 39.5 2.40879C44.5076 2.40879 49.357 3.38961 53.9186 5.32242C58.3362 7.19752 62.2934 9.86594 65.6894 13.2844C69.0854 16.6884 71.7619 20.6694 73.6326 25.0831C75.5608 29.6555 76.5393 34.5164 76.5393 39.5359C76.5393 44.5554 75.5608 49.4163 73.6326 53.9886C71.7619 58.4168 69.0998 62.3833 65.6894 65.7874C63.7612 67.7202 61.6603 69.4078 59.4011 70.8502C57.6599 71.9608 55.8324 72.9272 53.9186 73.7349C51.9616 74.5715 49.947 75.2206 47.9036 75.6966C46.4934 77.7736 44.3925 78.4948 43.8889 78.6535C45.1696 78.5958 46.5798 78.4516 48.1051 78.1631C50.9399 77.5284 53.674 76.5909 56.2353 75.3793C56.3648 75.3216 56.4944 75.2495 56.6383 75.1918C56.7534 75.1341 56.8541 75.0908 56.9692 75.0331C57.0843 74.9754 57.2138 74.9177 57.329 74.8456C57.4297 74.8023 57.516 74.7446 57.6168 74.7013C57.7175 74.6581 57.8038 74.6004 57.9046 74.5571C57.9909 74.5138 58.0628 74.4706 58.1348 74.4273C58.2931 74.3407 58.437 74.2686 58.5953 74.1821C58.7535 74.0955 58.8974 74.009 59.0557 73.9225C59.1852 73.8503 59.3004 73.7782 59.4299 73.7061C71.1432 66.8403 79 54.104 79 39.5215C78.9712 17.727 61.3005 0 39.4856 0Z" fill="#489789"/>
<path d="M18.1659 41.2093L8.1598 40.0625L8.66543 35.63L10.6189 35.8539L10.3675 38.0575L11.9504 38.2389L12.1889 36.1486L14.1172 36.3696L13.8788 38.46L18.4202 38.9805L18.1659 41.2093Z" fill="#489789"/>
<path d="M10.646 29.3204L20.4845 31.7502L19.7441 33.773L18.2652 33.3979L17.8776 34.4569L19.2542 35.1117L18.5095 37.1464L9.44624 32.5986L10.646 29.3204ZM11.8481 31.5377L11.7784 31.7281L16.2107 33.6752L16.4851 32.9256L11.8481 31.5377Z" fill="#489789"/>
<path d="M23.6732 27.3924L22.4146 28.9476L16.0003 25.315L21.6418 29.9024L20.2955 31.5659L12.4739 25.2058L14.6089 22.5678L19.2786 25.1572L15.7839 21.1159L17.9388 18.4533L25.7604 24.8134L24.3981 26.4966L18.7566 21.9092L23.6732 27.3924Z" fill="#489789"/>
<path d="M26.3019 24.9265L20.3919 16.7522L22.1324 15.4878L28.0424 23.6621L26.3019 24.9265Z" fill="#489789"/>
<path d="M28.3972 23.368L23.9929 14.2892L25.9942 13.3136L29.5387 20.62L31.5969 19.6168L32.4568 21.3893L28.3972 23.368Z" fill="#489789"/>
<path d="M35.3466 20.7358L33.3061 21.2289L32.5295 18.0008L29.2183 11.8326L31.3632 11.3141L32.7658 14.4953L32.5679 11.023L34.7067 10.506L34.57 17.5076L35.3466 20.7358Z" fill="#489789"/>
<path d="M44.5473 20.8701L44.2991 19.9675C43.8114 20.5477 43.159 20.7762 42.3421 20.6531C40.754 20.4137 40.1145 19.2641 40.4235 17.2044L41.0722 12.8801C41.143 12.408 41.2673 12.0059 41.445 11.6738C41.6226 11.3417 41.8152 11.0951 42.0226 10.9341C42.2349 10.7696 42.4807 10.6507 42.7603 10.5775C43.0398 10.5042 43.288 10.469 43.505 10.4718C43.7267 10.4711 43.9627 10.4895 44.2127 10.5272C44.5212 10.5737 44.797 10.6388 45.0402 10.7224C45.284 10.8019 45.4887 10.9011 45.6541 11.02C45.8237 11.1396 45.9685 11.2682 46.0885 11.406C46.2091 11.5395 46.3004 11.6985 46.3622 11.883C46.4288 12.064 46.4767 12.2421 46.5058 12.4174C46.5397 12.5891 46.5537 12.7941 46.5478 13.0325C46.5425 13.2667 46.529 13.4847 46.5072 13.6865C46.4897 13.8889 46.4605 14.1259 46.4198 14.3975L44.319 14.0809L44.4375 13.2912C44.4613 13.1325 44.4644 12.9983 44.4467 12.8889C44.429 12.7794 44.392 12.699 44.3358 12.6478C44.2843 12.5931 44.2345 12.5557 44.1864 12.5356C44.1389 12.5113 44.0839 12.4945 44.0213 12.4851C43.8963 12.4662 43.7917 12.4676 43.7075 12.489C43.6274 12.5112 43.5607 12.5438 43.5073 12.5871C43.4581 12.6309 43.4131 12.7181 43.3722 12.8487C43.3319 12.975 43.3009 13.0964 43.2792 13.2128C43.2575 13.3291 43.2278 13.5126 43.1902 13.7633L42.6111 17.6238C42.5892 17.7701 42.5748 17.8939 42.5681 17.9955C42.5656 18.0976 42.5743 18.21 42.5943 18.3327C42.6142 18.4553 42.6612 18.5542 42.7352 18.6295C42.8139 18.7012 42.92 18.7471 43.0534 18.7672C43.2743 18.8005 43.433 18.7368 43.5296 18.5762C43.6309 18.412 43.7107 18.1356 43.769 17.7471L43.942 16.5939L43.3543 16.5054L43.6129 14.7819L46.2763 15.1834L45.4039 20.9992L44.5473 20.8701Z" fill="#489789"/>
<path d="M53.524 13.5337L50.4952 23.2264L48.5268 22.3604L48.9919 20.904L47.9614 20.4506L47.2242 21.7873L45.2442 20.9163L50.3341 12.1303L53.524 13.5337ZM51.2417 14.599L51.0564 14.5175L48.843 18.8314L49.5725 19.1523L51.2417 14.599Z" fill="#489789"/>
<path d="M55.3725 21.2299C55.3725 21.2299 54.4186 22.4263 52.5108 24.8192L50.7525 23.4107L57.0402 15.5241L59.7073 17.6606C59.9806 17.8795 60.1842 18.1047 60.3179 18.3363C60.4543 18.5645 60.5298 18.7845 60.5444 18.9963C60.5616 19.2048 60.5212 19.4348 60.4233 19.6862C60.3312 19.937 60.2148 20.171 60.0741 20.3881C59.936 20.602 59.7537 20.8508 59.5274 21.1347C59.409 21.2832 59.3084 21.4027 59.2255 21.4931C59.1485 21.5829 59.0357 21.6872 58.887 21.8061C58.7442 21.9243 58.6066 22.0088 58.4744 22.0597C58.3421 22.1105 58.1815 22.136 57.9925 22.1361C57.8069 22.1389 57.6137 22.1004 57.4129 22.0206C57.5505 22.1796 57.6391 22.3425 57.6787 22.5094C57.7209 22.673 57.7177 22.8327 57.6691 22.9885C57.6205 23.1442 57.5636 23.2798 57.4985 23.3953C57.436 23.5075 57.3548 23.6263 57.2548 23.7518C56.2154 25.0555 55.4194 26.0403 54.8668 26.7064L53.1677 25.3454L55.6189 22.271C55.7162 22.1488 55.7807 22.0409 55.8122 21.9472C55.8471 21.8561 55.8418 21.7681 55.7963 21.683C55.7568 21.5972 55.7084 21.526 55.6511 21.4693C55.5938 21.4125 55.5009 21.3327 55.3725 21.2299ZM57.644 18.401L56.4718 19.8714L56.9064 20.2195C57.1369 20.4042 57.4442 20.2556 57.8284 19.7737C58.0836 19.4535 58.2007 19.212 58.1795 19.049C58.1617 18.8887 58.0145 18.6977 57.7379 18.4762L57.644 18.401Z" fill="#489789"/>
<path d="M55.0252 26.8885L63.1339 20.8999L64.9528 23.3745C65.4454 24.0446 65.6328 24.6593 65.5151 25.2185C65.4033 25.7787 65.0517 26.2797 64.4603 26.7217C64.4603 26.7217 63.203 27.6609 60.6883 29.5391C59.8772 30.1381 59.1557 30.4243 58.5236 30.3978C57.8941 30.3747 57.3192 30.0094 56.7992 29.3019L55.0252 26.8885ZM63.0261 23.7662L57.8341 27.6007C57.845 27.6084 57.8617 27.6276 57.8842 27.6582C57.8992 27.6786 57.925 27.7173 57.9616 27.7742C58.0007 27.8346 58.0328 27.8817 58.0578 27.9157C58.3103 28.2593 58.5808 28.3245 58.8693 28.1115L62.8701 25.1567C63.1654 24.9386 63.3323 24.7419 63.3709 24.5665C63.4153 24.3919 63.3526 24.189 63.1825 23.9577C63.155 23.9203 63.1029 23.8565 63.0261 23.7662Z" fill="#489789"/>
<path d="M58.3436 31.6103L67.6638 27.7851L69.3503 31.9138L67.5424 32.6558L66.7136 30.6266L64.894 31.3734L65.6893 33.3204L63.9399 34.0384L63.1446 32.0914L61.0208 32.963L61.9047 35.127L60.0852 35.8738L58.3436 31.6103Z" fill="#489789"/>
<path d="M70.8729 40.4286L60.9 41.8359L60.5968 39.6772L65.4313 37.8687L60.4417 38.5728L60.1385 36.4141L70.1114 35.0068L70.4305 37.2784L65.8028 38.9682L70.5732 38.295L70.8729 40.4286Z" fill="#489789"/>
<path d="M70.4237 63.869C70.3949 63.8978 70.3805 63.9267 70.3517 63.9555C70.3373 63.9844 70.3229 63.9988 70.2942 64.0277C70.1359 64.2296 69.9776 64.4315 69.8049 64.6335C69.0998 65.4989 68.3372 66.3355 67.5457 67.1432C66.9413 67.7635 66.3082 68.3548 65.6463 68.9606C64.9556 69.5809 64.2648 70.1578 63.531 70.7203C63.0993 71.0521 62.6532 71.3838 62.2071 71.7012C62.092 71.7877 61.9769 71.8598 61.8617 71.9464C61.5164 72.1916 61.1566 72.4368 60.7825 72.6676C60.7681 72.682 60.7537 72.682 60.7393 72.6964C60.4803 71.8166 60.0918 70.9656 59.6169 70.1867C58.1204 67.6625 55.3432 66.0903 52.6379 65.0518C56.2353 63.3353 60.2645 62.5564 64.2361 62.7584H64.2505C64.9268 62.8016 65.6031 62.8593 66.2938 62.9459C66.3658 62.9603 66.4377 62.9603 66.5097 62.9747C67.704 63.1478 68.8696 63.4074 70.0208 63.7536C70.1215 63.7825 70.2366 63.8113 70.3373 63.8546C70.3949 63.8546 70.4093 63.869 70.4237 63.869Z" fill="#489789"/>
<path d="M74.5967 57.3494C74.424 57.6956 74.2514 58.0273 74.0643 58.3591C73.1002 60.1188 72.0353 61.7631 70.8122 63.3786C70.7259 63.3497 70.6395 63.3209 70.5532 63.292C70.4381 63.2632 70.3373 63.2199 70.2222 63.1911C69.8481 63.0757 69.4596 62.9747 69.0854 62.8738C68.2796 62.6718 67.445 62.4987 66.6248 62.3833C66.6104 62.3833 66.6104 62.3833 66.596 62.3833C66.524 62.3689 66.4665 62.3689 66.4089 62.3545C65.7182 62.2535 65.0131 62.1958 64.308 62.1526C64.2936 62.1526 64.2936 62.1526 64.2792 62.1526C60.0055 61.9362 55.7029 62.8305 51.8752 64.7489C51.6018 64.6623 51.314 64.5758 51.0406 64.4748C48.9685 63.8113 46.5942 63.4507 44.6372 63.2632C44.5796 62.5853 44.7667 61.6477 44.5364 61.0708C44.9106 60.8111 45.3135 60.5227 45.7164 60.263C49.3282 57.9119 53.4149 56.3253 57.6599 55.6041C60.1494 55.1858 62.682 55.056 65.2002 55.2291C65.4304 55.2435 65.675 55.2579 65.9053 55.2868C66.0492 55.3012 66.1931 55.3156 66.337 55.33C67.0852 55.4022 67.8191 55.5031 68.553 55.6474C68.5818 55.6474 68.625 55.6618 68.6537 55.6618C68.7545 55.6762 68.8696 55.7051 68.9847 55.7195C70.4093 55.9935 71.8195 56.3686 73.2009 56.8301C73.4024 56.9023 73.6182 56.9744 73.8197 57.0465C73.9348 57.0898 74.0643 57.133 74.1794 57.1763C74.2945 57.234 74.496 57.3205 74.5967 57.3494Z" fill="#489789"/>
<path d="M77.0718 51.2337C77.0574 51.2769 77.043 51.3346 77.0286 51.3779C76.712 52.3732 76.3667 53.3396 75.9781 54.306C75.8055 54.7531 75.604 55.1858 75.4169 55.6185C75.2299 56.0224 75.0428 56.4407 74.8413 56.8446C74.7118 56.7869 74.496 56.7147 74.3665 56.6571C74.0499 56.5417 73.7477 56.4263 73.4312 56.3253C73.4168 56.3253 73.4168 56.3109 73.4024 56.3109C72.021 55.8493 70.5964 55.4599 69.1718 55.1858C69.1574 55.1858 69.143 55.1714 69.1286 55.1714C69.0279 55.157 68.9128 55.1281 68.812 55.1137C68.7689 55.0993 68.7257 55.0993 68.6969 55.0849C68.0925 54.9839 67.4738 54.8829 66.855 54.8108C66.7111 54.7964 66.5672 54.7819 66.4377 54.7675C66.3801 54.7531 66.337 54.7531 66.2794 54.7531C66.1787 54.7387 66.0923 54.7387 66.006 54.7243C65.7614 54.6954 65.5168 54.681 65.2865 54.6666C62.3222 54.4646 59.3148 54.6666 56.3936 55.2724C56.3792 55.2724 56.3648 55.2868 56.3505 55.2868C51.9184 56.2099 47.6878 58.0994 44.0184 60.7679C43.7882 60.739 43.5148 60.739 43.2701 60.739C43.2701 60.4794 43.2557 60.2053 43.2557 59.9457C47.0546 58.4889 49.7311 54.8252 50.1053 50.801C55.9475 48.7095 62.3078 48.0748 68.4523 48.9403C68.4523 48.9403 68.4523 48.9403 68.4667 48.9403C69.661 49.1134 70.841 49.3297 72.0066 49.6182C73.1721 49.8922 74.3377 50.2384 75.4745 50.6279C75.9925 50.8154 76.5393 51.0173 77.0718 51.2337Z" fill="#489789"/>
<path d="M26.0743 64.9219C25.8297 65.0229 25.5851 65.1095 25.3404 65.2104C25.0526 65.3258 24.7792 65.4556 24.5058 65.5854C23.628 65.946 22.8222 66.3788 22.0308 66.9413C21.6423 67.1721 21.2393 67.4461 20.9084 67.7923C19.4118 69.0039 18.3902 70.5617 17.8002 72.4079C16.908 71.8166 16.0302 71.1819 15.1812 70.5184L15.1668 70.504C14.3322 69.8549 13.4689 69.1049 12.6774 68.3693C12.0874 67.8211 11.5262 67.2586 10.965 66.6672C10.5477 66.2201 10.1304 65.7729 9.7275 65.3114C9.32459 64.8354 8.93606 64.3738 8.54754 63.869C14.2603 62.0372 20.635 62.3978 26.0743 64.9219Z" fill="#489789"/>
<path d="M34.0031 60.9986C33.629 61.6045 33.8736 62.5853 33.8016 63.292C33.0965 63.393 32.3483 63.3786 31.6432 63.5517C31.3266 63.5517 31.0388 63.6094 30.751 63.6959C29.9452 63.8113 29.0962 63.9988 28.2472 64.2584C27.7723 64.3883 27.3262 64.5037 26.8801 64.6479C21.1242 61.8064 14.2747 61.3592 8.1734 63.3786C6.96466 61.792 5.87104 60.1188 4.92131 58.3591C4.92131 58.3591 4.92131 58.3447 4.90692 58.3447C4.74863 58.0562 4.60474 57.7821 4.46084 57.4936C4.43206 57.4504 4.41767 57.3927 4.38889 57.3494C14.0876 53.4838 25.6138 54.8252 34.1326 60.8688C34.0894 60.9265 34.0463 60.9554 34.0031 60.9986Z" fill="#489789"/>
<path d="M35.2406 59.9457C35.2406 60.2053 35.2262 60.465 35.2262 60.739H34.9528L34.6938 60.5659C25.9736 54.2627 14.1308 52.8636 4.12987 56.8301C3.92841 56.4263 3.74135 56.008 3.56867 55.6185V55.6041C3.2377 54.8541 2.92113 54.1184 2.63333 53.3396C2.37432 52.6472 2.12969 51.926 1.89945 51.2192C7.28124 49.0845 13.1667 48.2191 18.9226 48.6662C19.5557 48.7095 20.1889 48.7816 20.8077 48.8537C23.3403 49.1711 25.8585 49.748 28.276 50.5702H28.2903C28.3191 50.5846 28.3479 50.5846 28.3767 50.599C28.7508 54.8108 31.1827 58.2293 35.2406 59.9457Z" fill="#489789"/>
<path d="M31.3122 66.7971C29.9164 70.3597 30.8086 74.1965 33.3124 76.187C33.3556 76.2303 33.4131 76.2591 33.4563 76.3024C34.9672 77.4419 36.694 77.6727 38.0322 77.615C38.3776 77.6005 38.6942 77.5717 38.9676 77.5284V78.7545C38.061 78.9852 37.0681 79.0429 35.7299 78.9708C35.4421 78.9564 35.1543 78.942 34.8233 78.9131C34.8089 78.9131 34.7945 78.9131 34.7945 78.9131C28.8084 78.2063 23.2251 76.1437 18.347 73.0426C18.347 73.0282 18.3614 73.0137 18.3614 73.0137C18.3902 72.9128 18.3758 72.8118 18.3038 72.7397C18.5197 71.9752 18.8219 71.2829 19.196 70.6482C21.0954 67.475 24.88 65.7441 28.3911 64.821C30.3337 64.2296 32.1612 64.0421 34.147 63.8257C34.2765 63.7969 34.3772 63.6815 34.3772 63.5373C34.3772 62.9603 34.3772 62.3689 34.3772 61.792C34.3772 61.4746 34.406 61.4025 34.4204 61.3881C34.4636 61.316 35.1687 61.316 35.3557 61.3304C35.3701 61.4602 35.3989 61.6333 35.4996 61.7631C36.1616 62.4843 36.8954 63.0757 37.5718 63.7825C37.9027 64.1286 38.0898 64.4604 38.1905 64.8498C38.3056 65.3258 38.7373 66.6095 38.8956 67.1865C38.91 67.2442 38.9244 67.3019 38.9388 67.3307V72.0185C38.7086 71.4704 38.4064 70.8934 38.0035 70.3165C37.5574 69.6963 36.9962 69.076 36.2767 68.5279C34.2765 66.9701 32.118 66.8115 31.3122 66.7971Z" fill="#489789"/>
<path d="M45.4862 72.5233C45.4286 72.6964 44.6084 74.8023 42.7809 76.562C42.1765 77.139 41.4858 77.6871 40.6512 78.1198C40.5073 78.1919 40.3634 78.264 40.2051 78.3362C40.1044 78.3794 40.018 78.4227 39.9173 78.4516C39.7734 78.5093 39.6151 78.5669 39.4712 78.6102V77.4419C39.8741 77.3553 40.1475 77.2688 40.277 77.24C40.4066 77.1967 40.5361 77.1534 40.6512 77.1101C41.0253 76.9803 41.3707 76.8217 41.6872 76.6486C44.2199 75.2783 45.2991 72.9561 45.4862 72.5233Z" fill="#489789"/>
<path d="M60.3077 73.2157C59.8903 73.4753 59.4587 73.7349 59.0414 73.9802C58.8831 74.0667 58.7392 74.1532 58.5809 74.2398C58.437 74.3263 58.2787 74.4129 58.1204 74.485C58.0485 74.5283 57.9621 74.5715 57.8902 74.6148C57.8182 74.6581 57.7319 74.7013 57.6599 74.7302C57.5448 74.7879 57.4297 74.8456 57.3146 74.9033C57.0843 75.0187 56.8541 75.1341 56.6239 75.2495C54.1632 76.4466 51.5586 77.3986 48.8534 78.0621C48.8102 78.0765 48.7526 78.091 48.7095 78.091C48.508 78.1342 48.3066 78.1775 48.1051 78.2064C46.5798 78.4948 45.1552 78.6391 43.8889 78.6968C44.3925 78.5381 46.5078 77.8169 47.9036 75.7399C48.0475 75.5235 48.177 75.3072 48.3066 75.0619C50.2636 71.3406 48.0188 67.5759 47.9036 67.4029C46.9827 67.5471 44.4789 68.0664 42.306 70.2155C41.6009 70.9079 41.0829 71.6291 40.6944 72.307C40.1188 73.2878 39.831 74.1821 39.6727 74.7158C39.6583 74.5571 39.6295 74.1821 39.5144 73.6772V67.2586C39.5288 67.2298 39.5288 67.1865 39.5432 67.1432C39.6871 66.6384 40.1475 65.2825 40.277 64.7489C40.3634 64.4027 40.5361 64.0998 40.8526 63.768C41.529 63.0468 42.3204 62.4843 42.9679 61.7054C43.0687 61.5756 43.0975 61.4169 43.1118 61.3016C43.6011 61.3016 43.8745 61.2727 44.0903 61.3737C44.1479 61.9795 44.076 62.8593 44.1047 63.5228C44.1047 63.6671 44.2199 63.7969 44.3638 63.8113C44.8098 63.8546 45.2703 63.9123 45.7308 63.97C50.7097 64.619 56.8541 66.3066 59.4155 70.8934C59.7896 71.6002 60.0918 72.3647 60.3077 73.2157Z" fill="#489789"/>
<path d="M51.9328 35.9155C51.6882 37.9925 51.4148 40.0984 51.127 42.1755C46.5654 41.3966 42.7521 38.3676 38.9244 35.9443C41.4714 35.9588 44.0328 35.9588 46.5366 35.9588C48.177 35.9588 49.8607 35.9588 51.5299 35.9588C51.6594 35.9443 51.8033 35.9443 51.9328 35.9155Z" fill="#489789"/>
<path d="M52.0335 34.6606C52.0335 34.8049 52.0335 34.9635 52.0191 35.1078C52.0191 35.2231 51.8177 35.2087 51.6162 35.1943C47.0546 35.1943 42.4355 35.1943 37.8596 35.1943C38.7805 33.9971 39.8454 32.5547 40.1188 32.1797L50.3211 30.1315C50.3787 30.2469 50.4938 30.3335 50.6377 30.319C50.6809 30.319 50.6953 30.319 50.796 30.4777C51.5586 31.747 52.0191 33.1894 52.0335 34.6606Z" fill="#489789"/>
<path d="M49.9038 29.4824C48.7239 29.7421 47.5151 29.9728 46.3352 30.1892C44.5796 30.5065 42.8097 30.9104 41.0397 31.2566C42.8816 29.1651 44.4933 27.6362 46.4359 26.4102C47.7022 27.0736 48.8678 28.2276 49.9038 29.4824Z" fill="#489789"/>
<path d="M40.608 24.5495C39.0107 25.2562 37.5286 26.0928 36.2191 27.0737C33.1397 29.3815 30.2761 33.1461 27.1535 35.6559C27.1392 35.5116 27.1392 35.3674 27.1392 35.2376C27.0672 28.9343 33.1973 24.5639 39.241 24.5206C39.6871 24.4918 40.1475 24.5062 40.608 24.5495Z" fill="#489789"/>
<path d="M45.7308 26.0063C41.6153 28.9343 40.3058 31.0258 36.9674 35.4107C36.8811 35.4972 36.8235 35.5837 36.7659 35.6559C34.665 38.5551 31.1683 41.7427 27.355 42.3341C27.096 40.7187 26.7938 39.1032 26.506 37.4733C26.506 36.9973 27.2687 36.9973 27.1823 36.5069C29.8732 34.4587 31.9597 31.9778 34.2621 29.7276C36.3342 27.5785 39.0683 25.8476 41.9894 24.7081C43.2845 24.9966 44.5796 25.3139 45.7308 26.0063Z" fill="#489789"/>
<path d="M51.1701 43.1851C51.0838 43.1274 51.0406 43.0409 51.055 42.9399C46.2344 42.1033 41.7592 38.5118 37.543 35.9588C37.4423 35.9876 37.3415 36.103 37.212 36.2761C35.0967 39.1753 31.2834 42.5793 27.3838 43.0553C26.4628 43.8342 25.5707 44.541 25.5707 45.8536C25.5995 47.4835 27.024 48.8537 28.6069 48.796C28.7652 48.796 28.8947 48.9114 28.9091 49.0701C28.9523 49.6759 28.9091 50.2961 28.9954 50.8875C29.5854 54.7675 31.6719 57.4792 35.3126 59.1235C35.4565 59.1812 35.7443 59.2822 35.7874 59.6428C35.8018 59.7293 35.7874 59.8159 35.7874 59.888C35.7874 60.1621 35.773 60.4217 35.773 60.6957C35.9457 60.9409 35.8882 61.1717 35.9457 61.3881C36.8523 62.4699 38.3776 63.2776 38.7517 64.7056C38.8812 65.2537 39.0539 65.8307 39.1978 66.4076C39.1978 66.4076 39.1978 66.4076 39.1978 66.3932C39.5576 65.3114 39.5288 64.2873 40.3778 63.4074C41.0397 62.6862 41.8455 62.1237 42.4499 61.3881C42.5075 61.1717 42.4499 60.9409 42.6226 60.6957C42.6226 60.4217 42.6082 60.1476 42.6082 59.8736C42.5506 59.5418 42.7233 59.1812 43.1406 59.1091C45.0832 58.287 46.6517 56.96 47.7885 55.2579C48.9973 53.4261 49.5872 51.3491 49.5009 49.0989C49.4865 48.796 49.8175 48.7816 50.0477 48.7816C51.4867 48.7528 52.7962 47.3536 52.8393 45.9113C52.825 44.7573 52.2925 43.9352 51.1701 43.1851ZM46.22 51.5221C46.033 52.5318 44.9969 53.0078 44.3925 53.3107C43.8457 53.5848 43.227 53.7723 39.831 53.8588C38.0035 53.9165 37.284 53.8877 36.8523 53.8588C34.7945 53.7434 34.0463 53.4838 33.7009 53.3396C32.9382 53.0367 31.9885 52.6616 31.7007 51.7385C31.4273 50.8298 31.7007 49.8778 32.4202 49.272C32.9239 48.8393 33.4707 48.8105 33.8304 49.2143C34.2046 49.6326 34.1326 50.0798 33.6002 50.5702C33.3987 50.7577 33.2692 50.9596 33.3699 51.2337C33.4851 51.5366 33.7297 51.6087 34.0319 51.6087C34.5355 51.5943 34.924 51.3491 35.255 50.974C35.8018 50.3394 36.3486 49.7047 36.9242 49.0989C37.3703 48.5941 37.7301 48.5364 38.32 48.8826C38.7373 49.1278 39.1259 49.1278 39.5432 48.8826C40.1619 48.522 40.5073 48.5941 40.9821 49.1278C41.5577 49.7624 42.1189 50.4115 42.6801 51.0462C43.0111 51.4212 43.414 51.6231 43.9321 51.6087C44.1911 51.5943 44.3925 51.4933 44.4789 51.2481C44.5796 50.9885 44.5076 50.7865 44.3062 50.6134C44.2486 50.5702 44.1911 50.5269 44.1335 50.4692C43.745 50.1086 43.6874 49.6326 43.9896 49.2432C44.263 48.897 44.7523 48.8249 45.1696 49.0701C45.9898 49.5461 46.4071 50.5269 46.22 51.5221Z" fill="#489789"/>
<path d="M40.6656 77.1101V78.1198C40.5217 78.1919 40.3778 78.264 40.2195 78.3362H38.0178V77.6294C38.3632 77.615 38.6798 77.5861 38.9532 77.5428C39.1403 77.514 39.3273 77.4852 39.4856 77.4563C39.8885 77.3698 40.1619 77.2832 40.2914 77.2544C40.4209 77.1967 40.5505 77.1534 40.6656 77.1101Z" fill="#489789"/>
<path d="M40.6656 67.1721V72.3214C40.09 73.3022 39.8022 74.1965 39.6439 74.7302C39.6295 74.5715 39.6007 74.1965 39.4856 73.6917C39.3849 73.2157 39.2266 72.6387 38.9532 72.0041C38.7229 71.456 38.4208 70.879 38.0178 70.3021V67.1721H40.6656Z" fill="#489789"/>
</svg>
