<svg width="24" height="24" viewBox="0 0 24 24" fill="none" xmlns="http://www.w3.org/2000/svg">
<path d="M12 24C18.6274 24 24 18.6274 24 12C24 5.37258 18.6274 0 12 0C5.37258 0 0 5.37258 0 12C0 18.6274 5.37258 24 12 24Z" fill="#FFCC4D"/>
<path d="M12.0001 14C9.58475 14 7.98208 13.7187 6.00008 13.3333C5.54741 13.246 4.66675 13.3333 4.66675 14.6667C4.66675 17.3333 7.73008 20.6667 12.0001 20.6667C16.2694 20.6667 19.3334 17.3333 19.3334 14.6667C19.3334 13.3333 18.4527 13.2453 18.0001 13.3333C16.0181 13.7187 14.4154 14 12.0001 14Z" fill="#664500"/>
<path d="M6 14.6666C6 14.6666 8 15.3333 12 15.3333C16 15.3333 18 14.6666 18 14.6666C18 14.6666 16.6667 17.3333 12 17.3333C7.33333 17.3333 6 14.6666 6 14.6666Z" fill="white"/>
<path d="M7.99992 11.3333C8.92039 11.3333 9.66658 10.2886 9.66658 8.99996C9.66658 7.71129 8.92039 6.66663 7.99992 6.66663C7.07944 6.66663 6.33325 7.71129 6.33325 8.99996C6.33325 10.2886 7.07944 11.3333 7.99992 11.3333Z" fill="#664500"/>
<path d="M15.9999 11.3333C16.9204 11.3333 17.6666 10.2886 17.6666 8.99996C17.6666 7.71129 16.9204 6.66663 15.9999 6.66663C15.0794 6.66663 14.3333 7.71129 14.3333 8.99996C14.3333 10.2886 15.0794 11.3333 15.9999 11.3333Z" fill="#664500"/>
</svg>
