<svg width="218" height="175" viewBox="0 0 218 175" fill="none" xmlns="http://www.w3.org/2000/svg">
<g clip-path="url(#clip0_512_373)">
<path d="M118.618 119.626C118.984 119.626 119.35 119.353 119.441 118.988L137.641 38.3145C137.732 37.8584 137.458 37.4327 137.001 37.3111C136.543 37.2198 136.117 37.4935 135.995 37.9496L117.825 118.593C117.734 119.049 118.008 119.474 118.466 119.596C118.496 119.596 118.557 119.626 118.618 119.626Z" fill="#414042"/>
<path d="M103.345 119.626C103.802 119.626 104.168 119.292 104.168 118.836L107.338 43.5751C107.369 43.119 107.003 42.7237 106.546 42.7237C106.089 42.6933 105.692 43.0582 105.692 43.5143L102.522 118.775C102.491 119.231 102.857 119.626 103.314 119.626C103.345 119.626 103.345 119.626 103.345 119.626Z" fill="#414042"/>
<path d="M83.8953 119.626H83.9258C84.383 119.596 84.7489 119.231 84.7184 118.775L81.5784 47.8019C81.5479 47.3458 81.1821 46.9809 80.7248 47.0113C80.2675 47.0417 79.9017 47.4066 79.9322 47.8627L83.0722 118.836C83.1027 119.262 83.4685 119.626 83.8953 119.626Z" fill="#414042"/>
<path d="M63.7139 119.626C63.7444 119.626 63.7749 119.626 63.8359 119.626C64.2931 119.566 64.598 119.14 64.5675 118.684L55.8792 51.755C55.8183 51.2988 55.3915 50.9948 54.9342 51.0252C54.4769 51.086 54.1721 51.5117 54.2025 51.9678L62.8908 118.897C62.9518 119.322 63.3176 119.626 63.7139 119.626Z" fill="#414042"/>
<path d="M45.6058 119.626C45.6668 119.626 45.7583 119.626 45.8192 119.596C46.2765 119.474 46.5204 119.018 46.3984 118.562L28.9304 55.7386C28.8085 55.2824 28.3512 55.0392 27.8939 55.1608C27.4366 55.2824 27.1927 55.7386 27.3147 56.1947L44.8132 119.018C44.9047 119.383 45.24 119.626 45.6058 119.626Z" fill="#414042"/>
<path d="M9.75517 76.9027C9.78565 76.9027 9.84662 76.9027 9.87711 76.9027L164.559 52.6672C165.017 52.6064 165.321 52.1807 165.26 51.7246C165.199 51.2685 164.773 50.9644 164.315 51.0252L9.63323 75.2606C9.17595 75.3214 8.8711 75.7472 8.93207 76.2033C8.99304 76.629 9.35886 76.9027 9.75517 76.9027Z" fill="#414042"/>
<path d="M13.4439 93.6273C13.4744 93.6273 13.5354 93.6273 13.5659 93.6273L153.737 74.5005C154.194 74.4397 154.499 74.014 154.438 73.5578C154.377 73.1017 153.95 72.7976 153.493 72.8584L13.3525 91.9549C12.8952 92.0157 12.5903 92.4414 12.6513 92.8975C12.6818 93.3232 13.0476 93.6273 13.4439 93.6273Z" fill="#414042"/>
<path d="M21.431 107.889C21.4615 107.889 21.4615 107.889 21.492 107.889L140.872 98.0061C141.329 97.9757 141.665 97.5804 141.634 97.1243C141.604 96.6682 141.208 96.3337 140.75 96.3641L21.37 106.247C20.9127 106.277 20.5774 106.673 20.6079 107.129C20.6384 107.585 21.0042 107.889 21.431 107.889Z" fill="#414042"/>
<path d="M3.93253 68.7837C7.34688 85.1738 11.6148 95.543 18.7788 110.048C21.1567 114.913 29.1743 122.09 38.7772 122.09H126.209C128.312 127.776 133.922 143.071 136.117 149.366C136.879 151.586 136.818 153.501 135.934 154.9C135.232 155.964 134.318 156.36 134.044 156.39H32.4667C30.6376 156.39 29.1438 157.88 29.1438 159.705C29.1438 161.529 30.6376 163.019 32.4667 163.019H134.074C136.665 163.019 139.47 161.408 141.269 158.914C142.579 157.059 144.47 153.106 142.427 147.207C140.11 140.547 133.983 123.944 132.184 119.018L178.552 32.5978C178.552 32.5978 178.552 32.5674 178.583 32.5674L185.289 20.0695L208.915 10.7646C210.623 10.0956 211.446 8.17987 210.775 6.477C210.104 4.77413 208.184 3.9227 206.477 4.62209L180.595 14.8089L173.491 28.0669C160.017 30.53 57.1598 47.9236 18.1691 53.4579C11.6758 54.3701 7.62125 56.2859 5.42631 59.4179C3.62768 61.881 3.13991 65.0435 3.93253 68.7837ZM10.8222 63.219C11.8587 61.729 21.4311 60.6647 25.8514 60.0261C61.6106 54.9175 145.079 39.9262 169.437 35.517L126.514 115.461H38.7772C31.7046 115.461 25.9429 109.592 24.754 107.129C17.6814 92.8063 13.7488 83.2277 10.4259 67.4457C9.84667 64.5873 10.5783 63.5535 10.8222 63.219Z" fill="#414042"/>
<path d="M62.6777 161.529C62.6777 168.979 56.6416 175 49.1727 175C41.7038 175 35.6677 168.979 35.6677 161.529C35.6677 154.079 41.7038 148.058 49.1727 148.058C56.6416 148.028 62.6777 154.079 62.6777 161.529Z" fill="#FF8A00"/>
<path d="M57.6476 161.529C57.6476 166.182 53.8674 169.983 49.1727 169.983C44.5084 169.983 40.6978 166.212 40.6978 161.529C40.6978 156.877 44.4779 153.076 49.1727 153.076C53.8369 153.076 57.6476 156.846 57.6476 161.529Z" fill="white"/>
<path d="M50.8188 161.529C50.8188 162.441 50.0871 163.171 49.1726 163.171C48.258 163.171 47.5264 162.441 47.5264 161.529C47.5264 160.617 48.258 159.887 49.1726 159.887C50.0871 159.887 50.8188 160.617 50.8188 161.529Z" fill="#414042"/>
<path d="M45.4231 163.567C45.4231 160.374 48.0143 157.789 51.2153 157.789C52.2213 157.789 53.1663 158.032 53.9894 158.488C53.0139 156.694 51.0933 155.478 48.8984 155.478C45.6974 155.478 43.1062 158.063 43.1062 161.255C43.1062 163.445 44.3256 165.361 46.1242 166.334C45.667 165.513 45.4231 164.57 45.4231 163.567Z" fill="#BCBEC0"/>
<path d="M133.403 161.529C133.403 168.979 127.367 175 119.899 175C112.43 175 106.394 168.979 106.394 161.529C106.394 154.079 112.43 148.058 119.899 148.058C127.367 148.028 133.403 154.079 133.403 161.529Z" fill="#FF8A00"/>
<path d="M128.373 161.529C128.373 166.182 124.593 169.983 119.898 169.983C115.234 169.983 111.424 166.212 111.424 161.529C111.424 156.877 115.204 153.076 119.898 153.076C124.563 153.076 128.373 156.846 128.373 161.529Z" fill="white"/>
<path d="M121.545 161.529C121.545 162.441 120.813 163.171 119.899 163.171C118.984 163.171 118.252 162.441 118.252 161.529C118.252 160.617 118.984 159.887 119.899 159.887C120.813 159.887 121.545 160.617 121.545 161.529Z" fill="#414042"/>
<path d="M116.149 163.567C116.149 160.374 118.74 157.789 121.941 157.789C122.947 157.789 123.892 158.032 124.715 158.488C123.74 156.694 121.819 155.478 119.624 155.478C116.423 155.478 113.832 158.063 113.832 161.255C113.832 163.445 115.051 165.361 116.85 166.334C116.393 165.513 116.149 164.57 116.149 163.567Z" fill="#BCBEC0"/>
<path d="M187.21 9.45701L210.592 0.334506C213 -0.608152 215.744 0.577773 216.689 3.01044L217.634 5.44311C218.579 7.84537 217.39 10.5821 214.952 11.5248L191.6 20.6473L187.21 9.45701Z" fill="#FF8A00"/>
<path d="M16.4315 61.1208C16.4315 65.6516 12.7428 69.3006 8.23102 69.3006C3.68872 69.3006 0 65.6212 0 61.1208C0 56.5899 3.68871 52.9105 8.20053 52.9105C12.7428 52.9105 16.4315 56.5899 16.4315 61.1208Z" fill="#FF8A00"/>
</g>
<defs>
<clipPath id="clip0_512_373">
<rect width="218" height="175" fill="white"/>
</clipPath>
</defs>
</svg>
