<svg width="104" height="129" viewBox="0 0 104 129" fill="none" xmlns="http://www.w3.org/2000/svg">
<g clip-path="url(#clip0_1181_2461)">
<path d="M35.1589 14.413H34.8662V14.0107C34.8662 13.2424 34.2443 12.584 33.4396 12.584C32.6348 12.584 32.0129 13.2059 32.0129 14.0107V14.413H31.5739C31.2813 14.413 31.0618 14.6325 31.0618 14.9252V17.2298C31.0618 17.5225 31.2813 17.7419 31.5739 17.7419H35.1589C35.4515 17.7419 35.671 17.5225 35.671 17.2298V14.9252C35.7076 14.6325 35.4515 14.413 35.1589 14.413ZM33.9517 17.0103H32.8908L33.1835 16.3153C33.0006 16.2055 32.8542 16.0226 32.8542 15.8031C32.8542 15.4739 33.1103 15.2178 33.4396 15.2178C33.7688 15.2178 34.0249 15.4739 34.0249 15.8031C34.0249 16.0226 33.8785 16.2421 33.6956 16.3153L33.9517 17.0103ZM34.4638 14.413H32.4884V14.0107C32.4884 13.4619 32.9274 13.023 33.4761 13.023C34.0249 13.023 34.4638 13.4619 34.4638 14.0107V14.413Z" fill="#E0E0E0"/>
<path d="M36.9514 24.0339C36.9514 24.8753 37.6099 25.5338 38.4512 25.5338C39.2926 25.5338 39.9511 24.8753 39.9511 24.0339C39.9511 23.1926 39.2926 22.5341 38.4512 22.5341C37.6465 22.4975 36.9514 23.1926 36.9514 24.0339Z" fill="white"/>
<path d="M36.9513 24.0339C36.9513 24.0339 36.9513 23.8876 37.0245 23.6681C37.0976 23.4486 37.244 23.1194 37.5732 22.8999C37.9024 22.6438 38.4146 22.5341 38.9267 22.717C39.4388 22.8999 39.8412 23.412 39.8412 24.0339C39.8412 24.6558 39.4023 25.2045 38.9267 25.3509C38.4146 25.5338 37.9024 25.424 37.5732 25.168C37.244 24.9119 37.0976 24.6192 37.0245 24.3997C36.9879 24.1437 36.9879 24.0339 36.9513 24.0339C36.9513 24.0339 36.9147 24.1803 36.9513 24.3997C36.9879 24.6192 37.1342 24.985 37.5 25.2777C37.8293 25.5703 38.4146 25.7167 38.9999 25.5338C39.5852 25.3509 40.0607 24.729 40.0607 24.0339C40.0607 23.3389 39.5852 22.717 38.9999 22.5341C38.4146 22.3146 37.8293 22.4975 37.5 22.7902C37.1342 23.0828 36.9879 23.412 36.9513 23.6681C36.9147 23.8876 36.9513 24.0339 36.9513 24.0339Z" fill="#263238"/>
<path d="M40.8291 29.2285C40.8291 29.8869 41.3778 30.4357 42.0363 30.4357C42.6947 30.4357 43.2435 29.8869 43.2435 29.2285C43.2435 28.57 42.6947 28.0213 42.0363 28.0213C41.3412 28.0213 40.8291 28.5334 40.8291 29.2285Z" fill="white"/>
<path d="M40.829 29.2285C40.829 29.2285 40.829 29.1187 40.9022 28.9358C40.9387 28.7529 41.0851 28.4969 41.3411 28.3139C41.5972 28.131 41.9996 28.0213 42.4386 28.1676C42.841 28.3139 43.1702 28.7163 43.1702 29.2285C43.1702 29.7406 42.841 30.143 42.4386 30.2893C42.0362 30.4357 41.6338 30.3259 41.3411 30.143C41.0851 29.9601 40.9387 29.704 40.9022 29.5211C40.829 29.3016 40.829 29.1919 40.829 29.2285C40.829 29.2285 40.7924 29.3382 40.829 29.5211C40.8656 29.704 40.9753 29.9967 41.268 30.2162C41.524 30.4357 41.9996 30.582 42.4752 30.3991C42.9141 30.2528 43.3165 29.7772 43.3165 29.1919C43.3165 28.6432 42.9141 28.131 42.4752 27.9847C42.0362 27.8384 41.5606 27.9481 41.268 28.1676C40.9753 28.3871 40.8656 28.6798 40.829 28.8627C40.7924 29.1187 40.829 29.2285 40.829 29.2285Z" fill="#263238"/>
<path d="M34.8661 20.3026L29.1229 20.3392L23.3796 20.4124C19.5386 20.449 15.6975 20.449 11.8565 20.449L6.11322 20.4124C5.63766 20.4124 5.1621 20.4124 4.64996 20.3392C4.17441 20.266 3.69885 20.1197 3.25987 19.9368C2.8209 19.7539 2.4185 19.4613 2.01611 19.1686C1.6503 18.8394 1.32106 18.5101 1.02841 18.1077C0.443113 17.2664 0.113881 16.3153 0.0407182 15.3642C0.0041369 14.8886 0.0407182 14.3765 0.113881 13.9009C0.223625 13.4253 0.36995 12.9498 0.589438 12.5108C0.845507 12.1084 1.10158 11.706 1.46739 11.3402C1.79662 10.9744 2.16243 10.6817 2.60141 10.4257C3.44278 9.91354 4.39389 9.65747 5.38159 9.62088C13.0637 9.54772 20.7457 9.51114 28.3912 9.54772H34.1345H34.8661C35.1222 9.5843 35.3783 9.54772 35.5978 9.62088C36.0733 9.69405 36.5489 9.84037 37.0244 10.0233C37.4634 10.2428 37.9024 10.4988 38.2682 10.7915C38.634 11.1207 38.9632 11.4865 39.2559 11.8889C40.3533 13.4985 40.4996 15.73 39.5851 17.4493C39.1096 18.2907 38.4511 19.0589 37.6097 19.5344C36.7684 20.0466 35.8172 20.266 34.8661 20.3026ZM34.8661 20.266C35.8172 20.266 36.7684 20.01 37.5731 19.4978C37.9755 19.2418 38.3414 18.9491 38.6706 18.5833C38.9998 18.2541 39.2559 17.8517 39.4754 17.4127C40.3533 15.73 40.1704 13.5717 39.0364 12.0353C38.7803 11.6694 38.4145 11.3036 38.0853 11.011C37.7195 10.7183 37.3171 10.4623 36.8781 10.2793C36.4391 10.0964 36.0001 9.95012 35.5246 9.91354C35.3051 9.87695 35.049 9.87695 34.8295 9.87695H34.0979H28.3547C20.6726 9.91354 12.9905 9.84037 5.34501 9.80379C4.39389 9.80379 3.44278 10.0599 2.63799 10.5354C2.2356 10.7915 1.86978 11.0841 1.54055 11.4134C1.21132 11.7426 0.955251 12.145 0.735763 12.5474C-0.142188 14.2667 0.00413697 16.4616 1.10158 17.998C1.35765 18.4004 1.72346 18.7296 2.05269 19.0223C2.4185 19.3149 2.8209 19.571 3.25987 19.7539C3.69885 19.9368 4.13783 20.0831 4.61338 20.1197C5.08894 20.1929 5.5645 20.1563 6.04005 20.1563L11.8199 20.1197C15.6609 20.1197 19.502 20.1197 23.343 20.1563L29.0863 20.2295L34.8661 20.266Z" fill="#263238"/>
<path d="M5.63774 15.2544C5.63774 15.73 5.23534 16.1324 4.75979 16.1324C4.28423 16.1324 3.88184 15.73 3.88184 15.2544C3.88184 14.7789 4.28423 14.3765 4.75979 14.3765C5.23534 14.3765 5.63774 14.7789 5.63774 15.2544Z" fill="#263238"/>
<path d="M8.41801 15.2544C8.41801 15.73 8.01562 16.1324 7.54006 16.1324C7.0645 16.1324 6.66211 15.73 6.66211 15.2544C6.66211 14.7789 7.0645 14.3765 7.54006 14.3765C8.01562 14.3765 8.41801 14.7789 8.41801 15.2544Z" fill="#263238"/>
<path d="M11.1614 15.2544C11.1614 15.73 10.759 16.1324 10.2835 16.1324C9.80791 16.1324 9.40552 15.73 9.40552 15.2544C9.40552 14.7789 9.80791 14.3765 10.2835 14.3765C10.7956 14.3765 11.1614 14.7789 11.1614 15.2544Z" fill="#263238"/>
<path d="M13.9417 15.2544C13.9417 15.73 13.5393 16.1324 13.0637 16.1324C12.5882 16.1324 12.1858 15.73 12.1858 15.2544C12.1858 14.7789 12.5882 14.3765 13.0637 14.3765C13.5393 14.3765 13.9417 14.7789 13.9417 15.2544Z" fill="#263238"/>
<path d="M16.722 15.2544C16.722 15.73 16.3196 16.1324 15.844 16.1324C15.3685 16.1324 14.9661 15.73 14.9661 15.2544C14.9661 14.7789 15.3685 14.3765 15.844 14.3765C16.3196 14.3765 16.722 14.7789 16.722 15.2544Z" fill="#263238"/>
<path d="M19.502 15.2544C19.502 15.73 19.0996 16.1324 18.624 16.1324C18.1485 16.1324 17.7461 15.73 17.7461 15.2544C17.7461 14.7789 18.1485 14.3765 18.624 14.3765C19.0996 14.3765 19.502 14.7789 19.502 15.2544Z" fill="#263238"/>
<path d="M22.2456 15.2544C22.2456 15.73 21.8433 16.1324 21.3677 16.1324C20.8921 16.1324 20.4897 15.73 20.4897 15.2544C20.4897 14.7789 20.8921 14.3765 21.3677 14.3765C21.8798 14.3765 22.2456 14.7789 22.2456 15.2544Z" fill="#263238"/>
<path d="M25.0259 15.2544C25.0259 15.73 24.6235 16.1324 24.148 16.1324C23.6724 16.1324 23.27 15.73 23.27 15.2544C23.27 14.7789 23.6724 14.3765 24.148 14.3765C24.6235 14.3765 25.0259 14.7789 25.0259 15.2544Z" fill="#263238"/>
<path d="M86.1166 98.7695L87.9823 114.609H85.129L80.0076 98.7695H86.1166Z" fill="#E0E0E0"/>
<path d="M75.6542 92.7336L77.5199 108.537H74.6666L69.5452 92.7336H75.6542Z" fill="#E0E0E0"/>
<path d="M36.9514 98.7695L34.9028 114.609H38.0488L43.6092 98.7695H36.9514Z" fill="#E0E0E0"/>
<path d="M46.6453 93.0995L44.6333 108.939H47.7427L53.3397 93.0995H46.6453Z" fill="#E0E0E0"/>
<path d="M77.5565 40.6053C77.5565 40.6053 85.3849 41.154 90.6161 43.861C94.7497 45.9827 96.7251 48.9458 97.5299 56.445C98.3347 63.9076 103.602 65.444 103.749 68.0047C103.895 70.4922 102.615 81.1739 93.3962 102.537C92.9573 103.525 92.0061 104.147 90.9453 104.147H59.0464V40.1297L77.5565 40.6053Z" fill="#455A64"/>
<path d="M47.1576 40.6053C47.1576 40.6053 39.3292 41.154 34.098 43.861C29.9644 45.9827 27.989 48.9458 27.1842 56.445C26.3794 63.9076 21.1117 65.444 20.9654 68.0047C20.819 70.4922 22.136 81.2471 31.4276 102.757C31.7934 103.598 32.6348 104.147 33.5493 104.147H65.6677V40.1297L47.1576 40.6053Z" fill="#455A64"/>
<path d="M39.2559 93.4287C39.2559 93.4287 39.073 93.3921 38.7072 93.3189C38.3413 93.2824 37.7926 93.2458 37.1342 93.3921C36.4757 93.5384 35.7075 93.8677 35.0856 94.5261C34.4637 95.148 33.9882 96.026 33.6589 96.9771C33.3297 97.9282 33.1468 98.8793 33.0371 99.7573C32.9273 100.635 32.8907 101.403 32.8541 102.062C32.8176 102.72 32.8541 103.269 32.8541 103.635C32.8541 104.001 32.8907 104.22 32.8907 104.22C32.8907 104.22 32.9273 104.001 32.9273 103.635C32.9273 103.269 32.9639 102.72 33.0005 102.062C33.0371 101.403 33.1102 100.635 33.22 99.7573C33.3297 98.9159 33.5126 97.9648 33.8418 97.0137C34.1711 96.0625 34.6101 95.2212 35.2319 94.5993C35.8172 93.9774 36.5489 93.6482 37.1707 93.5019C38.4511 93.2458 39.2559 93.5018 39.2559 93.4287Z" fill="#263238"/>
<path d="M36.0735 84.3199C36.0735 84.3565 47.9258 84.4297 62.5218 84.4297C77.1177 84.4297 88.9701 84.3931 88.9701 84.3199C88.9701 84.2833 77.1177 84.2102 62.5218 84.2102C47.9258 84.2468 36.0735 84.2833 36.0735 84.3199Z" fill="#263238"/>
<path d="M86.6287 92.9897C86.6287 92.9897 86.8116 93.0263 87.1774 93.0628C87.3603 93.0628 87.5798 93.136 87.7993 93.1726C87.909 93.2092 88.0553 93.2458 88.1651 93.2823C88.3114 93.3189 88.4577 93.3555 88.5675 93.4287C89.1528 93.6481 89.7747 94.0871 90.2868 94.709C90.7989 95.3309 91.2013 96.1723 91.4208 97.1234C91.6769 98.0379 91.75 98.9524 91.7866 99.7938C91.8232 100.635 91.7866 101.367 91.75 101.989C91.7135 102.611 91.6403 103.123 91.6037 103.489C91.5671 103.854 91.5306 104.037 91.5306 104.037C91.5306 104.037 91.6037 103.854 91.6769 103.489C91.75 103.159 91.8232 102.647 91.8964 101.989C91.9695 101.367 92.0061 100.599 91.9695 99.7572C91.933 98.9159 91.8598 98.0013 91.6037 97.0502C91.3477 96.0991 90.9453 95.2577 90.4331 94.5993C89.8844 93.9408 89.2259 93.5018 88.6041 93.3189C88.4577 93.2458 88.3114 93.2092 88.1651 93.1726C88.0188 93.136 87.909 93.0994 87.7627 93.0628C87.5066 93.0263 87.2871 92.9897 87.1042 92.9897C86.8482 92.9531 86.6287 92.9531 86.6287 92.9897Z" fill="#263238"/>
<path d="M86.6289 92.9897C86.6289 92.9897 86.6289 92.9531 86.6654 92.9165C86.702 92.8434 86.7386 92.7702 86.7752 92.6605C86.8484 92.441 86.9947 92.1118 87.1044 91.6728C87.3971 90.7948 87.7263 89.5145 88.1287 87.9415C88.5311 86.3685 89.0066 84.4663 89.5554 82.3811C90.1041 80.296 90.6894 77.9914 91.421 75.6136C91.7868 74.443 92.1526 73.2724 92.6282 72.2115C92.7379 71.9555 92.8477 71.6994 92.994 71.4433C93.1038 71.1872 93.2501 70.9312 93.3964 70.7117C93.6891 70.2361 93.9451 69.724 94.2378 69.285C94.7865 68.3705 95.445 67.5657 96.2132 67.017C96.9814 66.4683 97.8593 66.2122 98.6641 66.1024C100.274 65.883 101.591 66.2488 102.395 66.6512C103.237 67.017 103.603 67.3828 103.603 67.3828C103.603 67.3828 103.566 67.3462 103.529 67.3096C103.456 67.273 103.42 67.1999 103.31 67.1267C103.127 66.9804 102.834 66.7975 102.395 66.578C101.591 66.1756 100.237 65.7732 98.591 65.9561C97.7862 66.0659 96.8716 66.3219 96.0668 66.8707C95.2621 67.4194 94.6036 68.2607 94.0183 69.1753C93.7256 69.6508 93.4696 70.1264 93.1769 70.6019C93.0306 70.858 92.8843 71.0775 92.7745 71.3702C92.6282 71.6262 92.5185 71.8823 92.4087 72.1749C91.9332 73.2724 91.5673 74.4064 91.2015 75.6136C90.4699 77.9914 89.8846 80.296 89.3359 82.3811C88.8237 84.4663 88.3482 86.3319 87.9458 87.9415C87.5434 89.5145 87.2142 90.7948 86.9581 91.6728C86.8484 92.1118 86.7386 92.441 86.6654 92.6605C86.6289 92.7702 86.5923 92.8434 86.5923 92.9165C86.6289 92.9531 86.6289 92.9897 86.6289 92.9897Z" fill="#263238"/>
<path d="M45.1455 77.3695C45.1455 77.3695 45.2553 77.3695 45.4748 77.3695C45.6943 77.3695 46.0235 77.3695 46.4259 77.3695C47.2673 77.3695 48.511 77.3695 50.1206 77.3695C53.3398 77.3695 57.9856 77.3695 63.7289 77.3695C66.5822 77.3695 69.7282 77.3695 73.1303 77.3329C74.813 77.3329 76.5689 77.2963 78.3614 77.2963C79.2759 77.2963 80.1539 77.2963 81.105 77.3329C81.3245 77.3329 81.5805 77.3695 81.7634 77.4061C81.9829 77.4792 82.1658 77.589 82.3853 77.6987C82.7877 77.9182 83.1901 78.1743 83.5925 78.4303C84.3973 78.9425 85.1655 79.4912 85.9337 80.0765C86.7019 80.6618 87.4701 81.2837 88.1652 81.9787C88.4944 82.3445 88.8602 82.7104 89.0431 83.1493C89.0797 83.2591 89.1163 83.3688 89.1163 83.4786C89.1163 83.5883 89.0797 83.6981 89.0431 83.8078L88.8602 84.5394C88.6041 85.5271 88.3481 86.5148 88.092 87.5025C87.8359 88.4902 87.5433 89.5145 87.2872 90.5022C87.1409 91.0143 86.9946 91.5265 86.8482 92.002C86.7751 92.2581 86.7019 92.5141 86.5922 92.7702C86.5922 92.8068 86.5556 92.8068 86.5556 92.8434V92.88C86.4824 92.88 86.4459 92.9165 86.3727 92.9165C86.2264 92.9165 86.1166 92.9531 85.9703 92.9531C83.8486 93.0629 81.6903 93.0629 79.4954 93.0994C70.7525 93.2092 62.3753 93.2092 54.803 93.2092C50.9986 93.2092 47.4136 93.1726 44.0115 93.136C42.3288 93.0995 40.6826 93.0995 39.1462 93.0263C38.7438 93.0263 38.378 92.9897 37.9756 92.9531C37.8659 92.9531 37.7927 92.9531 37.683 92.9165C37.6464 92.9165 37.6098 92.9165 37.5366 92.88C37.5001 92.88 37.5001 92.8434 37.4635 92.8434C37.3537 92.7336 37.2806 92.5507 37.2074 92.3678C36.9148 91.6728 36.7318 90.9777 36.5855 90.2827C36.2197 88.8926 35.9636 87.5391 35.671 86.2953C35.5978 85.9661 35.5247 85.6734 35.4881 85.3442C35.4515 85.0516 35.3418 84.7223 35.3418 84.4297C35.4149 83.8444 35.7807 83.3322 36.1465 82.9298C36.8782 82.0885 37.7195 81.3934 38.4877 80.8081C39.256 80.2228 39.9876 79.6741 40.6095 79.1985C41.2679 78.723 41.8166 78.2474 42.3654 77.9914C42.9141 77.6987 43.4262 77.5524 43.8286 77.4792C44.231 77.4061 44.5602 77.3695 44.7797 77.3329C44.8895 77.3329 44.9626 77.3329 45.0358 77.3329C45.109 77.3695 45.1455 77.3695 45.1455 77.3695C45.1455 77.3695 45.0358 77.3695 44.8163 77.3695C44.5968 77.3695 44.2676 77.4061 43.8652 77.4792C43.4628 77.5524 42.9507 77.6987 42.4019 77.9914C41.8166 78.2474 41.2679 78.723 40.646 79.1985C39.9876 79.6741 39.256 80.1862 38.4877 80.7715C37.7195 81.3568 36.8782 82.0519 36.11 82.8933C35.7441 83.3322 35.3783 83.8444 35.2686 84.4663C35.232 84.7955 35.3418 85.0881 35.3783 85.3808C35.4515 85.6734 35.4881 86.0027 35.5612 86.3319C35.8173 87.6123 36.11 88.9292 36.4392 90.3193C36.6221 91.0143 36.805 91.7459 37.0611 92.441C37.1342 92.6239 37.2074 92.8068 37.3537 92.9531C37.3903 92.9897 37.4635 93.0263 37.5001 93.0263C37.5366 93.0263 37.6098 93.0629 37.6464 93.0629C37.7561 93.0629 37.8293 93.0994 37.939 93.0994C38.3414 93.136 38.7072 93.136 39.1096 93.1726C40.6826 93.2458 42.2922 93.2824 44.0115 93.2824C47.377 93.3189 50.9986 93.3555 54.803 93.3921C62.3753 93.4287 70.7525 93.4287 79.4954 93.3189C81.6903 93.2824 83.8486 93.2824 85.9703 93.1726C86.1166 93.1726 86.2264 93.1726 86.3727 93.136C86.4459 93.136 86.519 93.136 86.5922 93.0994C86.6288 93.0994 86.6653 93.0629 86.6653 93.0629C86.7019 93.0629 86.7019 93.0263 86.7019 92.9897C86.7385 92.9531 86.7385 92.9165 86.7385 92.88C86.8482 92.6239 86.9214 92.3678 86.9946 92.1118C87.1409 91.5996 87.2872 91.0875 87.4335 90.5753C87.6896 89.5511 87.9823 88.5634 88.2383 87.5757C88.4944 86.588 88.7505 85.6003 89.0065 84.6126L89.1894 83.881C89.226 83.7712 89.2626 83.6615 89.2626 83.4786C89.2626 83.3322 89.226 83.1859 89.1529 83.0762C88.9334 82.6006 88.5676 82.2348 88.2383 81.869C87.5433 81.1739 86.7751 80.5155 86.0069 79.9302C85.2387 79.3449 84.4339 78.7962 83.6291 78.284C83.2267 78.0279 82.8243 77.7719 82.4219 77.5524C82.2024 77.4426 82.0195 77.3329 81.7634 77.2597C81.5074 77.1866 81.2879 77.1866 81.0684 77.1866C80.1539 77.15 79.2393 77.15 78.3248 77.15C76.5323 77.15 74.7764 77.1866 73.0937 77.1866C69.7282 77.1866 66.5822 77.2232 63.6923 77.2232C57.949 77.2597 53.3032 77.2963 50.084 77.2963C48.4744 77.2963 47.2307 77.3329 46.3893 77.3329C45.9869 77.3329 45.6577 77.3329 45.4382 77.3329C45.2553 77.3329 45.1455 77.3695 45.1455 77.3695Z" fill="#263238"/>
<path d="M37.244 92.9897C37.244 92.9897 37.244 92.9531 37.2074 92.9165C37.1708 92.8434 37.1708 92.7702 37.1342 92.6605C37.0611 92.441 36.9513 92.1118 36.8416 91.6728C36.6221 90.7948 36.3294 89.5145 36.0002 87.9415C35.671 86.3319 35.3052 84.4663 34.9028 82.3445C34.4638 80.2594 33.9882 77.9182 33.3664 75.5404C33.0371 74.3332 32.7079 73.1992 32.2323 72.1018C32.1226 71.8457 31.9763 71.5896 31.8299 71.297C31.6836 71.0409 31.5373 70.8214 31.391 70.5654C31.0983 70.0898 30.7691 69.6508 30.4399 69.2118C29.7814 68.3705 29.0132 67.6389 28.1718 67.1633C27.367 66.6512 26.4891 66.3951 25.6477 66.2853C24.0015 66.1024 22.6846 66.5048 21.8798 66.9072C21.4774 67.1267 21.1848 67.3096 21.0019 67.4559C20.9287 67.5291 20.8556 67.5657 20.7824 67.6389C20.7458 67.6754 20.7092 67.712 20.7092 67.712C20.7092 67.7486 21.1116 67.3828 21.9164 67.017C22.7212 66.6512 24.0381 66.2488 25.6477 66.4682C26.4525 66.578 27.2939 66.8341 28.0987 67.3462C28.9034 67.8583 29.6351 68.5534 30.2935 69.3948C30.6228 69.7971 30.952 70.2727 31.2446 70.7483C31.391 70.9678 31.5373 71.2238 31.6836 71.4799C31.7934 71.736 31.9397 71.992 32.0494 72.2481C32.4884 73.309 32.8176 74.4796 33.1469 75.6502C33.7688 78.0279 34.2443 80.3326 34.6833 82.4543C35.1223 84.5394 35.4881 86.4417 35.8539 88.0146C36.1831 89.5876 36.4758 90.868 36.7318 91.7459C36.8416 92.1849 36.9513 92.5141 37.0611 92.7336C37.0977 92.8434 37.1342 92.9165 37.1708 92.9897C37.2074 92.9531 37.244 92.9897 37.244 92.9897Z" fill="#263238"/>
<path d="M36.3661 45.9095C36.3295 45.9095 37.9757 52.9697 40.0974 61.6761C42.2191 70.3824 43.975 77.4061 44.0116 77.4061C44.0481 77.4061 42.402 70.3459 40.2803 61.6395C38.1586 52.9332 36.4392 45.9095 36.3661 45.9095Z" fill="#263238"/>
<path d="M88.7505 48.141C88.7505 48.141 88.7139 48.2508 88.6407 48.4337C88.5676 48.6532 88.4944 48.9092 88.3847 49.275C88.1652 50.0432 87.836 51.0675 87.4701 52.3845C86.7019 55.0183 85.6411 58.6399 84.5436 62.7004C83.4462 66.7243 82.4585 70.3825 81.7635 73.0529C81.4342 74.3698 81.1416 75.4307 80.9587 76.1989C80.8855 76.5647 80.8123 76.8574 80.7392 77.0403C80.7026 77.2232 80.666 77.3329 80.666 77.3329C80.666 77.3329 80.7026 77.2232 80.7758 77.0403C80.8489 76.8208 80.9221 76.5647 81.0318 76.1989C81.2513 75.4307 81.544 74.3698 81.8732 73.0529C82.6048 70.3825 83.5925 66.7609 84.69 62.737C85.824 58.713 86.8117 55.0915 87.5433 52.421C87.9091 51.1041 88.2018 50.0432 88.4213 49.3116C88.531 48.9458 88.6042 48.6532 88.6407 48.4703C88.7139 48.2508 88.7505 48.141 88.7505 48.141Z" fill="#263238"/>
<path d="M74.4472 5.6701C74.3741 4.60924 73.4595 3.65813 72.3987 3.62155C73.0206 2.59727 72.5084 1.13402 71.4476 0.548717C70.3867 -3.01376e-06 68.9966 0.292648 68.1187 1.06086C67.6065 0.182904 66.4725 -0.256072 65.4848 0.0365783C64.4971 0.329229 63.8021 1.31692 63.8386 2.3412C62.8509 2.04855 61.7901 2.81676 61.5706 3.84103C61.3877 4.82873 61.9364 5.88959 62.7778 6.47489C62.2657 6.8407 62.3388 7.68207 62.7412 8.12105C63.1436 8.59661 63.7655 8.77951 64.3874 8.88926L68.2284 10.0233C69.1429 10.5354 70.277 10.7915 71.2647 10.4257C72.2523 10.0599 72.9474 8.88926 72.5816 7.90156C73.679 7.75524 74.5204 6.73096 74.4472 5.6701Z" fill="#263238"/>
<path d="M74.4108 5.23112C74.4108 5.23112 74.3742 5.19454 74.2644 5.08479C74.1547 5.01163 74.0084 4.90189 73.7889 4.82872C73.5694 4.75556 73.2768 4.71898 72.9109 4.79214C72.5817 4.86531 72.1793 5.04821 71.9232 5.37744L72.033 5.41402C71.9964 4.93847 71.8135 4.42633 71.4111 4.02393C71.0453 3.62154 70.4966 3.25573 69.8747 3.14598C69.2528 2.99966 68.5578 3.1094 67.8993 3.36547C67.2408 3.62154 66.6555 4.06052 66.1434 4.60924C65.9239 4.86531 65.7044 5.19454 65.5947 5.52377C65.4849 5.853 65.5581 6.25539 65.741 6.54805C65.8507 6.69437 65.9605 6.80411 66.1434 6.91386C66.3263 6.98702 66.5092 7.0236 66.6555 6.95044C66.9848 6.8407 67.2408 6.58463 67.3506 6.25539C67.4237 5.92616 67.3506 5.59693 67.1677 5.34086C66.9848 5.08479 66.7653 4.90189 66.5092 4.79214C65.9971 4.57265 65.4484 4.60924 65.0094 4.6824C64.0948 4.86531 63.473 5.34086 63.1071 5.70668C62.9242 5.88958 62.8145 6.07249 62.7413 6.18223C62.6682 6.29198 62.6316 6.36514 62.6316 6.36514C62.6316 6.36514 62.7779 6.10907 63.1437 5.74326C63.5095 5.37744 64.1314 4.93847 65.0094 4.79214C65.4484 4.71898 65.9605 4.71898 66.436 4.93847C66.6555 5.04821 66.875 5.19454 67.0213 5.45061C67.1677 5.67009 67.2408 5.96274 67.1677 6.21881C67.0945 6.47488 66.875 6.73095 66.619 6.80411C66.3629 6.87728 66.0702 6.73095 65.8873 6.47488C65.7044 6.21881 65.6678 5.88958 65.7776 5.59693C65.8507 5.30428 66.0702 5.01163 66.2897 4.75556C67.2408 3.6947 68.6309 3.07282 69.8381 3.32889C70.4234 3.43863 70.9355 3.76787 71.3014 4.17026C71.6672 4.57265 71.8501 5.04821 71.8867 5.48719V5.67009L71.9964 5.52377C72.2525 5.19454 72.5817 5.01163 72.9109 4.97505C73.2402 4.90189 73.5328 4.93847 73.7523 4.97505C74.2279 5.04821 74.4108 5.2677 74.4108 5.23112Z" fill="#455A64"/>
<path d="M70.8257 9.21849C70.8257 9.21849 70.8257 9.25507 70.8623 9.32823C70.8988 9.4014 70.972 9.47456 71.0452 9.54772C71.1549 9.62088 71.3012 9.73063 71.4841 9.76721C71.6671 9.80379 71.9231 9.80379 72.1426 9.65747L72.5084 9.43798L72.106 9.54772C71.9597 9.5843 71.85 9.62088 71.7036 9.65747L71.1915 9.80379L71.7402 9.76721C72.0694 9.73063 72.4353 9.54772 72.5816 9.18191C72.7645 8.8161 72.6913 8.34054 72.3621 7.97472L72.2524 8.08447C72.6547 8.66977 73.4595 9.07217 74.3009 9.03558C75.1423 8.999 75.9471 8.30396 76.2397 7.42601C76.4226 6.8407 76.386 6.18224 76.0934 5.63352C75.8007 5.12138 75.0691 4.86531 74.557 5.19455L74.6667 5.34087C74.996 5.04822 75.1789 4.64583 75.2154 4.24343C75.252 3.84104 75.1423 3.47522 74.9594 3.14599C74.7765 2.85334 74.4838 2.63385 74.1912 2.52411C73.8985 2.41437 73.6059 2.41437 73.3498 2.48753C72.8377 2.59727 72.5084 2.85334 72.3621 3.07283C72.1792 3.29232 72.1792 3.43864 72.1792 3.43864C72.1792 3.43864 72.2524 3.29232 72.4353 3.10941C72.6182 2.9265 72.9474 2.67043 73.423 2.59727C73.6424 2.56069 73.9351 2.56069 74.1912 2.67044C74.4472 2.7436 74.7033 2.96309 74.8862 3.21915C75.0325 3.51181 75.1423 3.84104 75.1057 4.20685C75.0691 4.57266 74.9228 4.93848 74.6301 5.19455L74.7399 5.34087C75.1423 5.0848 75.7642 5.26771 76.0202 5.74327C76.3129 6.18224 76.3495 6.80412 76.1666 7.35284C75.9105 8.15763 75.1789 8.77951 74.3741 8.8161C73.6059 8.88926 72.8377 8.52344 72.4718 7.97472L72.3621 8.08447C72.6547 8.37712 72.6913 8.77951 72.545 9.10875C72.3987 9.43798 72.106 9.62088 71.8134 9.65747L71.85 9.76721C71.9963 9.73063 72.1426 9.65747 72.2524 9.62088L72.2158 9.51114C72.0329 9.62088 71.8134 9.65747 71.6305 9.62088C71.4476 9.5843 71.3012 9.51114 71.1915 9.43798C70.8988 9.36481 70.8623 9.21849 70.8257 9.21849Z" fill="#263238"/>
<path d="M59.8879 6.95044C59.8879 6.95044 59.7416 6.80412 59.5586 6.47489C59.3757 6.14566 59.1928 5.63352 59.3392 4.97505C59.4489 4.35317 59.9976 3.65813 60.839 3.40206C61.0585 3.32889 61.278 3.32889 61.4975 3.32889C61.7169 3.32889 61.9364 3.40206 62.0462 3.58496C62.1559 3.76787 62.1559 3.98736 61.9364 4.06052C61.7535 4.13368 61.4975 4.0971 61.278 4.02394C60.839 3.84103 60.4366 3.47522 60.2903 3.07283C60.1074 2.63385 60.1805 2.15829 60.4 1.79248C60.8024 1.02427 61.6438 0.695041 62.3022 0.731622C62.9607 0.731622 63.4363 1.02427 63.7289 1.24376C64.0216 1.46325 64.1313 1.64615 64.1313 1.64615C64.1313 1.64615 64.1313 1.60957 64.0581 1.49983C63.985 1.42667 63.9118 1.31692 63.7655 1.1706C63.4728 0.914528 62.9973 0.585297 62.3022 0.585297C61.973 0.585297 61.5706 0.658459 61.2048 0.841366C60.839 1.02427 60.4732 1.31692 60.2537 1.71932C60.0342 2.12171 59.9245 2.67043 60.1439 3.14599C60.3269 3.62155 60.7292 4.02394 61.2414 4.20685C61.4975 4.31659 61.7901 4.35317 62.0462 4.24343C62.1925 4.17026 62.3022 4.06052 62.3388 3.9142C62.3754 3.76787 62.3022 3.62155 62.2291 3.5118C62.0462 3.25573 61.7535 3.21915 61.534 3.18257C61.278 3.18257 61.0585 3.21915 60.839 3.25573C59.961 3.5118 59.3757 4.28001 59.266 4.97505C59.1562 5.6701 59.3757 6.21882 59.5586 6.54805C59.6684 6.69437 59.7416 6.80412 59.8147 6.87728C59.8513 6.91386 59.8879 6.95044 59.8879 6.95044Z" fill="#263238"/>
<path d="M71.4841 10.0233C71.0451 9.18191 69.8379 9.07216 68.9965 9.43797C69.0697 8.77951 68.7405 8.12105 68.1917 7.79182C67.643 7.46258 66.8748 7.46258 66.3627 7.8284C66.1432 7.97472 65.9603 8.15763 65.7042 8.15763C65.4481 8.15763 65.2652 7.90156 65.0823 7.71865C64.3873 7.06019 63.1801 7.13335 62.5948 7.86498C62.0095 8.59661 62.1558 9.80379 62.8875 10.3525L62.9972 9.87695C64.4239 11.267 66.3261 12.145 68.2649 12.4376C69.1063 12.5474 69.9842 12.5474 70.7158 12.145C71.4475 11.7426 71.8865 10.7915 71.4841 10.0233Z" fill="#FF8A00"/>
<path d="M73.6059 17.3761C74.3375 16.3153 74.2644 14.7788 73.4596 13.7911C73.1669 13.3888 72.7279 13.0961 72.289 12.9132C72.2158 12.1084 71.9597 11.3402 71.4476 10.7549C70.6794 9.87695 69.2161 9.62088 68.3748 10.3891C67.7529 8.999 65.8141 8.41369 64.5337 9.21848C63.4363 7.90156 61.0951 8.0113 60.0708 9.36481C59.4124 8.92583 58.4612 8.88925 57.8028 9.32823C57.1077 9.7672 56.7419 10.6086 56.8517 11.4134C56.0834 11.267 55.2421 11.5963 54.7299 12.2182C54.2178 12.84 54.0715 13.718 54.3641 14.4496C53.7057 14.4862 53.0838 14.9617 52.8643 15.5836C52.6448 16.2055 52.8643 16.9737 53.3764 17.3761C52.4985 18.3638 52.7545 20.1197 53.8886 20.8148C53.6691 21.7659 54.291 22.8267 55.2055 23.0828L69.0332 27.1799C71.3744 26.997 71.9963 25.4972 72.0695 24.1071C72.6182 23.9242 73.0938 23.4852 73.3132 22.9365C73.5693 22.3512 73.5327 21.6561 73.2401 21.1074C73.862 20.7416 74.3009 20.0466 74.3741 19.3149C74.4107 18.6199 74.1546 17.8883 73.6059 17.3761Z" fill="#263238"/>
<path d="M68.2282 14.2667L59.7414 12.4011C57.0344 12.1816 55.3516 15.5836 55.2419 18.2907C55.1321 21.2903 55.1321 24.985 55.5711 27.2165C56.4125 31.716 59.8877 32.1916 59.8877 32.1916C59.8877 32.1916 59.8877 32.2647 59.9609 33.5816L60.034 35.7399C60.0706 36.6179 60.3633 37.4958 60.9486 38.1543C62.3021 39.6541 64.5335 39.7273 67.0942 38.5567C68.5941 37.8982 68.4843 37.0569 68.6672 34.9717L69.8744 15.3276C69.6549 14.9983 69.033 14.3033 68.2282 14.2667Z" fill="#C17560"/>
<path d="M56.9978 22.3146C56.9978 22.6072 57.2539 22.8633 57.5831 22.8999C57.9123 22.8999 58.1684 22.6804 58.1684 22.3512C58.1684 22.0585 57.9123 21.8025 57.5831 21.7659C57.2539 21.7659 56.9978 22.0219 56.9978 22.3146Z" fill="#263238"/>
<path d="M56.3028 20.5587C56.3759 20.6318 56.8149 20.3026 57.4368 20.266C58.0587 20.2294 58.5342 20.5587 58.6074 20.4855C58.644 20.4489 58.5708 20.3026 58.3513 20.1929C58.1684 20.0465 57.8026 19.9368 57.4368 19.9368C57.0344 19.9368 56.7418 20.1197 56.5589 20.266C56.3028 20.4124 56.2662 20.5221 56.3028 20.5587Z" fill="#263238"/>
<path d="M62.4119 22.1317C62.4119 22.4243 62.6679 22.6804 62.9972 22.717C63.3264 22.717 63.5825 22.4975 63.5825 22.1683C63.5825 21.8756 63.3264 21.6196 62.9972 21.583C62.6679 21.583 62.4119 21.839 62.4119 22.1317Z" fill="#263238"/>
<path d="M62.1924 20.5587C62.2656 20.6318 62.7046 20.3026 63.3265 20.266C63.9483 20.2294 64.4239 20.5587 64.4971 20.4855C64.5336 20.4489 64.4605 20.3026 64.241 20.1929C64.0581 20.0465 63.6923 19.9368 63.3265 19.9368C62.9241 19.9368 62.6314 20.1197 62.4485 20.266C62.1924 20.4124 62.1559 20.5221 62.1924 20.5587Z" fill="#263238"/>
<path d="M60.4364 24.729C60.4364 24.6924 60.034 24.6558 59.4121 24.5826C59.2657 24.5826 59.0828 24.546 59.0828 24.4363C59.0463 24.3266 59.1194 24.1437 59.1926 23.9607C59.3389 23.5584 59.4852 23.156 59.6316 22.7536C60.2169 20.9977 60.6558 19.571 60.5827 19.571C60.5095 19.5344 59.9608 20.9245 59.3755 22.6804C59.2292 23.1194 59.0828 23.5218 58.9731 23.9242C58.8999 24.1071 58.8268 24.3266 58.8999 24.546C58.9365 24.6558 59.0828 24.729 59.156 24.7655C59.2658 24.8021 59.3389 24.8021 59.4121 24.8021C60.034 24.7655 60.4364 24.7655 60.4364 24.729Z" fill="#263238"/>
<path d="M59.8511 32.155C59.8511 32.155 62.8873 32.2647 65.8504 30.3625C65.8504 30.3625 64.4603 33.5816 59.9242 33.289L59.8511 32.155Z" fill="#6F4439"/>
<path d="M62.5216 25.9727C62.3387 25.7166 62.0461 25.5703 61.7534 25.5703C61.3144 25.5703 60.9486 25.7166 60.6925 26.119C60.5828 26.2288 60.6194 26.558 60.656 26.6312C60.6925 26.7043 60.656 26.6678 60.7291 26.7409C60.9852 26.9604 61.2413 27.1799 61.5705 27.2531C61.8997 27.3262 62.3021 27.2165 62.485 26.8872C62.7045 26.6312 62.7045 26.2288 62.5216 25.9727Z" fill="#6F4439"/>
<path d="M62.3753 25.1313C62.2656 25.1313 62.3022 25.7898 61.7169 26.302C61.1681 26.8141 60.4365 26.7409 60.4365 26.8507C60.4365 26.8873 60.5828 26.9604 60.9121 26.997C61.2047 26.997 61.6437 26.8873 61.9729 26.5946C62.3022 26.3019 62.4485 25.8996 62.4851 25.6069C62.5217 25.3143 62.4119 25.1313 62.3753 25.1313Z" fill="#263238"/>
<path d="M62.0826 17.8517C62.1558 18.0346 62.7777 17.9614 63.5093 18.0712C64.2409 18.1809 64.8262 18.4004 64.936 18.2541C64.9726 18.1809 64.8994 18.0346 64.6433 17.8517C64.4238 17.6688 64.0214 17.5224 63.619 17.4493C63.1801 17.3761 62.7777 17.4493 62.5216 17.559C62.1924 17.6322 62.0461 17.7785 62.0826 17.8517Z" fill="#263238"/>
<path d="M56.4124 18.3638C56.5588 18.5101 56.9977 18.3272 57.583 18.2906C58.1683 18.2175 58.6439 18.3272 58.7536 18.1809C58.7902 18.1077 58.7171 17.9614 58.4976 17.8517C58.2781 17.7419 57.9123 17.6322 57.5465 17.6688C57.1441 17.7053 56.8148 17.8517 56.6319 17.998C56.4124 18.1443 56.3393 18.2906 56.4124 18.3638Z" fill="#263238"/>
<path d="M68.6672 22.3146C68.6672 22.022 68.8501 21.7659 69.1428 21.6927C69.8744 21.5464 71.1548 21.5464 71.3011 23.3755C71.484 25.8996 68.8867 25.5703 68.8867 25.4972C68.8501 25.424 68.7038 23.2657 68.6672 22.3146Z" fill="#C17560"/>
<path d="M69.5454 24.4729C69.5454 24.4729 69.582 24.5095 69.6551 24.5461C69.7283 24.5826 69.8746 24.5826 69.9844 24.5461C70.2404 24.4363 70.4233 23.9973 70.4233 23.5218C70.4233 23.3023 70.3502 23.0828 70.2404 22.8999C70.1673 22.717 70.021 22.6073 69.8746 22.5707C69.7283 22.5341 69.6551 22.6438 69.6186 22.717C69.582 22.7902 69.6186 22.8267 69.582 22.8267C69.582 22.8267 69.5088 22.7902 69.5454 22.6804C69.5454 22.6438 69.582 22.5707 69.6186 22.4975C69.6917 22.4609 69.7649 22.4243 69.8746 22.4243C70.0575 22.4243 70.277 22.6073 70.3502 22.7902C70.4599 22.9731 70.5331 23.2291 70.5697 23.4852C70.6063 23.9973 70.3502 24.5095 69.9844 24.6192C69.8015 24.6924 69.6551 24.6192 69.582 24.5826C69.582 24.5461 69.5454 24.4729 69.5454 24.4729Z" fill="#6F4439"/>
<path d="M54.3274 19.7539C54.803 19.7539 55.2785 19.5344 55.5712 19.1686C55.8638 18.8028 56.0102 18.2907 55.9004 17.8517C56.4126 17.8517 56.9247 17.6322 57.2174 17.2298C57.5466 16.8274 57.6563 16.2787 57.51 15.7665C58.0587 16.0226 58.7172 16.0226 59.3025 15.7665C59.8512 15.5105 60.2902 14.9618 60.3999 14.3765C60.3999 14.5959 60.5463 14.7789 60.7292 14.852C60.9121 14.9618 61.1316 14.9618 61.3145 14.9618C61.9729 14.9252 62.6314 14.4862 62.8875 13.8643C63.2899 14.5594 64.241 14.852 64.9726 14.5228C65.2287 14.413 65.4847 14.157 65.4482 13.8643C65.4482 13.7546 65.375 13.6814 65.3018 13.5717C64.5336 12.4011 63.1435 11.7792 61.7534 11.6329C60.3633 11.5231 58.9733 11.8523 57.6563 12.2913C56.8881 12.5474 56.0833 12.8766 55.498 13.4619C54.8762 14.0838 54.5469 14.9618 54.2543 15.7665C54.0348 16.3884 53.8153 16.9737 53.7055 17.6322C53.5958 18.2541 53.6324 18.9491 53.8885 19.5344C53.9616 19.5344 53.9982 19.5344 54.0714 19.5344" fill="#263238"/>
<path d="M65.0092 13.8643C65.0092 14.9618 65.8872 15.986 66.9846 16.1324C66.4359 16.3518 66.1067 17.0103 66.253 17.559C66.3993 18.1077 67.0578 18.5101 67.6065 18.4004C67.4602 18.7662 67.3139 19.1686 67.3139 19.5344C67.3139 19.9368 67.5334 20.3392 67.9358 20.4855C67.7528 20.7416 67.5334 21.0708 67.6431 21.4732C67.7163 21.7659 67.9723 22.2049 68.5576 22.2049C68.9234 22.2049 69.2161 21.7293 69.6185 21.6927C70.1672 21.583 70.7525 21.7659 71.1549 22.1683L71.6305 17.4493L71.0452 13.6448L68.8137 12.0352L64.5337 12.8035L65.0092 13.8643Z" fill="#263238"/>
<path d="M72.106 13.9741C72.106 13.9375 71.9231 14.0106 71.6671 13.9375C71.411 13.8643 71.0086 13.6448 70.8257 13.2059L70.716 12.9132L70.6794 13.2059C70.6428 13.5351 70.4599 13.9009 70.1307 14.1204C69.838 14.3765 69.3625 14.4862 68.9235 14.3765C68.6308 14.3033 68.4113 14.157 68.2284 13.9375L68.1553 13.8277L68.0821 13.9375C67.826 14.3033 67.4602 14.5959 67.0944 14.7057C66.7286 14.852 66.3628 14.852 66.1067 14.7789C65.5214 14.6691 65.2653 14.413 65.2288 14.4496C65.2288 14.4496 65.2653 14.5228 65.4117 14.6325C65.558 14.7423 65.7775 14.852 66.0701 14.9252C66.3628 14.9983 66.7652 14.9983 67.131 14.852C67.5334 14.7057 67.9358 14.4496 68.1918 14.0106H68.0455C68.2284 14.2301 68.5211 14.413 68.8503 14.4862C69.3259 14.6325 69.8746 14.4862 70.2038 14.1936C70.5696 13.9009 70.7525 13.4985 70.7891 13.1327H70.6428C70.8623 13.6448 71.3378 13.8643 71.6305 13.9009C71.9597 14.0838 72.106 13.9741 72.106 13.9741Z" fill="#455A64"/>
<path d="M65.4483 9.03558C65.4483 9.07216 65.8507 9.1819 66.3994 9.54771C66.6555 9.73062 66.9481 10.0233 67.0945 10.4257C67.2408 10.8281 67.2042 11.3402 66.9115 11.6694C66.8018 11.7792 66.6921 11.8889 66.5457 11.9255L66.436 11.9621L66.5092 12.0718C66.7286 12.4376 66.6921 12.8766 66.5457 13.2058C66.3994 13.5351 66.1433 13.7911 65.9239 13.9375C65.4849 14.2667 65.1556 14.4496 65.1922 14.4862C65.1922 14.4862 65.2654 14.4496 65.4117 14.3764C65.558 14.3033 65.7775 14.1935 65.997 14.0106C66.2165 13.8277 66.5092 13.6082 66.6921 13.2424C66.875 12.8766 66.9481 12.3645 66.6921 11.9621L66.6555 12.1084C66.8384 12.0352 66.9847 11.9255 67.0945 11.8158C67.4603 11.4134 67.4968 10.7915 67.3139 10.3525C67.131 9.91353 66.8018 9.62088 66.5457 9.43797C66.2531 9.25506 65.997 9.14532 65.8141 9.10874C65.558 9.03558 65.4483 8.99899 65.4483 9.03558Z" fill="#455A64"/>
<path d="M51.6936 24.1802C51.6936 24.1802 51.7302 24.2168 51.7668 24.2168C51.8399 24.2534 51.9131 24.2534 52.0594 24.29C52.3155 24.3266 52.7179 24.29 53.0837 23.9973C53.4495 23.7413 53.7056 23.1194 53.5593 22.5341C53.4861 22.2414 53.3032 21.9488 53.0105 21.7293C52.8642 21.6195 52.7179 21.5464 52.4984 21.5464C52.3155 21.5464 52.096 21.6195 51.9863 21.8025C51.8765 21.9854 51.8765 22.2048 51.9497 22.3878C52.0228 22.5707 52.1692 22.6804 52.3155 22.7901C52.6081 22.9731 52.974 22.9731 53.2666 22.8999C53.5593 22.8267 53.8153 22.6804 54.0348 22.4975C54.2177 22.3146 54.364 22.0951 54.4372 21.8756C54.5835 21.4366 54.5835 21.0708 54.5469 20.8148C54.5104 20.5587 54.4372 20.4489 54.4372 20.4489C54.4372 20.4489 54.4738 20.5953 54.4738 20.8148C54.4738 21.0708 54.4738 21.4001 54.3275 21.8025C54.2543 21.9854 54.108 22.2048 53.9251 22.3512C53.7422 22.4975 53.5227 22.6438 53.23 22.6804C52.9739 22.717 52.6447 22.717 52.4252 22.5707C52.1692 22.4243 51.9863 22.0951 52.1692 21.8756C52.2423 21.7659 52.3886 21.6927 52.535 21.6927C52.6813 21.6927 52.8276 21.7659 52.9374 21.839C53.1934 22.0219 53.3398 22.278 53.4129 22.5341C53.5592 23.0828 53.3763 23.5949 53.0471 23.851C52.7179 24.1071 52.3521 24.1802 52.1326 24.1802C51.8399 24.2168 51.6936 24.1437 51.6936 24.1802Z" fill="#263238"/>
<path d="M71.667 20.9611C71.667 20.9611 71.7767 21.0343 71.9962 21.144C72.2157 21.2172 72.5815 21.3269 72.9839 21.3269C73.4229 21.3269 73.935 21.2538 74.4838 21.0343C74.7398 20.9245 75.0325 20.705 75.1422 20.3758C75.1788 20.2295 75.2154 20.0466 75.1422 19.8637C75.0691 19.6808 74.9227 19.571 74.7398 19.4978C74.6301 19.4613 74.5203 19.4613 74.4106 19.4978L74.4838 19.6808C75.1056 19.3881 75.3617 18.7296 75.3251 18.1809C75.2885 17.8883 75.1788 17.6322 75.0325 17.4493C74.8861 17.2664 74.6667 17.1201 74.4838 17.0469C74.1179 16.864 73.7521 16.9006 73.5326 16.9372C73.3131 17.0103 73.2034 17.0835 73.2034 17.0835C73.2034 17.0835 73.3131 17.0469 73.5326 17.0103C73.7521 16.9737 74.0814 16.9737 74.4106 17.1566C74.7398 17.303 75.1056 17.6688 75.1422 18.1809C75.1788 18.6565 74.9227 19.2784 74.4106 19.4978L74.4838 19.6808C74.5569 19.6442 74.6301 19.6808 74.7032 19.6808C74.813 19.7173 74.9227 19.8271 74.9959 19.9368C75.0325 20.0466 75.0325 20.1929 74.9959 20.3392C74.9227 20.5953 74.7032 20.7782 74.4472 20.8879C73.9716 21.1074 73.4595 21.1806 73.0205 21.1806C72.1425 21.2172 71.667 20.9245 71.667 20.9611Z" fill="#263238"/>
<path d="M54.2176 54.9451C54.1079 55.128 50.0107 60.6152 50.0107 60.6152L45.0723 56.0426L48.2183 48.0678L50.1205 44.8121L54.2176 54.9451Z" fill="#C17560"/>
<g opacity="0.3">
<path d="M70.2769 104.184L72.362 104.147L73.0937 86.2222L77.5566 84.3199L69.4355 79.3083L47.7428 94.6359L43.3896 104.184H70.2769Z" fill="black"/>
</g>
<path d="M56.0102 98.0013L52.1691 105.244L46.499 102.062L48.9866 94.1603L56.0102 98.0013Z" fill="#C17560"/>
<path d="M52.8275 104.293C52.8275 104.293 46.9745 104.476 46.8648 100.708L46.5355 101.477L37.7926 107.183C36.4025 108.171 36.5122 109.305 36.8781 109.89C37.1707 110.329 37.6463 110.585 38.1584 110.512C40.8654 110.183 50.8521 108.829 51.3643 108.025L51.8764 107.33C52.7178 106.342 52.9738 105.135 52.7178 104.696L52.8275 104.293Z" fill="#263238"/>
<g opacity="0.6">
<path d="M37.0244 110.073L51.8764 107.33L51.5472 107.769C51.2545 108.281 50.8887 108.317 50.4498 108.464C49.0962 108.866 45.7308 109.524 38.195 110.549C37.756 110.585 37.3171 110.402 37.0244 110.073Z" fill="white"/>
</g>
<g opacity="0.6">
<path d="M50.852 105.427C50.4496 105.427 50.0838 105.757 50.0472 106.122C50.0106 106.525 50.3399 106.891 50.7423 106.927C51.1447 106.964 51.5836 106.561 51.5836 106.159C51.5836 105.757 51.1447 105.318 50.7788 105.391" fill="white"/>
</g>
<path d="M43.9748 106.598C43.9016 106.598 44.0479 105.866 43.6455 105.098C43.2797 104.33 42.5847 104.074 42.6213 103.964C42.6213 103.928 42.8407 103.964 43.0968 104.11C43.3529 104.257 43.6821 104.549 43.9016 104.952C44.1211 105.354 44.1577 105.793 44.1211 106.122C44.1211 106.452 44.0114 106.598 43.9748 106.598Z" fill="white"/>
<path d="M42.3287 107.22C42.2556 107.22 42.1458 106.635 41.7434 106.086C41.341 105.537 40.7923 105.281 40.8289 105.208C40.8289 105.135 41.4873 105.281 41.9629 105.903C42.4385 106.561 42.4019 107.22 42.3287 107.22Z" fill="white"/>
<path d="M45.8404 105.903C45.7672 105.903 45.6575 105.135 45.1454 104.33C44.6332 103.525 44.0113 103.086 44.0479 103.013C44.0845 102.94 44.8161 103.342 45.3649 104.184C45.9136 105.062 45.9136 105.939 45.8404 105.903Z" fill="white"/>
<path d="M45.6576 103.598C45.6576 103.598 45.7674 103.452 45.9868 103.269C46.2429 103.086 46.6453 102.83 47.194 102.684C47.4501 102.611 47.7793 102.501 48.1451 102.647C48.328 102.72 48.4744 102.94 48.4744 103.159C48.4744 103.379 48.3281 103.562 48.1817 103.708C47.5598 104.257 46.499 104.293 45.8039 103.708C45.1089 103.086 44.926 102.135 45.1821 101.367C45.2552 101.184 45.4015 101.001 45.621 100.928C45.8405 100.855 46.0966 100.964 46.2063 101.147C46.4258 101.477 46.4258 101.806 46.4624 102.062C46.499 102.647 46.4258 103.086 46.3161 103.379C46.2429 103.671 46.1332 103.818 46.1332 103.818C46.06 103.818 46.3892 103.159 46.2429 102.062C46.2063 101.806 46.1697 101.477 45.9868 101.257C45.9137 101.147 45.8039 101.111 45.6576 101.147C45.5479 101.184 45.4381 101.33 45.4015 101.477C45.1821 102.098 45.365 102.976 45.9868 103.489C46.5721 104.001 47.5233 103.964 47.9988 103.525C48.1086 103.415 48.2183 103.269 48.2183 103.159C48.2183 103.05 48.1451 102.94 48.0354 102.867C47.7793 102.757 47.4867 102.83 47.2306 102.867C46.1698 103.123 45.6942 103.671 45.6576 103.598Z" fill="white"/>
<path d="M68.3381 107.549C68.3015 107.549 68.265 116.475 68.265 116.475C68.265 116.475 62.0827 117.463 62.0827 117.28C62.0827 117.133 60.2537 108.573 60.2537 108.573L68.3381 107.549Z" fill="#C17560"/>
<path d="M61.5705 114.829C61.5705 114.829 66.07 118.231 68.2649 115.158L68.3381 115.963L72.3986 125.584C72.9839 127.193 72.2889 128.071 71.667 128.327C71.1914 128.547 70.6427 128.437 70.2403 128.108C68.1918 126.315 60.6194 119.657 60.656 118.706L60.6194 117.828C60.4731 116.548 60.9121 115.377 61.3876 115.195L61.5705 114.829Z" fill="#263238"/>
<g opacity="0.6">
<path d="M71.4109 128.4L60.6194 117.828L60.656 118.377C60.6194 118.962 60.912 119.182 61.2047 119.548C62.0826 120.645 64.497 123.06 70.2037 128.108C70.5329 128.437 71.0085 128.547 71.4109 128.4Z" fill="white"/>
</g>
<g opacity="0.6">
<path d="M62.5583 116.877C62.8875 117.097 63.0338 117.572 62.8143 117.902C62.6314 118.231 62.1193 118.377 61.7901 118.194C61.4608 117.975 61.2779 117.426 61.4974 117.097C61.7169 116.768 62.3022 116.658 62.5949 116.914" fill="white"/>
</g>
<path d="M67.6065 121.669C67.6797 121.706 67.9357 121.011 68.7039 120.609C69.4356 120.17 70.1672 120.353 70.1672 120.243C70.1672 120.206 70.0209 120.133 69.6916 120.096C69.399 120.06 68.96 120.133 68.5576 120.353C68.1552 120.572 67.8626 120.901 67.7162 121.194C67.5699 121.45 67.5699 121.669 67.6065 121.669Z" fill="white"/>
<path d="M68.6308 123.096C68.7039 123.133 69.1063 122.694 69.7648 122.474C70.4233 122.255 71.0086 122.328 71.0086 122.255C71.0451 122.182 70.4233 121.926 69.655 122.218C68.9234 122.474 68.5576 123.06 68.6308 123.096Z" fill="white"/>
<path d="M66.4358 120.06C66.509 120.096 67.0211 119.511 67.8625 119.145C68.7039 118.743 69.5086 118.743 69.5086 118.67C69.5086 118.597 68.6673 118.487 67.7527 118.926C66.8382 119.328 66.3627 120.023 66.4358 120.06Z" fill="white"/>
<path d="M67.8991 118.231C67.8991 118.231 67.8991 118.048 67.7894 117.755C67.6796 117.463 67.4967 117.024 67.1309 116.585C66.948 116.365 66.7285 116.109 66.3261 116.036C66.1432 115.999 65.8872 116.073 65.7774 116.292C65.6677 116.475 65.6677 116.694 65.7043 116.914C65.8872 117.719 66.7651 118.341 67.6796 118.231C68.5942 118.121 69.2892 117.426 69.5087 116.658C69.5453 116.475 69.5453 116.219 69.399 116.036C69.2526 115.853 68.96 115.816 68.8137 115.89C68.4479 116.036 68.2649 116.292 68.082 116.511C67.7162 116.95 67.5333 117.389 67.4602 117.682C67.3504 117.975 67.3504 118.158 67.3504 118.158C67.387 118.194 67.5333 117.463 68.2284 116.621C68.4113 116.438 68.6308 116.182 68.8868 116.109C69.0331 116.073 69.1429 116.109 69.2161 116.182C69.2892 116.255 69.2892 116.438 69.2526 116.585C69.0697 117.207 68.4479 117.865 67.6431 117.938C66.8749 118.011 66.1066 117.499 65.9237 116.841C65.8872 116.694 65.8872 116.511 65.9603 116.402C66.0335 116.292 66.1432 116.255 66.253 116.255C66.509 116.292 66.7651 116.511 66.948 116.731C67.7162 117.536 67.826 118.267 67.8991 118.231Z" fill="white"/>
<path d="M76.4225 36.8374L68.7038 33.8743C68.7038 33.8743 66.765 37.2398 63.3264 36.9471C59.8146 36.6545 59.9243 34.0938 59.9243 34.0938L50.2302 36.8374C50.2302 36.8374 49.6084 49.9701 50.2302 52.0186C50.8521 54.0672 52.6812 56.7376 52.6812 56.7376C52.6812 56.7376 50.779 61.2005 50.7058 62.4443C50.6692 63.6881 51.1814 63.3588 51.1814 63.3588L74.5934 63.6515L76.4225 36.8374Z" fill="#FF8A00"/>
<g opacity="0.3">
<path d="M55.8271 50.2993C56.1198 50.0432 56.5953 50.2261 56.9611 50.409C58.9731 51.5065 60.9851 52.6039 62.9239 53.8477C65.3382 55.4573 67.5697 57.2863 69.9475 58.9691C71.3376 59.9568 72.7643 60.8713 74.2641 61.7127L74.7762 62.5906C74.2275 63.4686 73.1301 63.8344 72.1424 63.7612C71.1181 63.6881 70.2036 63.2125 69.3256 62.6638C65.3382 60.1397 62.5581 56.0791 58.5707 53.555C57.583 52.9332 56.4856 52.3844 55.9003 51.3602C55.6442 51.0309 55.5345 50.5554 55.8271 50.2993Z" fill="black"/>
</g>
<path d="M54.9492 56.5181C54.9492 56.5547 55.315 56.5547 55.9003 56.5547C56.4856 56.5547 57.327 56.5913 58.205 56.6645C59.1195 56.7376 59.9243 56.8108 60.5096 56.8839C61.0949 56.9571 61.4607 56.9937 61.4607 56.9937C61.4607 56.9571 61.0949 56.8839 60.5096 56.7742C59.9243 56.6645 59.1195 56.5547 58.205 56.4815C57.2904 56.4084 56.4491 56.4084 55.8638 56.4084C55.315 56.445 54.9492 56.4815 54.9492 56.5181Z" fill="#263238"/>
<path d="M79.9344 52.7502C79.9344 52.7502 77.7761 58.8593 76.825 60.3957C75.8739 61.9321 75.4715 63.9441 72.3987 63.1393C69.3258 62.3345 67.7528 60.3226 64.4239 57.579C61.0584 54.8354 58.9001 52.7502 58.9001 52.7502L61.2779 49.8969L71.0817 54.3598L73.4229 49.2384L79.9344 52.7502Z" fill="#C17560"/>
<path d="M50.3401 43.5683L57.071 47.1167L62.5582 50.6285C62.5582 50.6285 59.8146 53.0429 59.0464 53.0063C58.2782 52.9331 57.2174 51.8723 57.2174 51.8723C57.2174 51.8723 57.1076 52.2015 56.7784 52.3113C56.4492 52.421 56.0468 52.0186 56.0468 52.0186C56.0468 52.0186 55.6444 52.1649 55.3151 52.1649C54.9859 52.1649 54.5835 50.8846 54.4006 50.0432C54.2177 49.2019 54.5469 48.7995 54.5469 48.7995L54.2909 48.6531L53.9251 49.3116L54.5103 51.3601C54.803 52.4942 53.7421 52.3478 53.7421 52.3478C53.7421 52.3478 52.535 50.2627 52.4252 49.0921C52.3155 47.9215 53.4861 47.1533 53.4861 47.1533C53.4861 47.1533 50.9985 44.995 50.3767 44.5926C49.7182 44.1536 50.3401 43.5683 50.3401 43.5683Z" fill="#C17560"/>
<path d="M71.8499 58.8227C71.8865 58.8227 71.9962 58.5667 72.0694 58.1643C72.1425 57.7253 72.1791 57.1034 72.0328 56.445C71.8865 55.7865 71.6304 55.2378 71.3743 54.872C71.1183 54.5061 70.8988 54.3232 70.8988 54.3598C70.8622 54.3964 71.5938 55.2012 71.8499 56.5181C72.1426 57.7619 71.7767 58.8227 71.8499 58.8227Z" fill="#6F4439"/>
<path d="M76.0202 36.691C76.0202 36.691 80.3368 37.9714 81.1782 42.5441C81.6903 45.2511 80.4831 54.1037 80.4831 54.1037L72.1426 50.9943L76.0202 36.691Z" fill="#FF8A00"/>
<path d="M74.63 42.7635C74.5934 42.7635 74.4836 43.2391 74.3007 44.0073C74.1178 44.8121 73.8618 45.8364 73.5691 47.007C73.2765 48.1776 73.0204 49.2384 72.8009 49.9701C72.5814 50.7383 72.4351 51.1773 72.4717 51.2138C72.4717 51.2138 72.5448 51.1041 72.618 50.9212C72.6912 50.7017 72.8009 50.409 72.9472 50.0432C73.2033 49.3116 73.4959 48.2507 73.752 47.0801C74.0447 45.9095 74.2642 44.8487 74.4105 44.0805C74.5568 43.3123 74.6665 42.7635 74.63 42.7635Z" fill="#263238"/>
<path d="M74.374 63.6149C74.374 63.6149 79.8978 70.0898 79.7515 75.3209C79.6052 80.5521 77.3006 84.3199 77.3006 84.3199L69.9843 84.7589C69.9843 84.7589 69.3258 81.2837 66.7286 81.2837C66.1433 81.2837 56.6321 99.5744 56.6321 99.5744L47.2307 95.2577C47.2307 95.2577 53.3764 79.0888 54.8762 75.2844C56.376 71.4799 57.8027 69.6508 59.8147 69.1021L62.0461 63.432L74.374 63.6149Z" fill="#263238"/>
<path d="M72.8376 69.8703C72.8376 69.9069 73.1669 69.7972 73.7522 69.7606C74.3009 69.724 75.0691 69.7606 75.8739 70.0166C76.6787 70.2727 77.3006 70.7483 77.703 71.1141C78.1054 71.5165 78.2883 71.8091 78.3248 71.7725C78.3248 71.7725 78.2883 71.6994 78.2151 71.5531C78.1419 71.4067 77.9956 71.2238 77.8127 71.0043C77.4469 70.5654 76.7884 70.0898 75.9471 69.7972C75.1057 69.5045 74.3009 69.5045 73.7522 69.5777C73.1303 69.724 72.8376 69.8703 72.8376 69.8703Z" fill="#455A64"/>
<path d="M63.8751 68.5168C63.9117 68.5168 63.9849 67.3828 63.9849 65.9927C63.9849 64.6026 63.9483 63.4686 63.8751 63.4686C63.8385 63.4686 63.7654 64.6026 63.7654 65.9927C63.7654 67.3828 63.8385 68.5168 63.8751 68.5168Z" fill="#455A64"/>
<path d="M70.3135 63.4686C70.3135 63.4686 70.3501 63.5783 70.4232 63.7612C70.4964 63.9442 70.6427 64.2002 70.8256 64.4929C71.228 65.0782 71.8865 65.8464 72.8742 66.3585C73.8619 66.8707 74.8496 67.017 75.5446 66.9804C75.9104 66.9804 76.2031 66.9438 76.386 66.9072C76.5689 66.8707 76.6786 66.8341 76.6786 66.8341C76.6786 66.7975 76.2396 66.9072 75.5446 66.8707C74.8496 66.8707 73.8984 66.6878 72.9473 66.2122C71.9962 65.7366 71.3378 65.005 70.9354 64.4563C70.533 63.871 70.3501 63.4686 70.3135 63.4686Z" fill="#455A64"/>
<path d="M50.9986 63.3223C50.9986 63.3223 47.999 66.3219 47.2307 70.858C46.4625 75.3941 46.426 81.3203 47.7063 83.4786L51.401 84.3199L54.6568 87.6123L59.266 112.67L69.7283 111.244C69.7283 111.244 70.7159 89.4413 70.3867 87.3928C70.0575 85.3076 69.9843 84.7589 69.9843 84.7589C69.9843 84.7589 70.2038 81.3568 67.7529 78.8693C65.3019 76.4184 61.7535 73.8211 61.7535 73.8211L62.0828 63.4686L50.9986 63.3223Z" fill="#263238"/>
<path d="M48.7305 66.9072C48.7305 66.9072 48.8402 66.9804 49.0597 67.0536C49.2792 67.1267 49.6084 67.2365 50.0474 67.273C50.8888 67.3828 52.1325 67.3462 53.3031 66.7609C53.5958 66.6146 53.8519 66.4317 54.1079 66.2122C54.3274 66.0293 54.5469 65.8098 54.7664 65.6269C55.1688 65.2245 55.498 64.8587 55.7907 64.5294C56.0467 64.2002 56.2662 63.9441 56.4125 63.7612C56.5589 63.5783 56.632 63.4686 56.632 63.4686C56.5954 63.432 56.2662 63.8344 55.7175 64.4563C55.4248 64.7855 55.0956 65.1513 54.6932 65.5171C54.2908 65.8829 53.8153 66.3219 53.2665 66.6146C52.1325 67.1999 50.9253 67.273 50.1206 67.1633C49.2426 67.0536 48.7305 66.8706 48.7305 66.9072Z" fill="#455A64"/>
<path d="M69.9844 84.7589C69.9844 84.7589 69.9844 84.6492 69.9113 84.3931C69.8747 84.2834 69.8747 84.137 69.8015 83.9541C69.7649 83.7712 69.6918 83.5883 69.582 83.3688C69.3991 82.9298 69.0699 82.4543 68.5577 82.0153C68.0456 81.5763 67.2774 81.2471 66.3994 81.1374H66.3629V81.1739C64.2046 85.1979 60.6928 91.6728 56.5225 99.4646L56.6322 99.428C53.7423 98.1111 50.5597 96.6478 47.2674 95.148L47.304 95.2577C47.7796 94.0506 48.2917 92.7336 48.8038 91.4533C50.5597 86.9172 52.2791 82.6006 53.8521 78.5767C54.6203 76.5647 55.3885 74.6625 56.0835 72.8334C56.4127 71.9189 56.9615 71.1141 57.6199 70.4922C58.2784 69.8703 59.0832 69.4313 59.888 69.2484C62.1194 68.6266 64.2046 68.4437 66.0702 68.5168C67.8993 68.59 69.4723 68.9192 70.7526 69.285C71.9964 69.6508 72.9475 70.0532 73.5694 70.3459C73.8986 70.4922 74.1181 70.6019 74.2644 70.7117C74.4108 70.7849 74.5205 70.8214 74.5205 70.8214C74.5205 70.8214 74.4473 70.7849 74.301 70.6751C74.1547 70.6019 73.8986 70.4556 73.606 70.3093C72.9841 70.0166 72.033 69.5777 70.7892 69.2119C69.5454 68.846 67.9724 68.4802 66.1068 68.4071C64.2412 68.2973 62.1194 68.4802 59.888 69.1021C59.0466 69.3216 58.2052 69.7606 57.5468 70.3825C56.8517 71.0043 56.303 71.8457 55.9738 72.7602C55.2421 74.5893 54.5105 76.4915 53.7057 78.5035C52.1327 82.5275 50.4134 86.8441 48.6575 91.3801C48.1454 92.6971 47.6332 93.9774 47.1577 95.1846L47.1211 95.2577L47.1943 95.2943C50.4866 96.7942 53.6326 98.2208 56.5591 99.5744L56.6322 99.6109L56.6688 99.5378C60.8391 91.7094 64.3143 85.2345 66.436 81.2105L66.3994 81.2471C67.2408 81.3203 67.9724 81.6861 68.5212 82.0885C69.0333 82.4909 69.3625 83.003 69.5454 83.4054C69.6552 83.6249 69.7283 83.8078 69.7649 83.9541C69.8381 84.1005 69.8381 84.2468 69.8747 84.3931C69.9478 84.6492 69.9844 84.7589 69.9844 84.7589Z" fill="#455A64"/>
<path d="M48.7305 71.2238C48.7671 71.2604 49.1694 70.9677 49.8645 70.6751C50.2303 70.5288 50.6693 70.3824 51.1814 70.2727C51.6936 70.163 52.2423 70.0898 52.8642 70.0898C53.4495 70.0898 54.0348 70.163 54.5469 70.2727C55.059 70.3824 55.498 70.5288 55.8638 70.6751C56.5955 70.9677 56.9978 71.2604 56.9978 71.2238C56.9978 71.2238 56.9247 71.1507 56.7418 71.0043C56.6686 70.9312 56.5223 70.858 56.4125 70.7848C56.2662 70.7117 56.1199 70.6019 55.937 70.5288C55.5712 70.3459 55.1322 70.1995 54.6201 70.0898C54.1079 69.9801 53.5226 69.9069 52.9007 69.9069C52.2789 69.9069 51.6936 69.9801 51.1814 70.1264C50.6693 70.2727 50.2303 70.419 49.8645 70.6019C49.6816 70.6751 49.5353 70.7848 49.3889 70.858C49.2426 70.9312 49.1329 71.0043 49.0597 71.0775C48.8036 71.1507 48.7305 71.2238 48.7305 71.2238Z" fill="#455A64"/>
<g opacity="0.3">
<path d="M66.4358 81.2105C66.4358 81.2105 63.6556 93.0263 60.656 96.3552C57.6197 99.6475 56.8149 100.379 56.8149 100.379L56.5955 99.5743L66.4358 81.2105Z" fill="black"/>
</g>
<path d="M50.0841 60.5055C50.0841 60.5055 49.7915 58.6764 48.8769 57.6156C47.9624 56.5547 46.3162 55.3475 46.3162 55.3475H45.8407L44.6335 52.6405L41.2314 52.4576C41.2314 52.4576 41.9631 59.1154 43.6092 61.1274C45.2554 63.1394 46.9381 63.0296 47.6332 62.8467C48.3282 62.6272 50.0841 60.5055 50.0841 60.5055Z" fill="#C17560"/>
<path d="M55.9735 34.8254L58.6805 48.1044C58.8268 48.8361 58.2781 49.5311 57.5099 49.5311H38.9632C38.4145 49.5311 37.9389 49.1653 37.8292 48.6166L34.8661 35.3375C34.6832 34.6059 35.2685 33.9109 36.0001 33.9109H54.8029C55.3882 33.8743 55.8637 34.2767 55.9735 34.8254Z" fill="#263238"/>
<path d="M55.9734 34.8254C55.9734 34.8254 55.9734 34.7522 55.9368 34.6425C55.9002 34.5328 55.8271 34.3499 55.6442 34.1669C55.4613 33.984 55.2052 33.8377 54.8394 33.8377C54.4736 33.8377 54.0712 33.8377 53.6322 33.8377C51.8031 33.8377 49.1693 33.8377 45.9135 33.8011C44.2674 33.8011 42.5115 33.8011 40.5727 33.8011C39.6215 33.8011 38.6338 33.8011 37.6096 33.8011C37.0974 33.8011 36.5853 33.8011 36.0732 33.8011C35.5244 33.7646 34.9391 34.1669 34.7928 34.7157C34.7196 35.0083 34.7562 35.301 34.8294 35.557C34.9026 35.8131 34.9391 36.1058 35.0123 36.3618C35.122 36.9105 35.2684 37.4593 35.3781 38.008C35.6342 39.1054 35.8902 40.2394 36.1463 41.3735C36.6585 43.6415 37.1706 46.0193 37.7193 48.4337C37.7559 48.58 37.7925 48.7629 37.8656 48.9092C37.9388 49.0555 38.0485 49.2019 38.1583 49.3116C38.4144 49.5311 38.7436 49.6408 39.0728 49.6408C39.6947 49.6408 40.28 49.6408 40.9019 49.6408C42.1091 49.6408 43.3163 49.6408 44.4869 49.6408C46.8281 49.6408 49.0961 49.6408 51.2544 49.6408C53.4127 49.6408 55.4613 49.6408 57.3635 49.6408C57.583 49.6408 57.8756 49.6408 58.0951 49.5311C58.3146 49.4214 58.5341 49.2385 58.6438 49.0555C58.7902 48.8361 58.8267 48.6166 58.8267 48.3605C58.8267 48.1044 58.7536 47.9215 58.717 47.702C58.5341 46.8241 58.3512 45.9827 58.2049 45.2145C57.5464 42.0319 56.9977 39.4712 56.6319 37.6788C56.4489 36.8008 56.3026 36.1058 56.1929 35.6302C56.1563 35.4107 56.1197 35.2278 56.0831 35.0815C56.01 34.862 55.9734 34.8254 55.9734 34.8254C55.9734 34.8254 55.9734 34.8986 56.01 35.0083C56.0466 35.1546 56.0831 35.301 56.1197 35.557C56.2295 36.0326 56.3392 36.7276 56.5221 37.6056C56.8879 39.3981 57.4001 41.9953 58.0219 45.1779C58.1683 45.9827 58.3512 46.8241 58.5341 47.6655C58.5707 47.8849 58.6438 48.1044 58.6438 48.3239C58.6438 48.5434 58.6072 48.7629 58.4609 48.9458C58.3512 49.1287 58.1683 49.275 57.9854 49.3848C57.7659 49.4945 57.583 49.4945 57.3269 49.4945C55.4247 49.4945 53.3761 49.4945 51.2178 49.4945C49.0595 49.4945 46.7915 49.4945 44.4503 49.4945C43.2797 49.4945 42.0725 49.4945 40.8653 49.4945C40.2434 49.4945 39.6581 49.4945 39.0362 49.4945C38.7436 49.4945 38.4509 49.4214 38.268 49.2019C38.1583 49.0921 38.0851 48.9824 38.012 48.8726C37.9388 48.7629 37.9388 48.6166 37.9022 48.4337C37.3535 46.0193 36.8414 43.6415 36.3292 41.3735C36.0732 40.2394 35.8171 39.1054 35.561 38.008C35.4513 37.4593 35.3049 36.9105 35.1952 36.3618C35.122 36.1058 35.0855 35.8131 35.0123 35.557C34.9391 35.301 34.9026 35.0449 34.9757 34.7888C35.122 34.3133 35.5976 33.9475 36.0732 33.984C36.5853 33.984 37.0974 33.984 37.6096 33.984C38.6338 33.984 39.6215 33.984 40.5727 33.984C42.4749 33.984 44.2674 33.984 45.9135 33.984C49.1693 33.984 51.8031 33.9475 53.6322 33.9475C54.0712 33.9475 54.4736 33.9475 54.8394 33.9475C55.1686 33.9475 55.4613 34.0938 55.6442 34.2401C55.9734 34.5328 55.9734 34.8254 55.9734 34.8254Z" fill="#455A64"/>
<path d="M44.9263 40.8613C44.9263 40.8613 42.6948 44.6658 42.4753 45.1779C42.2558 45.6901 41.5608 46.4583 41.5242 46.9338C41.4876 47.4094 40.9389 50.153 41.0121 51.1407C41.0487 52.1284 41.5974 53.3721 41.5974 53.3721L44.6702 52.6039C44.6702 52.6039 45.4018 51.982 45.8042 51.0309C46.2066 50.0798 46.609 49.7506 46.9748 49.4579C47.3772 49.1653 48.9136 48.1776 49.0965 47.8484C49.316 47.4094 49.0965 47.1167 49.0965 47.1167C49.0965 47.1167 49.8282 46.7875 49.9379 46.3851C50.0477 45.9461 49.9379 45.3974 49.1331 45.7632C48.3283 46.129 45.3653 48.2508 45.036 48.0313C44.7434 47.8118 45.1092 47.2265 45.1092 47.2265C45.1092 47.2265 48.2552 44.3366 48.4381 43.8244C48.5844 43.3123 48.1454 42.6172 47.4138 43.2391C46.6822 43.861 44.2678 46.3119 44.0117 46.3119C43.7557 46.3119 44.0483 45.5803 44.0483 45.5803C44.0483 45.5803 45.2921 42.9099 45.5116 42.1783C45.6945 41.4466 45.5482 40.4955 44.9263 40.8613Z" fill="#C17560"/>
<path d="M34.72 34.6425C34.72 34.6425 34.7566 34.6425 34.7931 34.6425C34.8663 34.6425 34.9395 34.6425 35.0492 34.6425C35.3053 34.6425 35.6345 34.6425 36.0735 34.6425C36.988 34.6425 38.2684 34.6425 39.8048 34.6791C42.9873 34.6791 47.3405 34.6791 52.1693 34.7157C52.7911 34.7157 53.3764 34.7157 53.9617 34.7157C54.2544 34.6791 54.5105 34.7888 54.6934 34.9717C54.8031 35.0449 54.8763 35.1912 54.9129 35.301C54.9494 35.4107 54.986 35.557 55.0226 35.7034C55.2787 36.8008 55.4982 37.8982 55.7176 38.9225C56.1566 40.9711 56.5224 42.8001 56.8517 44.3731C57.1809 45.9095 57.4735 47.1533 57.6565 48.0313C57.7662 48.4337 57.8394 48.7629 57.9125 49.019C57.9491 49.1287 57.9491 49.2019 57.9857 49.275C57.9857 49.3482 58.0223 49.3482 58.0223 49.3482C58.0223 49.3482 58.0223 49.3116 58.0223 49.275C58.0223 49.2019 57.9857 49.1287 57.9857 49.019C57.9491 48.7629 57.8759 48.4337 57.7662 48.0313C57.5833 47.1533 57.3272 45.9095 56.998 44.3731C56.6688 42.8001 56.3029 40.9711 55.9005 38.9225C55.6811 37.8982 55.4616 36.8374 55.2055 35.7034C55.1689 35.557 55.1689 35.4473 55.0958 35.2644C55.0592 35.1181 54.9494 34.9717 54.8397 34.862C54.6202 34.6425 54.2544 34.5328 53.9617 34.5693C53.3764 34.5693 52.7911 34.5693 52.1693 34.5693C47.3405 34.5693 42.9873 34.6059 39.8048 34.6059C38.2318 34.6059 36.9514 34.6425 36.0735 34.6425C35.6345 34.6425 35.3053 34.6425 35.0492 34.6425C34.9395 34.6425 34.8663 34.6425 34.7931 34.6425C34.7566 34.6425 34.72 34.6425 34.72 34.6425Z" fill="#455A64"/>
<path d="M49.645 58.0911C49.645 58.0911 49.6085 57.9814 49.5353 57.7985C49.4621 57.6156 49.3158 57.3595 49.0963 57.0668C48.6939 56.4815 47.8891 55.7865 46.7917 55.4938C46.499 55.4207 46.2064 55.3841 45.9503 55.3841L46.0235 55.4207C45.6211 54.6525 45.2919 53.9209 45.0358 53.4453C44.7797 52.9332 44.6334 52.6405 44.6334 52.6405C44.5968 52.6405 44.7066 52.9697 44.926 53.4819C45.1455 53.994 45.4382 54.6891 45.8772 55.4938L45.9137 55.5304H45.9503C46.2064 55.567 46.4625 55.567 46.7551 55.6402C47.7794 55.9328 48.5476 56.5913 48.9866 57.14C49.4621 57.6887 49.6085 58.0911 49.645 58.0911Z" fill="#6F4439"/>
<path d="M45.6577 49.1287C45.6943 49.1653 46.4625 48.7263 47.4136 48.1776C48.3647 47.5923 49.0964 47.1167 49.0598 47.0436C49.0232 47.007 48.255 47.446 47.3039 47.9947C46.3893 48.58 45.6577 49.0921 45.6577 49.1287Z" fill="#6F4439"/>
<path d="M44.6701 37.8617C44.7799 38.2275 45.1457 38.447 45.4383 38.3372C45.7676 38.2275 45.9139 37.8617 45.8042 37.4958C45.6944 37.13 45.3286 36.9105 45.0359 37.0203C44.7433 37.13 44.5604 37.4958 44.6701 37.8617Z" fill="#E0E0E0"/>
<path d="M72.106 23.3023C72.106 23.3023 72.2158 23.1926 72.3255 22.9365C72.4353 22.6804 72.5084 22.278 72.3987 21.8025C72.3255 21.3269 71.9963 20.7416 71.4476 20.4124C71.1549 20.2295 70.8257 20.1197 70.4965 20.0831C70.3135 20.0831 70.1306 20.0466 69.9477 20.1197C69.7648 20.1563 69.5453 20.3026 69.5088 20.5587C69.4722 20.6684 69.5088 20.8148 69.5819 20.8879C69.6551 20.9977 69.7282 21.0343 69.8014 21.1074C69.9843 21.2172 70.2038 21.2172 70.3867 21.1806C70.7525 21.1074 71.0818 20.8514 71.1915 20.5221C71.3378 20.1929 71.2647 19.8271 71.1183 19.571C70.972 19.3149 70.7525 19.132 70.4965 19.0223C70.0209 18.8394 69.5819 18.9857 69.3624 19.0955C69.1064 19.2418 69.0332 19.3515 69.0332 19.3515C69.0332 19.3515 69.1429 19.2418 69.399 19.132C69.6185 19.0223 70.0209 18.9125 70.4599 19.0955C70.6794 19.1686 70.8623 19.3515 70.972 19.6076C71.0818 19.8271 71.1183 20.1563 71.0086 20.4124C70.8988 20.6684 70.6428 20.8879 70.3135 20.9245C70.1672 20.9611 69.9843 20.9245 69.8746 20.8514C69.7282 20.7782 69.6551 20.6319 69.6551 20.5221C69.6917 20.3758 69.8014 20.2661 69.9477 20.2295C70.0941 20.1929 70.277 20.1929 70.4233 20.1929C70.7525 20.2295 71.0452 20.3392 71.3012 20.4855C71.8134 20.8148 72.1426 21.3269 72.2158 21.7659C72.3255 22.2049 72.2524 22.6073 72.1792 22.8633C72.1426 23.156 72.0694 23.3023 72.106 23.3023Z" fill="#263238"/>
</g>
<defs>
<clipPath id="clip0_1181_2461">
<rect width="103.745" height="128.474" fill="white" transform="translate(0.0407715)"/>
</clipPath>
</defs>
</svg>
