<svg width="136" height="122" viewBox="0 0 136 122" fill="none" xmlns="http://www.w3.org/2000/svg">
<g clip-path="url(#clip0_536_1164)">
<path d="M101.778 11.4353H90.0989C88.1048 11.4353 86.5177 13.0631 86.5177 15.0165V25.1902C86.5177 27.1843 88.1455 28.7714 90.0989 28.7714H94.7381L95.959 31.9863L97.1798 28.7714H101.819C103.813 28.7714 105.4 27.1436 105.4 25.1902V15.0572C105.36 13.0631 103.732 11.4353 101.778 11.4353Z" fill="#FF8A00"/>
<path opacity="0.7" d="M101.778 11.4353H90.0989C88.1048 11.4353 86.5177 13.0631 86.5177 15.0165V25.1902C86.5177 27.1843 88.1455 28.7714 90.0989 28.7714H94.7381L95.959 31.9863L97.1798 28.7714H101.819C103.813 28.7714 105.4 27.1436 105.4 25.1902V15.0572C105.36 13.0631 103.732 11.4353 101.778 11.4353Z" fill="white"/>
<path d="M100.018 24.1811C102.29 21.9085 102.29 18.2239 100.018 15.9513C97.7452 13.6787 94.0606 13.6787 91.788 15.9513C89.5154 18.2239 89.5154 21.9085 91.788 24.1811C94.0606 26.4536 97.7452 26.4536 100.018 24.1811Z" fill="#FF8A00"/>
<path d="M95.3079 22.6672C95.1451 22.6672 94.9823 22.5858 94.9009 22.4637L92.622 19.7779C92.4185 19.5337 92.4592 19.2081 92.7034 19.0453C92.9475 18.8419 93.2731 18.8826 93.4359 19.1267L95.3079 21.3243L98.4007 17.7024C98.6042 17.4582 98.9297 17.4582 99.1332 17.621C99.3774 17.8245 99.3774 18.1501 99.2146 18.3535L95.7148 22.4637C95.5927 22.5858 95.4706 22.6672 95.3079 22.6672Z" fill="white"/>
<path d="M117.649 121.76H120.335L114.841 90.7502H112.156L117.649 121.76Z" fill="#1A2E35"/>
<path d="M58.5601 121.76H61.246L55.7522 90.7502H53.0663L58.5601 121.76Z" fill="#1A2E35"/>
<path opacity="0.3" d="M117.649 121.76H120.335L114.841 90.7502H112.156L117.649 121.76Z" fill="white"/>
<path opacity="0.3" d="M58.5601 121.76H61.246L55.7522 90.7502H53.0663L58.5601 121.76Z" fill="white"/>
<path d="M35.1687 108.983L116.233 108.983V106.256L35.1687 106.256V108.983Z" fill="#1A2E35"/>
<path opacity="0.5" d="M35.1687 108.983L116.233 108.983V106.256L35.1687 106.256V108.983Z" fill="white"/>
<path d="M92.866 121.76H90.1802L95.674 90.7502H98.3599L92.866 121.76Z" fill="#1A2E35"/>
<path d="M33.7768 121.76H31.0909L36.5848 90.7502H39.2707L33.7768 121.76Z" fill="#1A2E35"/>
<path opacity="0.3" d="M92.866 121.76H90.1802L95.674 90.7502H98.3599L92.866 121.76Z" fill="white"/>
<path opacity="0.3" d="M33.7768 121.76H31.0909L36.5848 90.7502H39.2707L33.7768 121.76Z" fill="white"/>
<path d="M58.1532 89.5699H60.8391L65.3155 64.6646H62.6297L58.1532 89.5699Z" fill="#1A2E35"/>
<path opacity="0.3" d="M58.1532 89.5699H60.8391L65.3155 64.6646H62.6297L58.1532 89.5699Z" fill="white"/>
<path d="M111.26 89.5699H113.946L118.423 64.6646H115.737L111.26 89.5699Z" fill="#1A2E35"/>
<path d="M84.7271 89.5699H87.3722L91.8487 64.6646H89.2035L84.7271 89.5699Z" fill="#1A2E35"/>
<path opacity="0.3" d="M111.26 89.5699H113.946L118.423 64.6646H115.737L111.26 89.5699Z" fill="white"/>
<path opacity="0.3" d="M84.7271 89.5699H87.3722L91.8487 64.6646H89.2035L84.7271 89.5699Z" fill="white"/>
<path d="M53.5546 66.3738H123.754L124.608 61.6938H54.3685L53.5546 66.3738Z" fill="#1A2E35"/>
<path d="M52.0082 74.7976H122.248L123.102 70.1177H52.8628L52.0082 74.7976Z" fill="#1A2E35"/>
<path d="M50.5024 83.2214H120.742L121.556 78.5415H51.357L50.5024 83.2214Z" fill="#1A2E35"/>
<path d="M30.5352 92.0574L120.024 92.0574V88.8425L30.5352 88.8425V92.0574Z" fill="#1A2E35"/>
<path opacity="0.5" d="M53.5546 66.3738H123.754L124.608 61.6938H54.3685L53.5546 66.3738Z" fill="white"/>
<path opacity="0.5" d="M52.0082 74.7976H122.248L123.102 70.1177H52.8628L52.0082 74.7976Z" fill="white"/>
<path opacity="0.5" d="M50.5024 83.2214H120.742L121.556 78.5415H51.357L50.5024 83.2214Z" fill="white"/>
<path opacity="0.5" d="M30.5352 92.0574L120.024 92.0574V88.8425L30.5352 88.8425V92.0574Z" fill="white"/>
<path opacity="0.2" d="M30.5359 92.0574L98.0491 92.0574V88.8425L30.5359 88.8425V92.0574Z" fill="white"/>
<path d="M91.157 55.63C90.0175 56.8916 88.8373 58.0717 87.5758 59.1705C86.9247 59.7402 86.2736 60.2693 85.5817 60.7983C85.2155 61.0832 84.8492 61.3273 84.4423 61.5715C84.2388 61.6936 83.9946 61.8157 83.7505 61.9378C83.5063 62.0599 83.2214 62.1819 82.7738 62.304C82.5703 62.3447 82.2854 62.3854 81.9192 62.3854C81.8378 62.3854 81.7157 62.3854 81.6343 62.3447L81.4715 62.304C81.3901 62.2633 81.2681 62.2633 81.1867 62.2226C80.8611 62.1006 80.5762 61.9785 80.3321 61.8564C79.8437 61.5715 79.4368 61.2867 79.0705 61.0018C78.338 60.4321 77.7276 59.7809 77.1579 59.1705C76.0184 57.909 75.001 56.6067 74.065 55.1824C73.7395 54.6941 73.9022 54.0836 74.3499 53.7581C74.7162 53.5139 75.2452 53.5546 75.5707 53.8395H75.6114C76.8323 54.8568 78.0531 55.9149 79.274 56.8916C79.8844 57.3799 80.4949 57.8276 81.1053 58.1938C81.3901 58.3566 81.7157 58.5194 81.9192 58.6415C82.0413 58.6822 82.1227 58.7229 82.1633 58.7229C82.1227 58.7229 82.082 58.7229 82.0413 58.7229C81.8785 58.7229 81.8378 58.7229 81.7971 58.7229C81.7564 58.7229 81.8785 58.6822 81.9599 58.6008C82.082 58.5194 82.204 58.438 82.3261 58.3566C82.5703 58.1531 82.8552 57.9497 83.14 57.7055C83.7098 57.2171 84.2795 56.6881 84.8085 56.1591C85.9073 55.0603 87.0468 53.9208 88.1455 52.8221L88.1862 52.7814C88.9594 51.9675 90.2617 51.9675 91.0756 52.7407C91.8488 53.5546 91.8895 54.8161 91.157 55.63Z" fill="#FAB373"/>
<path d="M90.0988 51.9675V57.7869C90.0988 57.7869 88.8779 58.8043 87.3315 59.9438C86.5583 60.5135 85.7444 61.0832 84.9712 61.6123C83.7911 62.3855 82.733 62.9552 82.2039 62.9145C80.6168 62.8331 77.1171 60.31 77.1171 60.31L79.396 56.4847C79.396 56.4847 82.0412 58.0718 82.2039 58.1939C82.4074 58.3567 87.942 52.0082 90.0988 51.9675Z" fill="#FF8A00"/>
<path opacity="0.2" d="M87.3723 59.9439C86.5991 60.5136 85.7852 61.0833 85.012 61.6124C85.2154 58.2754 86.7619 56.9731 86.7619 56.9731C87.2502 57.9091 87.413 58.9672 87.3723 59.9439Z" fill="black"/>
<path d="M92.3371 36.6256C89.5291 38.9045 89.8547 45.4971 93.0289 49.8515C93.0289 49.8515 99.7843 50.4212 103.528 48.7527C107.272 47.0842 103.121 36.4221 99.1738 35.5675C95.1857 34.7129 92.3371 36.6256 92.3371 36.6256Z" fill="#1A2E35"/>
<path d="M92.4998 43.503C91.4825 41.7124 90.4651 36.9511 94.7381 35.4454C100.069 33.6141 102.47 36.9918 102.918 40.3695C103.365 43.7472 101.493 46.311 97.953 46.0261C94.4125 45.8226 93.2324 44.7239 92.4998 43.503Z" fill="#1A2E35"/>
<path d="M86.7618 56.9732C86.2328 59.4556 87.1688 65.2749 87.2908 69.6293L99.8656 71.0943C99.8656 69.7107 100.11 67.7167 100.924 64.5424C101.412 62.6705 102.063 60.4322 102.999 57.665C103.121 57.258 103.284 56.8511 103.406 56.4034C104.057 54.4501 102.918 52.4967 100.964 52.2118C100.435 52.1304 99.8656 52.049 99.2959 52.0084C97.0577 51.7642 95.2264 51.6014 93.1916 51.6828C92.5405 51.7235 91.8487 51.7642 91.1569 51.8049C88.8779 52.0084 87.2501 54.6535 86.7618 56.9732Z" fill="#1A2E35"/>
<path d="M99.2959 45.1309C98.6448 47.0435 97.8309 50.6247 99.011 51.9676C99.011 51.9676 97.1798 51.6014 93.1103 53.7989C92.0522 52.0897 92.9475 51.6421 92.9475 51.6421C95.1857 51.2351 95.3485 49.6073 95.145 48.1016L99.2959 45.1309Z" fill="#FCB373"/>
<path opacity="0.2" d="M97.5867 46.3518L95.145 48.1017C95.1857 48.4679 95.2264 48.8342 95.1857 49.2005C96.0403 49.1191 97.3019 48.2645 97.5053 47.4099C97.5867 46.9622 97.6274 46.5553 97.5867 46.3518Z" fill="black"/>
<path d="M100.11 40.6138C100.151 43.8287 100.232 45.2124 98.7262 46.9622C96.488 49.6074 92.4999 48.9563 91.5232 45.8228C90.6279 42.9741 90.7093 38.2128 93.7614 36.7071C96.7729 35.2014 100.069 37.3989 100.11 40.6138Z" fill="#FFB570"/>
<path d="M97.3832 37.6023C96.4879 38.7011 98.5227 42.2415 100.11 42.852C103.243 41.8346 100.069 34.2653 97.3832 37.6023Z" fill="#1A2E35"/>
<path d="M93.5988 36.0966C92.4187 36.6256 91.3199 38.8232 91.1571 39.6778C92.907 39.7998 97.4648 37.7651 97.4648 37.7651C97.4648 37.7651 100.68 38.3348 98.9299 36.9105C97.18 35.4862 93.5988 36.0966 93.5988 36.0966Z" fill="#1A2E35"/>
<path d="M94.7791 41.9162C94.7791 42.1605 94.657 42.4048 94.4941 42.4048C94.3312 42.4048 94.1683 42.2012 94.1683 41.9569C94.1683 41.7126 94.2905 41.4683 94.4534 41.4683C94.6163 41.4683 94.7384 41.6719 94.7791 41.9162Z" fill="#1A2E35"/>
<path d="M91.8084 42.1604C91.8084 42.4047 91.6863 42.649 91.5234 42.649C91.3605 42.649 91.1976 42.4454 91.1976 42.2011C91.1976 41.9568 91.3198 41.7125 91.4827 41.7125C91.6456 41.6717 91.8084 41.8753 91.8084 42.1604Z" fill="#1A2E35"/>
<path d="M91.5642 41.7125L90.9127 41.5903C90.9127 41.5496 91.2792 42.0382 91.5642 41.7125Z" fill="#1A2E35"/>
<path d="M93.0695 42.4856C93.0695 42.4856 92.7033 43.6251 92.2556 44.2355C92.6219 44.5203 93.1916 44.3576 93.1916 44.3576L93.0695 42.4856Z" fill="#FF8935"/>
<path d="M94.6974 45.2123C94.5753 45.253 94.4532 45.253 94.3311 45.253C94.2904 45.253 94.2498 45.2123 94.2498 45.1716C94.2498 45.1309 94.2904 45.0902 94.3311 45.0902C95.4706 45.0088 95.9589 44.1542 95.9589 44.1542C95.9996 44.1135 96.0403 44.1135 96.081 44.1135C96.1217 44.1542 96.1217 44.1949 96.1217 44.2356C96.0403 44.317 95.6741 45.0088 94.6974 45.2123Z" fill="#1A2E35"/>
<path d="M101.209 43.503C101.046 44.1541 100.557 44.6425 100.069 44.8866C99.3366 45.2936 98.8076 44.6832 98.8483 43.9099C98.889 43.2181 99.3366 42.1601 100.11 42.0787C100.924 41.9973 101.412 42.7705 101.209 43.503Z" fill="#FFB570"/>
<path d="M96.203 41.1429C96.1216 41.1429 96.0809 41.1429 96.0403 41.0615C95.674 40.4511 94.7787 40.3697 94.738 40.3697C94.6566 40.3697 94.5752 40.2883 94.6159 40.2069C94.6159 40.1255 94.6973 40.0441 94.7787 40.0848C94.8194 40.0848 95.8775 40.1662 96.3251 40.8987C96.3658 40.9801 96.3658 41.0615 96.2844 41.1022C96.2437 41.1429 96.2437 41.1429 96.203 41.1429Z" fill="#1A2E35"/>
<path d="M91.1569 40.7765C91.1162 40.7765 91.0348 40.7765 90.9941 40.7358C90.9534 40.6544 90.9534 40.5731 90.9941 40.5324C91.6046 39.9626 92.2964 40.0847 92.3371 40.0847C92.4185 40.0847 92.4592 40.2068 92.4592 40.2882C92.4592 40.3696 92.3778 40.4103 92.2557 40.4103C92.215 40.4103 91.686 40.2882 91.1976 40.7765C91.1976 40.7358 91.1569 40.7765 91.1569 40.7765Z" fill="#1A2E35"/>
<path d="M94.4943 41.4684L93.8428 41.3462C93.8428 41.3462 94.2093 41.7941 94.4943 41.4684Z" fill="#1A2E35"/>
<path d="M83.0586 53.3513L83.3435 54.2873C83.4656 54.6536 83.7504 54.9384 84.1167 55.0605L85.7852 55.5895C86.4363 55.793 87.1688 55.6709 87.7385 55.264L88.1048 55.0198C87.6979 53.392 86.07 51.9677 86.07 51.9677L85.6631 51.52C85.2968 51.1131 84.6864 51.0724 84.2795 51.3979L83.3435 52.2119C83.0586 52.456 82.9365 52.9444 83.0586 53.3513Z" fill="#FCB373"/>
<path d="M71.786 54.2466L72.0709 55.1826C72.193 55.5488 72.4778 55.8337 72.8441 55.9558L74.5126 56.4848C75.1637 56.6883 75.8962 56.5662 76.466 56.1592L76.8322 55.9151C76.4253 54.2873 74.7975 52.8629 74.7975 52.8629L74.3905 52.4153C74.0243 52.0083 73.4138 51.9677 73.0069 52.2932L72.0709 53.1071C71.786 53.3513 71.6639 53.7989 71.786 54.2466Z" fill="#FCB373"/>
<path opacity="0.2" d="M96.1217 59.3334C96.9356 61.7344 99.0111 63.4843 100.964 64.5423C101.453 62.6704 102.104 60.4321 103.04 57.6649C101.819 55.915 100.069 54.6941 97.8309 55.0197C97.8716 55.0604 95.3078 56.9324 96.1217 59.3334Z" fill="black"/>
<path d="M51.4792 106.662L53.5954 107.516C53.5954 107.516 71.664 80.2913 73.3325 81.3087C79.3961 85.0119 91.8081 91.6452 97.7089 87.6164C103.61 83.6283 100.11 73.0069 100.11 73.0069C100.11 73.0069 88.6745 68.9781 87.2502 71.4605C86.9654 71.9488 86.5991 72.9255 86.2735 73.7394C85.9887 74.5126 85.7445 75.2044 85.7445 75.2044C85.3782 75.0416 74.1871 69.6292 68.8967 71.8674C63.4843 74.1871 51.4792 106.662 51.4792 106.662Z" fill="#FCB373"/>
<path d="M90.5872 89.0814C90.5872 89.0814 84.8899 89.4477 77.1171 86.8025C77.1171 86.8025 75.2045 108.493 73.9022 120.254L71.2978 119.888C71.2978 119.888 66.862 87.7792 67.7573 83.8317C68.6526 79.925 73.3732 79.6401 73.3732 79.6401C73.3732 79.6401 82.4889 86.3548 90.5872 89.0814Z" fill="#FCB373"/>
<path d="M90.5872 89.0814C90.4651 89.0407 84.8899 89.2849 79.2333 87.6978L79.9658 84.605C82.8551 86.477 86.8433 87.6571 90.5872 89.0814Z" fill="#FF8A00"/>
<path opacity="0.4" d="M90.5872 89.0814C90.4651 89.0407 84.8899 89.2849 79.2333 87.6978L79.9658 84.605C82.8551 86.477 86.8433 87.6571 90.5872 89.0814Z" fill="white"/>
<path d="M79.5181 84.2795L78.8263 87.6979L79.8844 88.0642L80.6576 85.0527L79.5181 84.2795Z" fill="#FF8A00"/>
<path opacity="0.6" d="M79.5181 84.2795L78.8263 87.6979L79.8844 88.0642L80.6576 85.0527L79.5181 84.2795Z" fill="white"/>
<path opacity="0.2" d="M68.7339 97.5054C68.327 88.9594 68.1642 84.5643 69.5478 82.7737C70.9314 81.0238 73.129 80.6983 73.129 80.6983C74.9603 85.3375 82.8958 88.1862 83.0993 88.2676C86.07 88.878 90.4651 89.0408 90.5872 89.0815C86.07 88.1455 82.8144 86.477 79.9658 84.605C76.0183 82.0005 73.3732 79.6809 73.3732 79.6809C73.3732 79.6809 68.6525 79.9251 67.7572 83.8725C67.391 85.4596 67.92 91.808 68.6932 98.6855C68.7339 98.2786 68.7339 97.8716 68.7339 97.5054Z" fill="black"/>
<path d="M49.3631 104.871C49.3224 104.79 49.3224 104.668 49.4445 104.505C49.5259 104.424 49.6073 104.383 49.7293 104.383C49.9328 104.383 50.2177 104.505 50.5025 104.627C50.2991 104.383 50.1363 104.098 50.2177 103.894C50.2584 103.772 50.3805 103.732 50.5432 103.732C50.706 103.732 50.8688 103.772 50.9502 103.894C51.3164 104.261 51.2351 105.156 51.2351 105.197V105.237C51.2351 105.237 51.2351 105.237 51.1944 105.237H51.1537C50.9909 105.237 50.4619 105.237 50.0142 105.156C49.6886 105.156 49.4445 105.034 49.3631 104.871ZM49.7293 104.546C49.6479 104.546 49.6073 104.586 49.5666 104.627C49.4852 104.749 49.4852 104.79 49.5259 104.79C49.6073 104.993 50.2991 105.075 50.8688 105.115C50.5432 104.871 50.0142 104.505 49.7293 104.546ZM50.5432 103.894C50.5025 103.894 50.3805 103.894 50.3805 103.935C50.3398 104.098 50.6653 104.546 51.0723 104.953C51.0723 104.668 51.0316 104.22 50.8281 103.976C50.7874 103.935 50.706 103.894 50.6246 103.854C50.5839 103.894 50.5432 103.894 50.5432 103.894Z" fill="#1A2E35"/>
<path d="M68.7746 118.057C68.6933 118.016 68.6119 117.894 68.6933 117.69C68.734 117.568 68.7746 117.487 68.8967 117.446C69.1002 117.324 69.3851 117.324 69.7106 117.365C69.4258 117.202 69.1409 117.039 69.1409 116.836C69.1409 116.714 69.2223 116.591 69.3851 116.551C69.5479 116.469 69.7106 116.469 69.8327 116.551C70.3211 116.754 70.6466 117.568 70.6466 117.609V117.65C70.6466 117.65 70.6466 117.69 70.6059 117.69C70.6059 117.69 70.6059 117.69 70.5652 117.69C70.3618 117.772 69.5885 118.179 69.0595 118.179C68.9781 118.138 68.856 118.097 68.7746 118.057ZM68.9781 117.568C68.9374 117.609 68.8967 117.65 68.8967 117.69C68.856 117.812 68.8967 117.853 68.9374 117.894C69.1002 118.016 69.7513 117.812 70.2804 117.609C69.8734 117.527 69.263 117.446 68.9781 117.568ZM69.4258 116.673C69.3851 116.714 69.3037 116.754 69.3037 116.795C69.3037 116.958 69.8327 117.243 70.3618 117.405C70.2397 117.161 70.0362 116.754 69.7513 116.632C69.7106 116.632 69.6699 116.591 69.6292 116.591C69.5479 116.632 69.5072 116.632 69.4258 116.673Z" fill="#1A2E35"/>
<path d="M54.9383 106.621C55.0604 106.336 51.6827 105.075 51.6827 105.075C51.6827 105.075 48.7527 106.173 46.5958 105.767C44.439 105.319 44.968 106.987 47.1655 108.005C49.3224 109.022 50.9909 109.755 52.5373 110.487C54.0837 111.138 53.7175 109.388 54.9383 106.621Z" fill="#1A2E35"/>
<path d="M74.594 117.202C74.594 116.917 71.0128 117.202 71.0128 117.202C71.0128 117.202 68.8153 119.481 66.6991 120.01C64.5423 120.539 65.7632 121.8 68.1642 121.8C70.5652 121.76 72.3965 121.76 74.1056 121.719C75.7741 121.678 74.6754 120.213 74.594 117.202Z" fill="#1A2E35"/>
<path d="M100.069 73.0477C100.069 73.0477 88.6339 69.0189 87.2095 71.5013C86.9247 71.9896 86.5584 72.9663 86.2329 73.7802C85.948 74.5534 85.7038 75.2452 85.7038 75.2452L84.7678 74.7976L80.9425 86.2329C87.0468 89.6106 95.6741 90.0175 99.2146 87.6165C105.075 83.6284 100.069 73.0477 100.069 73.0477Z" fill="#FF8A00"/>
<g opacity="0.4">
<path d="M100.069 73.0477C100.069 73.0477 88.6339 69.0189 87.2095 71.5013C86.9247 71.9896 86.5584 72.9663 86.2329 73.7802C85.948 74.5534 85.7038 75.2452 85.7038 75.2452L84.7678 74.7976L80.9425 86.2329C87.0468 89.6106 95.6741 90.0175 99.2146 87.6165C105.075 83.6284 100.069 73.0477 100.069 73.0477Z" fill="white"/>
</g>
<path opacity="0.3" d="M85.7037 75.2453L92.2963 78.0533C92.2963 78.0533 88.9186 75.2046 86.2328 73.7803C85.9479 74.5942 85.7037 75.2453 85.7037 75.2453Z" fill="black"/>
<path d="M87.0468 71.8268L87.2909 69.0188L100.069 70.6873L100.232 73.4139L87.0468 71.8268Z" fill="#FF8A00"/>
<path opacity="0.4" d="M87.0468 71.8268L87.2909 69.0188L100.069 70.6873L100.232 73.4139L87.0468 71.8268Z" fill="white"/>
<path d="M87.3317 69.2632L87.9828 69.3853L87.7793 71.5828L87.2096 71.5014L87.3317 69.2632Z" fill="#1A2E35"/>
<path d="M88.6338 69.4666L95.8368 70.5246L95.6333 72.5187L88.4303 71.6641L88.6338 69.4666Z" fill="#1A2E35"/>
<path d="M100.069 73.0477L96.2845 72.6L96.4473 70.606H96.488L99.9064 71.0943L100.069 73.0477Z" fill="#1A2E35"/>
<path opacity="0.2" d="M87.3317 69.2632L87.9828 69.3853L87.7793 71.5828L87.2096 71.5014L87.3317 69.2632Z" fill="black"/>
<path opacity="0.2" d="M88.6338 69.4666L95.8368 70.5246L95.6333 72.5187L88.4303 71.6641L88.6338 69.4666Z" fill="black"/>
<path opacity="0.2" d="M100.069 73.0477L96.2845 72.6L96.4473 70.606H96.488L99.9064 71.0943L100.069 73.0477Z" fill="black"/>
<path d="M90.3431 71.9082L92.3778 72.1931C92.5813 72.2338 92.7848 72.071 92.8255 71.8675L92.9882 70.4839C93.0289 70.2804 92.8662 70.077 92.6627 70.0363L90.6279 69.7514C90.4245 69.7107 90.221 69.8735 90.1803 70.077L90.0175 71.4606C89.9768 71.7048 90.1396 71.9082 90.3431 71.9082Z" stroke="white" stroke-miterlimit="10" stroke-linecap="round" stroke-linejoin="round"/>
<path d="M91.8081 71.0129L92.5411 71.0944" stroke="white" stroke-miterlimit="10" stroke-linecap="round" stroke-linejoin="round"/>
<path d="M84.2388 74.0244L85.2969 74.5941L81.675 86.8841L80.1693 86.5992L84.2388 74.0244Z" fill="#FF8A00"/>
<path opacity="0.6" d="M84.2388 74.0244L85.2969 74.5941L81.675 86.8841L80.1693 86.5992L84.2388 74.0244Z" fill="white"/>
<path d="M83.3842 61.6124H74.4312C74.1057 61.6124 73.7801 61.3275 73.7394 61.0019L72.4779 49.119C72.4372 48.7527 72.7221 48.5085 73.0476 48.5085H82.0005C82.3261 48.5085 82.6517 48.7934 82.6923 49.119L83.9539 61.0019C83.9946 61.3275 83.7097 61.6124 83.3842 61.6124Z" fill="#1A2E35"/>
<path opacity="0.6" d="M83.3842 61.6124H74.4312C74.1057 61.6124 73.7801 61.3275 73.7394 61.0019L72.4779 49.119C72.4372 48.7527 72.7221 48.5085 73.0476 48.5085H82.0005C82.3261 48.5085 82.6517 48.7934 82.6923 49.119L83.9539 61.0019C83.9946 61.3275 83.7097 61.6124 83.3842 61.6124Z" fill="white"/>
<path opacity="0.2" d="M83.0179 61.6124H74.4312C74.1057 61.6124 73.7801 61.3275 73.7394 61.0019L72.4779 49.119C72.4372 48.7527 72.7221 48.5085 73.0476 48.5085H81.6343C81.9598 48.5085 82.2854 48.7934 82.3261 49.119L83.5876 61.0019C83.5876 61.3275 83.3435 61.6124 83.0179 61.6124Z" fill="white"/>
<path d="M77.7682 54.043C77.2392 54.043 76.8322 54.4906 76.8729 55.0196C76.9136 55.5487 77.402 55.9963 77.931 55.9963C78.46 55.9963 78.867 55.5487 78.8263 55.0196C78.2973 55.0196 77.8089 54.6127 77.7682 54.043Z" fill="#1A2E35"/>
<path opacity="0.3" d="M79.7216 49.4038H75.001C74.7568 49.4038 74.5533 49.2817 74.4312 49.0375L74.1464 48.4678H80.4134L80.2506 49.0375C80.1285 49.241 79.9251 49.4038 79.7216 49.4038Z" fill="black"/>
<path d="M102.592 76.6289H100.924C100.924 76.6289 98.8483 70.4025 97.6275 65.1122C97.2612 63.5657 96.9764 62.06 96.8543 60.8799C96.6508 59.0893 96.895 57.5022 97.2612 56.1592C97.9937 53.5548 99.3774 52.0083 99.3774 52.0083L99.0518 51.9676C102.185 51.9269 103.895 53.0257 104.098 54.9791C104.301 56.9324 100.842 68.5712 100.68 70.1176C100.476 71.7048 102.592 76.6289 102.592 76.6289Z" fill="#FF8A00"/>
<path d="M91.8081 51.7642C91.8081 51.7642 88.4711 57.0138 87.5758 59.2521C86.6805 61.4903 87.2095 67.8794 87.2095 67.8794C87.2095 67.8794 85.5003 60.188 86.5991 56.4034C87.6979 52.5374 89.6105 51.7642 91.8081 51.7642Z" fill="#FF8A00"/>
<path d="M103.243 56.4846C102.226 57.9904 101.168 59.374 99.8656 60.7169C99.2145 61.368 98.5634 62.0192 97.6681 62.6296C97.2205 62.9145 96.7728 63.24 96.081 63.4842C95.7554 63.6063 95.3485 63.7284 94.8601 63.7284C94.616 63.7284 94.3311 63.7284 94.0462 63.647C93.9242 63.6063 93.7614 63.5656 93.6393 63.5249L93.4358 63.4435C92.8661 63.1586 92.4591 62.8738 92.0522 62.5482C91.6452 62.2226 91.279 61.8971 90.9534 61.5715C90.2616 60.9204 89.6919 60.2286 89.1221 59.5368C88.0234 58.1531 87.0467 56.6881 86.1921 55.1417C85.9072 54.6534 86.1107 54.0429 86.599 53.7581C87.006 53.5139 87.4943 53.5953 87.8199 53.9208L87.8606 53.9615C89 55.1417 90.2209 56.3625 91.4011 57.4613C92.0115 58.031 92.6219 58.5601 93.2323 59.0077C93.8428 59.4554 94.4939 59.903 94.9415 60.0658L95.0229 60.1065L94.9415 60.0658C94.8601 60.0658 94.8194 60.0251 94.7787 60.0251C94.6974 60.0251 94.7381 60.0251 94.7787 59.9844C94.9008 59.903 95.145 59.7402 95.3892 59.5368C95.8775 59.1298 96.4066 58.5601 96.9356 57.9904C97.953 56.8102 98.9703 55.4673 99.8656 54.2057L99.9063 54.165C100.557 53.2697 101.819 53.0256 102.755 53.7174C103.61 54.3278 103.854 55.5893 103.243 56.4846Z" fill="#FAB373"/>
<path opacity="0.2" d="M102.796 57.9905C102.796 57.9905 99.8657 62.996 97.6275 65.1122C97.2612 63.5657 96.9764 62.06 96.8543 60.8799C96.6508 59.0893 96.895 57.5022 97.2612 56.1592C98.1972 55.386 99.1332 54.6128 99.5808 54.2466C100.72 53.2699 102.796 57.9905 102.796 57.9905Z" fill="black"/>
<path d="M102.999 53.3513C104.546 54.1652 104.057 56.4034 102.063 59.0079C100.069 61.6531 96.4066 65.1936 94.4939 64.5424C92.5813 63.8913 90.4244 61.3682 90.4244 61.3682L91.8081 57.4208C91.8081 57.4208 94.5346 59.4963 95.1044 59.3742C95.6741 59.2521 98.4821 55.6709 99.2553 54.5315C100.11 53.4734 101.331 52.456 102.999 53.3513Z" fill="#FF8A00"/>
<path d="M74.3905 53.5953L74.3498 54.3686C74.3091 54.7755 73.9836 55.1418 73.5766 55.1825L72.5186 55.3452L72.7627 52.4966L73.658 52.6594C74.1057 52.7407 74.4312 53.1477 74.3905 53.5953Z" fill="#FFB570"/>
</g>
<defs>
<clipPath id="clip0_536_1164">
<rect width="135.637" height="121.76" fill="white"/>
</clipPath>
</defs>
</svg>
