<svg width="211" height="211" viewBox="0 0 211 211" fill="none" xmlns="http://www.w3.org/2000/svg">
<circle cx="105.889" cy="105.384" r="105.111" fill="white"/>
<g clip-path="url(#clip0_606_569)">
<path fill-rule="evenodd" clip-rule="evenodd" d="M137.195 76.889C126.888 89.697 116.519 106.692 108.604 125.227H132.348H139.527C145.049 125.227 147.748 120.362 149.589 115.128L159.406 86.926C160.694 83.293 160.142 76.8274 149.343 76.8274H140.754C146.46 68.2066 152.288 61.4332 157.688 57.1228C151.491 61.1869 144.374 68.0219 137.195 76.889Z" fill="#FF8A00"/>
<path fill-rule="evenodd" clip-rule="evenodd" d="M107.499 103.675C112.837 94.1305 120.261 84.8324 128.667 76.889C134.495 71.4087 140.815 66.5441 147.196 62.6032C139.649 66.2978 132.103 71.2239 125.17 76.889H73.2633C73.2633 76.7658 73.2633 72.5786 73.2633 72.4555C73.1406 70.485 71.8522 68.8224 69.8888 68.3298L49.5803 62.7263C47.1261 62.049 44.6106 63.5268 43.9357 65.9283C43.2608 68.3914 44.7333 70.916 47.1261 71.5934L64.1214 76.2732L73.6928 127.505C73.6928 133.848 78.8466 139.02 85.1662 139.02H134.68C135.539 139.02 136.275 139.759 136.275 140.621C136.275 141.483 135.539 142.222 134.68 142.222H79.2147C76.6992 142.222 74.6131 144.316 74.6131 146.84C74.6131 149.365 76.6992 151.459 79.2147 151.459H82.712C80.81 152.752 79.5215 154.968 79.5215 157.493C79.5215 161.557 82.7733 164.821 86.8228 164.821C90.8722 164.821 94.124 161.557 94.124 157.493C94.124 154.968 92.8969 152.752 90.9335 151.459H123.022C121.12 152.752 119.832 154.968 119.832 157.493C119.832 161.557 123.083 164.821 127.133 164.821C131.182 164.821 134.434 161.557 134.434 157.493C134.434 154.968 133.207 152.752 131.244 151.459H134.495C140.447 151.459 145.294 146.594 145.294 140.621C145.294 134.648 140.447 129.784 134.495 129.784H132.225H84.9821C83.6937 129.784 82.712 128.737 82.712 127.505C82.712 126.212 83.755 125.227 84.9821 125.227H85.4729H106.395C101.118 114.02 90.4427 100.411 76.5151 92.6527C82.896 90.6206 97.0077 95.4236 107.499 103.675Z" fill="#50C4AF"/>
<path opacity="0.5" fill-rule="evenodd" clip-rule="evenodd" d="M134.679 142.345H79.2147C76.6991 142.345 74.613 144.439 74.613 146.964C74.613 149.488 76.6991 151.582 79.2147 151.582H82.7119C80.8099 152.875 79.5214 155.092 79.5214 157.616C79.5214 161.68 82.7732 164.944 86.8227 164.944C90.8721 164.944 94.1239 161.68 94.1239 157.616C94.1239 155.092 92.8968 152.875 90.9334 151.582H123.022C121.12 152.875 119.832 155.092 119.832 157.616C119.832 161.68 123.083 164.944 127.133 164.944C131.182 164.944 134.434 161.68 134.434 157.616C134.434 155.092 133.207 152.875 131.244 151.582H134.495C140.447 151.582 145.294 146.717 145.294 140.744C145.294 134.771 140.447 129.907 134.495 129.907H132.225H104.554C95.5351 132.801 85.9637 134.402 76.0242 134.463C78.1103 137.296 81.4848 139.082 85.2274 139.082H134.741C135.6 139.082 136.336 139.821 136.336 140.683C136.275 141.545 135.538 142.345 134.679 142.345Z" fill="#2F716D"/>
<path opacity="0.1" fill-rule="evenodd" clip-rule="evenodd" d="M116.212 125.227H132.348H139.527C145.048 125.227 147.748 120.362 149.589 115.128L159.406 86.926C159.712 86.1255 159.896 85.1403 159.896 84.155C150.08 102.074 134.741 116.483 116.212 125.227Z" fill="#A0370D"/>
</g>
<defs>
<clipPath id="clip0_606_569">
<rect width="116.145" height="107.698" fill="white" transform="translate(43.7517 57.1843)"/>
</clipPath>
</defs>
</svg>
