<svg width="22" height="23" viewBox="0 0 22 23" fill="none" xmlns="http://www.w3.org/2000/svg">
<path d="M7.34203 8.7838C8.19518 9.63695 9.32633 10.1258 10.6013 10.1258C11.8091 10.1258 13.0073 9.62736 13.7838 8.7838C14.6369 8.00733 15.1258 6.87619 15.1258 5.60126C15.1258 4.32633 14.6274 3.19518 13.7838 2.34203C13.0073 1.48888 11.7995 1 10.6013 1C9.32633 1 8.19518 1.49847 7.34203 2.34203C6.48888 3.1856 6 4.32633 6 5.60126C6 6.87619 6.48888 8.00733 7.34203 8.7838Z" stroke="#6F6F6F" stroke-width="1.5" stroke-miterlimit="10"/>
<path d="M15.347 13.5798C13.9647 13.1186 12.449 13 11 13C9.48427 13 7.96854 13.1186 6.653 13.5798C3.47855 14.5022 1 16.571 1 19.4436V21C1 21.5523 1.44772 22 2 22H20C20.5523 22 21 21.5523 21 21V19.4305C21 16.571 18.5214 14.5022 15.347 13.5798Z" stroke="#6F6F6F" stroke-width="1.5" stroke-miterlimit="10"/>
</svg>
