<svg width="15" height="15" viewBox="0 0 15 15" fill="none" xmlns="http://www.w3.org/2000/svg">
<path d="M15 2.8125L13.8951 7.46455C13.6935 8.3134 12.9433 8.90625 12.0709 8.90625H5.36438L5.62828 10.0059C5.72953 10.4279 6.10342 10.7227 6.53736 10.7227H13.1836V11.6602H6.53736C5.66818 11.6602 4.91947 11.0699 4.71662 10.2247L2.6598 1.65428C2.5585 1.23223 2.18467 0.9375 1.75066 0.9375H0V0H1.75066C2.61979 0 3.36855 0.590273 3.57141 1.43549L3.90188 2.8125H15ZM5.54584 13.6523C5.54584 14.3967 6.14918 15 6.8935 15C7.63781 15 8.24115 14.3967 8.24115 13.6523C8.24115 12.908 7.63781 12.3047 6.8935 12.3047C6.14918 12.3047 5.54584 12.908 5.54584 13.6523ZM10.4677 13.6523C10.4677 14.3967 11.0711 15 11.8154 15C12.5597 15 13.163 14.3967 13.163 13.6523C13.163 12.908 12.5597 12.3047 11.8154 12.3047C11.0711 12.3047 10.4677 12.908 10.4677 13.6523Z" fill="white"/>
</svg>
