<svg width="23" height="23" viewBox="0 0 23 23" fill="none" xmlns="http://www.w3.org/2000/svg">
<path d="M8.22538 13.1562H7.59119L7.73918 13.7729L8.14383 15.4591C8.35303 16.331 9.12741 16.9414 10.024 16.9414H19.7148V17.3789H10.024C8.92241 17.3789 7.97543 16.6323 7.71835 15.5612C7.71835 15.5612 7.71835 15.5612 7.71834 15.5612L4.56456 2.41988L4.56456 2.41985C4.35526 1.54793 3.58103 0.9375 2.68435 0.9375H0.5V0.5H2.68435C3.78582 0.5 4.73288 1.24659 4.98996 2.31776C4.98996 2.31777 4.98996 2.31777 4.98996 2.31777L5.49668 4.42918L5.58867 4.8125H5.98288H22.3673L20.8193 11.3301C20.5637 12.4063 19.6148 13.1562 18.5087 13.1562H8.22538ZM10.57 22.5C9.70488 22.5 9.00362 21.7987 9.00362 20.9336C9.00362 20.0684 9.70488 19.3672 10.57 19.3672C11.4352 19.3672 12.1364 20.0685 12.1364 20.9336C12.1364 21.7987 11.4352 22.5 10.57 22.5ZM18.1169 22.5C17.2518 22.5 16.5505 21.7987 16.5505 20.9336C16.5505 20.0684 17.2518 19.3672 18.1169 19.3672C18.982 19.3672 19.6833 20.0685 19.6833 20.9336C19.6833 21.7987 18.982 22.5 18.1169 22.5Z" stroke="white"/>
</svg>