<svg width="64" height="64" viewBox="0 0 64 64" fill="none" xmlns="http://www.w3.org/2000/svg">
<path d="M32.0007 64C49.6738 64 64.0007 49.6731 64.0007 32C64.0007 14.3269 49.6738 0 32.0007 0C14.3276 0 0.000732422 14.3269 0.000732422 32C0.000732422 49.6731 14.3276 64 32.0007 64Z" fill="#FF8A00"/>
<path opacity="0.1" d="M31.9714 61.8676C48.5995 61.3529 61.662 47.456 61.1473 30.828C60.6326 14.1999 46.7358 1.13747 30.1077 1.65212C13.4797 2.16678 0.417208 16.0637 0.931861 32.6917C1.44651 49.3197 15.3434 62.3822 31.9714 61.8676Z" fill="black"/>
<path d="M60.1825 33.5475C61.0383 17.9833 49.1148 4.67231 33.5507 3.81647C17.9865 2.96063 4.67549 14.8841 3.81965 30.4482C2.96381 46.0124 14.8873 59.3234 30.4514 60.1793C46.0156 61.0351 59.3266 49.1117 60.1825 33.5475Z" fill="white"/>
<g opacity="0.5">
<path opacity="0.5" d="M59.5914 26.0191C46.7347 33.8117 25.6269 46.5812 13.8179 53.588C10.5 50.794 7.8588 47.2578 6.11255 43.2197L45.1412 7.00684C52.41 10.8486 57.8015 17.7463 59.5914 26.0191Z" fill="#EBEBEB"/>
<path opacity="0.5" d="M60.137 34.2483C59.875 37.5443 59.0456 40.6876 57.7577 43.5689L24.6226 59.2415C22.9637 58.8049 21.3703 58.1937 19.8423 57.4734C30.2106 51.4707 48.6554 40.8622 60.137 34.2483Z" fill="#EBEBEB"/>
</g>
<path d="M32.4149 11.5911L33.3317 33.9649L30.6687 33.9212L31.6728 11.5911H32.4149Z" fill="#FF8A00"/>
<path d="M16.4154 31.8036L33.8124 30.6467L33.7687 33.3316L16.3936 32.5239L16.4154 31.8036Z" fill="#455A64"/>
<path d="M32.9178 32.0003C32.9178 32.5023 32.5031 32.9171 32.001 32.9171C31.499 32.9171 31.0842 32.5023 31.0842 32.0003C31.0842 31.4982 31.499 31.0835 32.001 31.0835C32.5031 31.0835 32.9178 31.4982 32.9178 32.0003Z" fill="#C7C7C7"/>
</svg>
