<svg width="21" height="22" viewBox="0 0 21 22" fill="none" xmlns="http://www.w3.org/2000/svg">
<circle cx="10.8365" cy="11.1092" r="10.1636" fill="#FD3939"/>
<path d="M9.4839 7.96171H11.7259C11.7259 7.66441 11.6078 7.37928 11.3975 7.16906C11.1873 6.95883 10.9022 6.84073 10.6049 6.84073C10.3076 6.84073 10.0225 6.95883 9.81223 7.16906C9.60201 7.37928 9.4839 7.66441 9.4839 7.96171ZM8.64317 7.96171C8.64317 7.70409 8.69391 7.449 8.7925 7.21099C8.89108 6.97299 9.03558 6.75673 9.21774 6.57457C9.3999 6.39241 9.61616 6.24791 9.85417 6.14933C10.0922 6.05074 10.3473 6 10.6049 6C10.8625 6 11.1176 6.05074 11.3556 6.14933C11.5936 6.24791 11.8099 6.39241 11.992 6.57457C12.1742 6.75673 12.3187 6.97299 12.4173 7.21099C12.5158 7.449 12.5666 7.70409 12.5666 7.96171H15.7894C15.9009 7.96171 16.0078 8.006 16.0866 8.08483C16.1655 8.16366 16.2098 8.27059 16.2098 8.38207C16.2098 8.49356 16.1655 8.60048 16.0866 8.67932C16.0078 8.75815 15.9009 8.80244 15.7894 8.80244H15.0495L14.3938 15.5905C14.3435 16.1106 14.1012 16.5934 13.7143 16.9445C13.3273 17.2957 12.8235 17.4902 12.3009 17.49H8.90884C8.38639 17.4901 7.88265 17.2955 7.49582 16.9444C7.109 16.5932 6.86684 16.1105 6.81654 15.5905L6.16021 8.80244H5.42037C5.30888 8.80244 5.20196 8.75815 5.12312 8.67932C5.04429 8.60048 5 8.49356 5 8.38207C5 8.27059 5.04429 8.16366 5.12312 8.08483C5.20196 8.006 5.30888 7.96171 5.42037 7.96171H8.64317ZM9.76415 10.624C9.76415 10.5125 9.71986 10.4056 9.64102 10.3268C9.56219 10.2479 9.45527 10.2037 9.34378 10.2037C9.23229 10.2037 9.12537 10.2479 9.04654 10.3268C8.9677 10.4056 8.92342 10.5125 8.92342 10.624V14.8277C8.92342 14.9392 8.9677 15.0461 9.04654 15.1249C9.12537 15.2038 9.23229 15.248 9.34378 15.248C9.45527 15.248 9.56219 15.2038 9.64102 15.1249C9.71986 15.0461 9.76415 14.9392 9.76415 14.8277V10.624ZM11.866 10.2037C11.9775 10.2037 12.0844 10.2479 12.1632 10.3268C12.2421 10.4056 12.2863 10.5125 12.2863 10.624V14.8277C12.2863 14.9392 12.2421 15.0461 12.1632 15.1249C12.0844 15.2038 11.9775 15.248 11.866 15.248C11.7545 15.248 11.6476 15.2038 11.5687 15.1249C11.4899 15.0461 11.4456 14.9392 11.4456 14.8277V10.624C11.4456 10.5125 11.4899 10.4056 11.5687 10.3268C11.6476 10.2479 11.7545 10.2037 11.866 10.2037ZM7.65335 15.5098C7.68358 15.8218 7.82892 16.1113 8.06103 16.322C8.29314 16.5327 8.59539 16.6493 8.90884 16.6493H12.3009C12.6144 16.6493 12.9166 16.5327 13.1487 16.322C13.3808 16.1113 13.5262 15.8218 13.5564 15.5098L14.2055 8.80244H7.0043L7.65335 15.5098Z" fill="white"/>
</svg>
