<svg width="25" height="25" viewBox="0 0 25 25" fill="none" xmlns="http://www.w3.org/2000/svg">
<path d="M15.7272 0.0685606C14.4337 0.246502 13.3319 0.711881 12.2848 1.53315C9.95784 3.35363 9.01338 6.47444 9.9373 9.29413C10.3206 10.485 11.0871 11.6416 12.011 12.4355C12.9418 13.2362 14.0642 13.7974 15.2071 14.0301C16.3021 14.2628 18.4032 14.2628 19.3819 14.0301L19.6967 13.9548L20.6822 14.9335C21.6267 15.8712 21.6814 15.9122 21.8594 15.9122C22.0579 15.9122 22.2221 15.8095 22.3111 15.6316C22.3453 15.5632 22.3658 15.0499 22.3658 14.078V12.634L22.8449 12.1618C23.5361 11.4774 24.0631 10.7245 24.4053 9.93063C25.6851 6.96722 24.816 3.50419 22.2906 1.5263C21.2229 0.691342 20.1347 0.239645 18.8002 0.0548592C18.1568 -0.0204239 16.3706 -0.0204105 15.7272 0.0685606ZM19.0808 1.08144C20.9834 1.48524 22.5369 2.6761 23.4061 4.39392C23.5977 4.77718 23.8578 5.5779 23.9468 6.05013C24.0289 6.50182 24.0289 7.71321 23.9468 8.15122C23.673 9.62266 22.9613 10.8203 21.743 11.8743L21.4282 12.1481L21.4145 13.2089L21.4008 14.2765L20.7233 13.6058L20.0457 12.9351L19.8336 12.9625C19.7172 12.9693 19.4024 13.0378 19.1355 13.0993C18.6975 13.202 18.5264 13.2089 17.3766 13.2089C15.6657 13.2157 15.0565 13.0993 14.0026 12.5792C12.2711 11.7306 11.0802 10.1839 10.6833 8.25388C10.5738 7.74059 10.5601 6.5908 10.6559 6.05698C10.9981 4.14753 12.2369 2.49815 13.9752 1.61529C14.3995 1.40313 15.1934 1.14988 15.6383 1.08144C15.8367 1.05407 16.0558 1.01988 16.1242 1.00619C16.4253 0.944593 18.7454 1.01301 19.0808 1.08144Z" fill="black"/>
<path d="M16.877 3.49741C16.4595 3.62744 16.2815 3.73008 15.9872 4.02437C15.6245 4.38709 15.4192 4.83196 15.3987 5.30419C15.3781 5.63954 15.385 5.67375 15.515 5.81063C15.693 5.99542 15.953 6.00913 16.1583 5.83118C16.2678 5.73537 16.3089 5.65324 16.3568 5.38633C16.4184 4.98938 16.5827 4.72932 16.8701 4.56506C17.315 4.29815 17.8419 4.36658 18.191 4.72246C18.7796 5.33157 18.5537 6.22812 17.7188 6.53609C17.0481 6.78247 16.9591 6.9604 16.9591 7.99383C16.9591 8.44553 16.9796 8.78089 17.0138 8.85617C17.0481 8.92461 17.1439 9.01357 17.2397 9.05464C17.3902 9.12992 17.4382 9.12993 17.5887 9.06834C17.8693 8.95884 17.9378 8.77404 17.9378 8.06227C17.9378 7.61742 17.9514 7.46687 17.9994 7.46687C18.1636 7.46687 18.6701 7.16572 18.8959 6.93303C19.9088 5.8996 19.6008 4.22969 18.2936 3.62058C17.8214 3.41527 17.3218 3.36737 16.877 3.49741Z" fill="black"/>
<path d="M17.3083 10.088C17.1372 10.1223 16.9524 10.3755 16.9524 10.574C16.9524 10.9504 17.4588 11.1831 17.7258 10.923C18.1022 10.5808 17.8147 9.99906 17.3083 10.088Z" fill="black"/>
<path d="M2.71019 8.56867C2.52541 8.60974 2.16268 8.7466 1.90946 8.86295C1.5262 9.04773 1.37563 9.15723 1.02659 9.50627C0.657023 9.86899 0.568052 9.99903 0.376423 10.396C-0.00683577 11.1967 8.1378e-06 11.0735 8.1378e-06 15.6726C8.1378e-06 20.2717 -0.00683577 20.1486 0.376423 20.9493C0.568052 21.3462 0.657023 21.4763 1.02659 21.839C1.37563 22.188 1.53304 22.2975 1.90946 22.4755C2.61438 22.8245 2.85392 22.8519 4.7223 22.8519H6.32378L7.25455 23.7827C8.47961 25.0214 8.58911 25.0898 8.90393 24.9461C9.15031 24.8366 9.18453 24.6929 9.18453 23.7347V22.8519H11.7236C14.6323 22.8519 14.7213 22.845 15.4878 22.4755C15.8779 22.2907 16.0216 22.188 16.3706 21.8321C16.7265 21.4831 16.8292 21.3394 17.014 20.9493C17.3767 20.2033 17.3972 20.0185 17.3835 17.7874L17.3698 15.8642L17.2056 15.7206C17.0687 15.5974 17.014 15.5768 16.8634 15.6042C16.7539 15.6179 16.6375 15.6863 16.5554 15.7821L16.4185 15.9259V17.8216C16.4185 19.9022 16.4117 20.0117 16.1174 20.5797C15.9326 20.9493 15.4946 21.3942 15.1456 21.5721C14.5433 21.8801 14.7555 21.8595 11.4978 21.8869L8.50698 21.9143L8.37695 22.0512C8.24691 22.1812 8.24007 22.2154 8.2127 22.7492L8.18532 23.3104L7.54884 22.6739C7.1998 22.3181 6.87129 22.0032 6.81654 21.9622C6.74126 21.9074 6.37853 21.8937 4.93446 21.8937C3.51093 21.8937 3.09345 21.88 2.8676 21.8184C1.96421 21.5858 1.28666 20.9082 1.05397 20.0048C0.944467 19.5873 0.944467 11.7921 1.05397 11.3815C1.28666 10.4781 1.96421 9.80055 2.8676 9.56786C3.1003 9.50626 3.60675 9.4926 5.82417 9.4926H8.50014L8.65755 9.34887C8.78758 9.23252 8.8218 9.17092 8.8218 8.99982C8.8218 8.82873 8.79443 8.76713 8.65755 8.65078L8.50014 8.50705L5.77627 8.5139C3.57253 8.50021 2.99079 8.51392 2.71019 8.56867Z" fill="black"/>
<path d="M2.95658 12.4422C2.64176 12.5723 2.55964 12.9829 2.79917 13.2156L2.92921 13.3525L6.66598 13.3662L10.3959 13.373L10.5602 13.2293C10.6902 13.1129 10.7244 13.0514 10.7244 12.8803C10.7244 12.7092 10.697 12.6476 10.5602 12.5312L10.4028 12.3875L6.72758 12.3944C4.70862 12.408 3.01133 12.4217 2.95658 12.4422Z" fill="black"/>
<path d="M2.95658 15.1798C2.64176 15.3099 2.55964 15.7205 2.79917 15.9532L2.92921 16.0901L8.25377 16.1037L13.5715 16.1106L13.7357 15.9669C13.8658 15.8505 13.9 15.789 13.9 15.6179C13.9 15.4468 13.8726 15.3852 13.7357 15.2688L13.5783 15.1251L8.31536 15.1319C5.42039 15.1388 3.01133 15.1593 2.95658 15.1798Z" fill="black"/>
<path d="M2.95658 17.9174C2.64176 18.0474 2.55964 18.4581 2.79917 18.6908L2.92921 18.8276L7.26824 18.8345C10.656 18.8413 11.6278 18.8345 11.7236 18.7866C11.7921 18.7523 11.8879 18.6428 11.9358 18.5402C12.0248 18.3622 12.0248 18.3554 11.9358 18.1775C11.8879 18.0748 11.7921 17.9653 11.7236 17.9311C11.6278 17.8832 10.6423 17.8695 7.32984 17.8695C4.97553 17.8763 3.01133 17.8968 2.95658 17.9174Z" fill="black"/>
<path d="M13.2635 17.9174C12.9486 18.0475 12.8665 18.4581 13.1061 18.6908C13.4003 18.9919 13.9 18.7866 13.9 18.3623C13.8931 18.0338 13.5441 17.7942 13.2635 17.9174Z" fill="black"/>
</svg>
