<svg width="20" height="23" viewBox="0 0 20 23" fill="none" xmlns="http://www.w3.org/2000/svg">
<path d="M9.42761 0C8.88889 0.0676471 8.48485 0.135294 8.08081 0.202941C6.73401 0.541176 5.52189 1.21765 4.44444 2.3C3.09764 3.65294 2.28956 5.41176 2.15488 7.37353C2.15488 7.84706 2.08754 7.84706 2.0202 7.84706C1.14478 8.05 0.538721 8.45588 0.26936 9.13235C0 9.74118 0 9.74118 0 12.5147C0 14.8147 0 15.0853 0.0673401 15.3559C0.3367 16.3029 0.942761 16.8441 1.88552 17.1147C2.08754 17.1824 2.42424 17.1824 3.09764 17.1824H4.0404L4.17508 17.0471C4.24242 16.9794 4.30976 16.8441 4.30976 16.7765C4.3771 16.5735 4.3771 8.38824 4.30976 8.18529C4.30976 8.11765 4.24242 7.98235 4.17508 7.91471C4.0404 7.84706 4.0404 7.84706 3.56902 7.84706H3.09764V7.50882C3.16498 6.22353 3.63636 4.87059 4.3771 3.78824C4.91582 3.04412 5.85859 2.23235 6.66667 1.75882C7.60943 1.21765 8.95623 0.879412 10.0337 0.879412C11.1111 0.879412 12.4579 1.21765 13.4007 1.75882C14.2088 2.23235 15.1515 3.04412 15.6902 3.78824C16.4983 4.87059 16.9024 6.22353 16.9697 7.50882V7.84706H16.4983C16.0269 7.84706 15.9596 7.84706 15.8923 7.98235C15.8249 8.05 15.7576 8.18529 15.7576 8.25294C15.7576 8.38824 15.7576 10.35 15.7576 12.65V16.8441L15.8923 16.9794C16.0269 17.1147 16.0269 17.1147 16.4983 17.1147H16.9697V17.3176C16.835 18.6029 16.5657 19.4147 15.9596 19.9559C15.3535 20.4971 14.4108 20.8353 13.064 20.9029H12.5926V20.6324C12.5253 20.2941 12.4579 20.1588 12.2559 19.9559C11.9865 19.7529 11.7845 19.6853 10.1684 19.7529C8.88889 19.7529 8.75421 19.7529 8.61953 19.8206C8.41751 19.9559 8.28283 20.0235 8.21549 20.2265C8.08081 20.4971 8.08081 20.6324 8.08081 21.4441C8.08081 22.3912 8.08081 22.5265 8.28283 22.7294C8.55219 23 8.61953 23 10.303 23C11.8519 23 11.8519 23 12.0539 22.8647C12.3232 22.7294 12.5253 22.4588 12.5253 22.1206V21.85H12.7273C12.862 21.85 13.1987 21.7824 13.468 21.7824C15.4209 21.5794 16.5657 20.9029 17.2391 19.6853C17.5084 19.1441 17.6431 18.5353 17.7778 17.6559L17.8451 17.1147L18.1818 17.0471C19.0572 16.8441 19.6633 16.2353 19.9327 15.3559C20 15.0853 20 14.8147 20 12.5147C20 10.1471 20 9.87647 19.9327 9.60588C19.6633 8.65882 19.0572 8.11765 17.9798 7.84706C17.8451 7.84706 17.8451 7.77941 17.8451 7.37353C17.5758 3.72059 14.8822 0.676471 11.2458 0.0676471C10.9091 0 9.69697 0 9.42761 0ZM3.43434 12.5147V16.3706H2.96296C1.61616 16.3706 1.0101 15.9647 0.875421 15.0176C0.808081 14.6794 0.808081 10.35 0.875421 10.0118C0.942761 9.47059 1.27946 9.06471 1.6835 8.86176C1.95286 8.72647 2.28956 8.65882 2.89562 8.65882H3.367V12.5147H3.43434ZM18.1818 8.79412C18.6532 8.99706 18.9899 9.33529 19.1246 9.74118C19.1919 9.94412 19.1919 10.2147 19.1919 12.4471C19.1919 14.8147 19.1919 14.8824 19.0572 15.2206C18.9899 15.4912 18.9226 15.5588 18.7205 15.7618C18.3165 16.1676 18.1145 16.2353 17.2391 16.2353H16.5657V12.4471V8.65882H17.2391C17.7778 8.72647 18.0471 8.79412 18.1818 8.79412ZM11.6498 21.4441V22.1882H10.303H8.95623V21.4441V20.7H10.303H11.6498V21.4441Z" fill="black"/>
</svg>
