<svg width="21" height="25" viewBox="0 0 21 25" fill="none" xmlns="http://www.w3.org/2000/svg">
<path d="M8.24535 0.784521C7.26266 1.04555 6.44887 1.81326 6.14178 2.77292C6.04198 3.08768 6.01895 3.33336 5.98824 4.31605L5.96521 5.49065H4.10732C2.1573 5.49065 2.04982 5.49832 1.8886 5.75167C1.75041 5.95127 0 19.9776 0 20.8374C0 21.8278 0.184254 22.3038 0.752369 22.8412C0.921268 22.9947 1.16694 23.179 1.29745 23.2481C1.85789 23.5321 1.79647 23.5321 9.18964 23.5321H16.0992L16.5598 23.9851C17.1433 24.5609 17.412 24.6914 18.0185 24.6914C18.5943 24.6837 18.9551 24.5379 19.3159 24.1463C19.6307 23.8085 19.7765 23.4938 19.8303 23.0485C19.861 22.8182 19.9224 22.6185 20.0606 22.4036C20.5903 21.5284 20.6057 21.6589 19.5155 13.045C18.886 8.00877 18.5943 5.84379 18.5252 5.75167C18.3639 5.50599 18.2565 5.49065 16.3064 5.49065H14.4485L14.4255 4.31605C14.3948 3.33336 14.3718 3.09536 14.272 2.77292C13.9649 1.80559 13.1434 1.03786 12.1531 0.776836C11.6924 0.661678 8.69063 0.661686 8.24535 0.784521ZM12.1914 2.0666C12.5446 2.23549 12.8363 2.5349 13.0359 2.90341C13.1511 3.12605 13.1664 3.22588 13.1818 4.31605L13.1972 5.49065H10.2107H7.2166V4.43121C7.2166 3.27194 7.24731 3.08001 7.51601 2.69614C7.754 2.34299 8.03806 2.12034 8.41424 1.98982C8.68295 1.8977 8.87488 1.88236 10.2952 1.89772L11.8767 1.90537L12.1914 2.0666ZM5.98056 7.60189C5.98056 8.28516 6.00359 8.59226 6.05733 8.73045C6.14178 8.93006 6.38746 9.09895 6.60242 9.09895C6.81738 9.09895 7.05537 8.93006 7.1475 8.73045C7.20124 8.59226 7.22427 8.28516 7.22427 7.60189V6.67293H10.2107H13.1972V7.60189C13.1972 8.28516 13.2202 8.59226 13.2739 8.73045C13.3584 8.93006 13.6041 9.09895 13.819 9.09895C14.034 9.09895 14.272 8.93006 14.3641 8.73045C14.4178 8.59226 14.4409 8.28516 14.4409 7.60189V6.67293H15.961H17.4811L17.5118 6.79578C17.5885 7.17964 19.2315 20.5994 19.2315 20.8912C19.2315 21.6052 19.2698 21.6205 18.2257 20.5764C17.4964 19.8624 17.22 19.6091 16.982 19.5016C16.5675 19.3097 16.1375 19.2713 15.7383 19.3787L15.4312 19.4632L15.1318 19.1715L14.8324 18.872L15.055 18.5726C15.3698 18.1581 15.7537 17.3903 15.9226 16.8453C16.3525 15.4864 16.2527 13.8358 15.6539 12.5691C14.986 11.1104 13.7499 9.95878 12.2912 9.42905C10.0418 8.61526 7.61581 9.13732 5.94218 10.811C5.16678 11.5864 4.64472 12.5 4.32228 13.6669C4.23015 14.0201 4.20712 14.2504 4.20712 15.0488C4.20712 15.9086 4.22248 16.0622 4.36067 16.5535C4.96717 18.8337 6.79435 20.538 9.09752 20.9679C9.67331 21.0754 10.6867 21.0754 11.2625 20.9679C12.107 20.8067 12.9822 20.4459 13.6578 19.9699L13.9879 19.7396L14.2873 20.0313L14.5944 20.3307L14.5176 20.5226C14.3487 20.9295 14.4869 21.9123 14.748 22.1272C14.794 22.1656 14.8324 22.2193 14.8324 22.2424C14.8324 22.2731 12.1607 22.2884 8.41424 22.2808L1.99608 22.2654L1.75809 22.1042C1.62757 22.0197 1.451 21.8508 1.36655 21.7203C1.08249 21.2827 1.08249 21.2597 2.01911 13.7437C2.4951 9.9895 2.88664 6.86486 2.90199 6.78809L2.92502 6.66525H4.45279H5.97289V7.60189H5.98056ZM11.3853 10.4578C12.0916 10.6344 12.9054 11.0797 13.4275 11.571C14.1415 12.2389 14.5023 12.8147 14.8094 13.7283C14.9552 14.1659 14.9706 14.2811 14.9706 15.0795C14.9783 15.8319 14.9629 16.0161 14.8478 16.4C14.3795 18.0199 13.1588 19.2406 11.5389 19.7396C11.0859 19.8778 10.9401 19.8931 10.2107 19.8931C9.48138 19.8931 9.33551 19.8778 8.89791 19.7473C7.26266 19.2483 6.04198 18.0276 5.58135 16.423C5.41245 15.8319 5.37406 14.7955 5.50457 14.1736C5.78863 12.738 6.74061 11.4942 8.05341 10.8263C9.08216 10.3043 10.2568 10.1738 11.3853 10.4578ZM17.5501 21.6051L18.6096 22.6646V22.9103C18.6019 23.2941 18.3639 23.5321 17.9801 23.5321C17.8189 23.5321 17.6807 23.417 16.7133 22.442C15.746 21.4746 15.6232 21.3364 15.6232 21.1752C15.6232 20.7837 15.8612 20.5457 16.245 20.5457H16.4907L17.5501 21.6051Z" fill="black"/>
<path d="M7.37776 13.4903C7.10905 13.759 7.17047 14.2196 7.49292 14.4115C7.63111 14.496 7.92284 14.5036 10.203 14.5036C12.4831 14.5036 12.7672 14.496 12.913 14.4115C13.2432 14.2196 13.2969 13.759 13.0282 13.4903L12.867 13.329H10.203H7.54666L7.37776 13.4903Z" fill="black"/>
<path d="M7.57748 15.7704C7.48536 15.8165 7.35484 15.9087 7.30878 15.9777C7.19362 16.1466 7.19362 16.4767 7.30878 16.6456C7.49303 16.9143 7.66961 16.9297 9.30486 16.9297C10.9401 16.9297 11.1167 16.9067 11.3009 16.6456C11.3547 16.5689 11.3931 16.423 11.3931 16.3155C11.3931 16.0622 11.2626 15.8779 11.0246 15.7704C10.7559 15.663 7.83083 15.663 7.57748 15.7704Z" fill="black"/>
</svg>
