<svg width="26" height="26" viewBox="0 0 26 26" fill="none" xmlns="http://www.w3.org/2000/svg">
<path d="M14.9903 0.10405C14.7773 0.175079 14.4576 0.281624 14.2445 0.423683C13.7473 0.707801 13.4277 0.77883 12.895 0.77883C11.723 0.77883 10.8706 1.24052 10.2314 2.23494C9.91173 2.73214 9.66313 2.94523 9.23695 3.19383C8.77526 3.44244 8.42011 3.76207 8.17151 4.11722C7.81636 4.61442 7.74533 4.89854 7.70982 5.67987L7.6743 6.39016L7.35467 6.99391C6.75092 8.20141 6.75092 8.87619 7.35467 10.0837L7.6743 10.6874L7.70982 11.3622C7.74533 11.8594 7.78085 12.108 7.85188 12.3211C8.06496 12.9249 8.56217 13.4931 9.09489 13.7772C9.69864 14.1324 9.8407 14.2389 10.1958 14.7361C10.9061 15.8016 11.5809 16.1922 12.8595 16.2633C13.6053 16.2988 13.6408 16.3343 14.3156 16.6539C14.8838 16.938 15.381 17.0446 15.9492 17.0091C16.4464 16.9736 16.695 16.9025 17.3698 16.5829L17.9026 16.3343L18.6128 16.2988C19.1811 16.2633 19.3942 16.2277 19.6783 16.1212C20.3531 15.8726 20.8148 15.4819 21.2765 14.8072C21.5961 14.31 21.7737 14.1324 22.2354 13.8838C22.9101 13.4931 23.4429 12.8894 23.6559 12.2501C23.727 12.037 23.7625 11.6819 23.798 11.2912C23.8335 10.6164 23.869 10.5099 24.2242 9.90612C24.6859 9.1248 24.6859 8.02384 24.2242 7.24252C23.869 6.63876 23.8335 6.53222 23.798 5.85744C23.727 4.86303 23.5494 4.36582 22.9812 3.79758C22.8391 3.65553 22.5195 3.40692 22.2709 3.26486C21.7026 2.94523 21.6316 2.83869 21.2054 2.23494C20.5662 1.27604 19.8914 0.885374 18.5773 0.814345L17.867 0.77883L17.2988 0.494712C16.4109 -0.00249453 15.7362 -0.109039 14.9903 0.10405ZM16.1623 1.02743C16.2689 1.06295 16.5885 1.20501 16.8726 1.31155C17.5119 1.63118 17.867 1.70221 18.4353 1.70221C19.4297 1.70221 19.9979 2.02185 20.4596 2.83869C20.7082 3.26486 21.1699 3.69104 21.6316 3.97516C22.0578 4.22376 22.4129 4.57891 22.5905 4.93406C22.697 5.14714 22.7326 5.32472 22.7681 5.89295C22.8036 6.63876 22.8391 6.78082 23.2298 7.49112L23.4784 7.98832V8.52105V9.01825L23.2298 9.51546C22.8391 10.2258 22.8036 10.3678 22.7681 11.1136C22.7326 11.6819 22.697 11.8239 22.5905 12.0725C22.4129 12.4632 22.0578 12.8183 21.6316 13.0314C21.1344 13.28 20.7082 13.7062 20.4596 14.1679C19.9979 14.9847 19.4297 15.3044 18.4353 15.3044C17.8315 15.3044 17.4764 15.4109 16.8726 15.695C15.9492 16.1567 15.452 16.1567 14.5642 15.695C13.9604 15.3754 13.5698 15.2689 12.966 15.2689C12.0071 15.2689 11.5099 14.9847 10.9772 14.1679C10.622 13.5997 10.3379 13.3511 9.76967 12.9959C8.95283 12.4987 8.73974 12.1436 8.66871 11.1847C8.6332 10.4388 8.52666 10.0482 8.24254 9.55097C7.95842 9.05377 7.88739 8.91171 7.88739 8.45002C7.88739 7.98832 7.9229 7.84627 8.24254 7.34906C8.52666 6.85185 8.6332 6.46119 8.66871 5.71538C8.73974 4.75648 8.95283 4.40134 9.76967 3.90413C10.3024 3.5845 10.6931 3.22935 10.9772 2.73214C11.0837 2.55457 11.2968 2.27045 11.4389 2.12839C11.8295 1.77324 12.1492 1.6667 13.0015 1.63118C13.7828 1.59567 13.9959 1.52464 14.5642 1.24052C15.1679 0.991919 15.7006 0.885374 16.1623 1.02743Z" fill="black"/>
<path d="M18.3999 3.47784C18.2579 3.54887 17.7607 4.33019 15.3102 8.23681C12.1138 13.3509 12.2204 13.1734 12.5045 13.422C12.6821 13.5995 12.9662 13.5995 13.1438 13.422C13.2148 13.3509 14.5644 11.2201 16.1625 8.69851C19.2878 3.65541 19.2168 3.83298 18.9327 3.58438C18.7906 3.44232 18.613 3.40681 18.3999 3.47784Z" fill="black"/>
<path d="M12.5753 3.72652C12.0071 3.90409 11.5454 4.33027 11.2258 4.93402C10.622 6.17703 11.0837 7.73968 12.2557 8.30792C12.6108 8.48549 12.6819 8.48549 13.108 8.48549C13.5342 8.48549 13.6052 8.44998 13.8894 8.30792C14.7062 7.91726 15.2034 7.02939 15.2034 6.07049C15.2034 4.75644 14.3511 3.72652 13.1791 3.65549C12.9305 3.65549 12.7529 3.691 12.5753 3.72652ZM13.4277 4.68541C13.8894 4.82747 14.28 5.43122 14.28 6.07049C14.28 6.70976 14.0314 7.20696 13.5342 7.45557C13.3211 7.56211 13.2146 7.59762 13.0015 7.56211C12.0071 7.42005 11.5809 5.89292 12.3267 5.04056C12.6108 4.68541 12.966 4.54336 13.4277 4.68541Z" fill="black"/>
<path d="M17.7605 8.59211C17.0857 8.8052 16.553 9.37344 16.3044 10.1192C16.1623 10.5099 16.1623 11.3978 16.3399 11.824C16.482 12.2501 16.7306 12.5698 17.0502 12.8539C17.4409 13.209 17.796 13.3156 18.3642 13.3156C18.7904 13.3156 18.8614 13.3156 19.1456 13.1735C20.1045 12.7118 20.6372 11.5043 20.4241 10.3678C20.282 9.62204 19.6783 8.87623 19.0745 8.66314C18.6484 8.48557 18.1156 8.45005 17.7605 8.59211ZM18.7194 9.55101C18.968 9.65755 19.2166 9.94167 19.3586 10.2258C19.5362 10.6165 19.5362 11.2202 19.3586 11.6109C19.2166 11.9305 19.0035 12.1436 18.7194 12.2856C18.1867 12.5342 17.6184 12.2501 17.2988 11.6109C17.1212 11.2557 17.1212 10.6165 17.2988 10.2258C17.5119 9.7641 17.9381 9.44447 18.3287 9.44447C18.4353 9.44447 18.6128 9.5155 18.7194 9.55101Z" fill="black"/>
<path d="M0.35835 16.1923L0.180776 16.3343L0.0742319 20.7026C0.00320236 24.0765 -0.0323124 25.071 0.0387171 25.1775C0.145261 25.4261 0.216291 25.4616 2.38269 25.5326C4.37152 25.6037 4.40703 25.6037 4.54909 25.4971C4.72666 25.3551 4.79769 25.213 4.79769 24.9289V24.7158L5.47247 24.3607C6.5024 23.7924 6.2538 23.7924 10.0539 24.8579C11.7586 25.3196 13.2857 25.7457 13.4988 25.7813C14.5287 25.9233 15.8428 25.7813 16.8372 25.3551C16.9793 25.284 18.5419 24.3251 20.2821 23.1887C22.0579 22.0522 23.9757 20.8092 24.6149 20.4185C25.8224 19.6372 26 19.4951 26 19.2465C26 18.9269 25.4318 18.2876 24.9346 18.039C24.4018 17.7549 23.7626 17.6839 23.1943 17.8259C23.0523 17.8615 22.0223 18.3232 20.9214 18.8559C19.8204 19.3886 18.9326 19.8148 18.8971 19.8148C18.8615 19.8148 18.826 19.7082 18.755 19.6017C18.5419 19.2465 17.9737 18.7493 17.5475 18.5362C16.9793 18.2521 16.5886 18.2166 14.3867 18.1456C12.9306 18.1101 12.3268 18.0746 12.0427 18.0035C11.8651 17.968 11.3324 17.7549 10.9062 17.5418C9.6277 16.9381 8.91741 16.7605 7.67439 16.8315C6.75101 16.867 6.07622 17.0091 5.08181 17.4708C5.0463 17.5063 5.01078 17.3643 5.01078 17.0091C5.01078 16.5829 5.01078 16.5119 4.90424 16.3698C4.79769 16.2278 4.76218 16.2278 4.01637 16.1923C3.59019 16.1568 2.63129 16.1568 1.921 16.1212L0.571438 16.0857L0.35835 16.1923ZM3.3771 17.1157L4.05188 17.1512L4.01637 17.897C3.98085 18.2876 3.94534 19.9923 3.90983 21.626C3.87431 23.2597 3.8388 24.6093 3.8388 24.6093C3.80328 24.6093 0.997615 24.5382 0.997615 24.5027C0.997615 24.4672 1.17519 17.1867 1.2107 17.1157C1.17519 17.0446 1.77894 17.0446 3.3771 17.1157ZM8.84638 17.8259C9.41461 17.9325 9.76976 18.0746 10.5511 18.4297C11.7231 18.9979 12.0072 19.0334 14.7773 19.1045C15.6297 19.14 16.4465 19.1755 16.5886 19.1755C17.2279 19.2821 17.8316 19.7437 18.0802 20.312C18.3288 20.8092 18.3288 20.8092 17.8671 20.8092C17.654 20.8092 16.4465 20.7737 15.2035 20.7382C12.682 20.6671 12.7175 20.6671 12.6109 20.9868C12.5044 21.2709 12.682 21.5905 12.9661 21.626C13.0371 21.626 14.4222 21.6971 16.0204 21.7326C18.5774 21.8036 18.9326 21.8036 19.0391 21.7326C19.2522 21.626 19.3232 21.4129 19.2877 21.0223L19.2522 20.7026L21.3121 19.7082C23.1943 18.8204 23.4074 18.7138 23.7271 18.7138C24.0822 18.6783 24.5439 18.8204 24.7215 18.9979C24.7925 19.1045 24.7925 19.1045 24.4729 19.3176C24.2953 19.4596 22.413 20.6316 20.3532 21.9812C16.269 24.6448 16.34 24.5737 15.3101 24.7513C14.8129 24.8224 14.067 24.8579 13.6054 24.7868C13.4278 24.7513 11.9362 24.3607 10.267 23.899C8.63329 23.4373 7.10615 23.0466 6.89306 23.0111C6.39586 22.9401 5.86314 23.0466 5.2949 23.3307C5.08181 23.4373 4.86872 23.5438 4.83321 23.5083C4.79769 23.4728 4.93975 18.6428 4.97527 18.6073C5.0463 18.5362 5.79211 18.1456 6.07623 18.039C6.92858 17.7549 8.02954 17.6484 8.84638 17.8259Z" fill="black"/>
</svg>
