<svg width="21" height="21" viewBox="0 0 21 21" fill="none" xmlns="http://www.w3.org/2000/svg">
<path d="M11.44 18.8722C12.134 18.8722 13.1173 18.8722 14.2741 18.8722C18.0914 18.8722 18.0914 18.8722 18.3806 18.7565C19.1903 18.4673 19.8266 17.7732 19.9423 16.9635C20.0001 16.79 20.0001 14.4186 20.0001 9.90716C20.0001 4.29681 20.0001 3.08219 19.9423 2.85084C19.7687 1.92542 19.0168 1.23135 18.1493 1.05784C17.9757 1 16.1827 1 12.5967 1C8.20099 1 7.21774 1 7.04422 1.05784C6.17664 1.28919 5.54041 1.92542 5.30906 2.73516C5.25122 2.90868 5.25122 3.77626 5.25122 7.82497V11.411V11.758" stroke="black" stroke-width="1.25" stroke-miterlimit="10"/>
<path d="M11.2085 18.8722C11.2663 18.8722 11.382 18.8722 11.4399 18.8722" stroke="black" stroke-width="1.25" stroke-miterlimit="10"/>
<path d="M9.3578 4.00773C9.76267 4.29692 9.76267 4.87531 9.3578 5.10666C9.24212 5.1645 9.12644 5.1645 8.66373 5.1645C8.14318 5.1645 8.08535 5.1645 7.96967 5.04883C7.5648 4.81747 7.5648 4.23908 7.96967 4.00773C8.08535 3.94989 8.20102 3.94989 8.66373 3.94989C9.18428 3.94989 9.24212 3.94989 9.3578 4.00773Z" fill="black"/>
<path d="M17.2236 4.00773C17.3971 4.12341 17.5707 4.29692 17.5707 4.58612C17.5707 4.81747 17.455 4.99099 17.2236 5.10666C17.108 5.1645 16.9923 5.22234 14.0425 5.22234C11.2084 5.22234 11.0349 5.22234 10.9192 5.1645C10.5143 4.93315 10.5143 4.29692 10.8614 4.06557C10.977 4.00773 11.0927 3.94989 14.0425 3.94989C16.7031 3.94989 17.108 3.94989 17.2236 4.00773Z" fill="black"/>
<path d="M9.29988 7.59354C9.64692 7.76706 9.76259 8.22977 9.53124 8.51896C9.35772 8.75032 9.24204 8.80816 8.66366 8.80816C8.08527 8.80816 7.91175 8.75032 7.79608 8.5768C7.56472 8.28761 7.62256 7.88274 7.91175 7.70922C8.08527 7.53571 8.08527 7.53571 8.66366 7.53571C9.06853 7.53571 9.18421 7.53571 9.29988 7.59354Z" fill="black"/>
<path d="M17.166 7.59369C17.3395 7.65153 17.513 7.88289 17.5709 8.0564C17.6287 8.28776 17.4552 8.57695 17.2238 8.69263C17.1082 8.75047 16.8768 8.75047 14.1005 8.75047C11.0929 8.75047 11.0929 8.75047 10.9194 8.63479C10.6881 8.51911 10.5724 8.3456 10.6302 8.0564C10.6302 7.82505 10.7459 7.65153 10.9773 7.53586C11.2086 7.47802 16.9346 7.47802 17.166 7.59369Z" fill="black"/>
<path d="M9.35771 11.2375C9.53123 11.3532 9.64691 11.5267 9.64691 11.758C9.64691 11.9894 9.53123 12.1629 9.35771 12.2786C9.24203 12.3364 9.12636 12.3943 8.66365 12.3943C8.02742 12.3943 7.91174 12.3364 7.73823 12.1051C7.56471 11.8159 7.62255 11.5267 7.91174 11.2953C8.02742 11.1797 8.08526 11.1797 8.66365 11.1797C9.1842 11.1218 9.24203 11.1218 9.35771 11.2375Z" fill="black"/>
<path d="M17.2816 11.2375C17.4551 11.3532 17.5708 11.5267 17.5708 11.758C17.5708 11.9894 17.4551 12.1629 17.2816 12.2786C17.166 12.3364 17.0503 12.3943 14.1005 12.3943C11.4399 12.3943 11.0351 12.3943 10.9194 12.3364C10.5145 12.1051 10.5145 11.4688 10.9194 11.2953C11.0351 11.2375 11.1507 11.1797 14.1005 11.1797C17.0503 11.1218 17.1081 11.1218 17.2816 11.2375Z" fill="black"/>
<path d="M17.2238 14.8234C17.6866 15.0547 17.6287 15.691 17.2238 15.9223C17.0503 15.9802 16.9347 16.038 14.7946 16.038C12.3654 16.038 12.3654 16.038 12.134 15.8066C11.9605 15.6331 11.9605 15.2861 12.134 15.0547C12.3654 14.8234 12.3076 14.8234 14.7946 14.8234C17.0503 14.7077 17.1082 14.7077 17.2238 14.8234Z" fill="black"/>
<path d="M2.76408 13.2619C1.95434 13.4932 1.31811 14.1295 1.08676 15.0549C0.971081 15.5176 0.971081 16.2117 1.08676 16.6165C1.54947 18.0625 2.99544 19.3928 4.84627 20.1447C5.19331 20.2604 5.19331 20.2604 5.42466 20.2025C5.77169 20.0869 6.69711 19.6242 7.10198 19.335C8.77931 18.236 9.64689 16.7901 9.47337 15.4019C9.29985 14.0138 8.37444 13.0884 7.10198 13.0884C6.5236 13.0884 5.88737 13.3776 5.42466 13.7246L5.19331 13.956L4.96195 13.7246C4.38356 13.3197 3.51598 13.0884 2.76408 13.2619Z" stroke="black" stroke-width="1.25" stroke-miterlimit="10"/>
</svg>
