<svg width="20" height="21" viewBox="0 0 20 21" fill="none" xmlns="http://www.w3.org/2000/svg">
<path d="M0.405939 0.0688429C-0.00392763 0.246248 -0.132393 0.796821 0.155125 1.14551C0.350882 1.37797 0.47323 1.40243 1.35414 1.40243H2.1494L2.74891 7.10999C3.07925 10.2482 3.36677 12.9093 3.39123 13.0194C3.50747 13.5516 3.92345 14.0961 4.41284 14.353C4.95729 14.6405 4.6086 14.6283 10.8484 14.6283C17.0698 14.6283 16.7394 14.6405 17.2655 14.3652C17.4062 14.2918 17.6264 14.1144 17.7549 13.9798C18.2015 13.5088 18.1648 13.6311 19.1313 9.14095C19.6268 6.82857 20 4.9811 20 4.85264C20 4.36325 19.6819 3.86775 19.2231 3.6414L18.9723 3.51906L11.3745 3.50681L3.78275 3.48847L3.75828 3.34778C3.74604 3.27437 3.67264 2.6198 3.59923 1.90407C3.52582 1.18833 3.45241 0.558218 3.44017 0.509278C3.39735 0.350225 3.20159 0.130017 3.05478 0.0688429C2.8529 -0.0229177 0.601696 -0.0229177 0.405939 0.0688429ZM18.593 4.99336C17.6937 9.27554 16.9046 12.8298 16.8373 12.9154C16.7945 12.9766 16.7027 13.0622 16.6354 13.1111C16.5192 13.2029 16.4947 13.2029 10.9646 13.2151C7.912 13.2213 5.34269 13.2151 5.26928 13.2029C5.09799 13.1723 4.85329 12.9704 4.786 12.8053C4.76153 12.738 4.56578 10.9945 4.34555 8.92072C4.13144 6.85303 3.94792 5.09122 3.92957 5.0117L3.9051 4.87101H11.2582H18.6175L18.593 4.99336Z" fill="black"/>
<path d="M5.74026 16.0842C4.63913 16.3779 3.95398 17.5218 4.23538 18.6046C4.52901 19.718 5.66685 20.4092 6.75575 20.1278C7.86912 19.8342 8.56039 18.6964 8.27899 17.6136C7.99147 16.4819 6.83528 15.7845 5.74026 16.0842ZM6.53552 17.4668C6.98209 17.6564 7.09221 18.2375 6.74352 18.5862C6.46211 18.8676 6.05837 18.8676 5.77697 18.5862C5.23863 18.0479 5.83202 17.167 6.53552 17.4668Z" fill="black"/>
<path d="M14.0906 16.0842C12.9895 16.3779 12.3043 17.5218 12.5857 18.6046C12.8794 19.718 14.0172 20.4092 15.1061 20.1278C16.2195 19.8342 16.9107 18.6964 16.6293 17.6136C16.3418 16.4819 15.1856 15.7845 14.0906 16.0842ZM14.8859 17.4668C15.3324 17.6564 15.4425 18.2375 15.0939 18.5862C14.8125 18.8676 14.4087 18.8676 14.1273 18.5862C13.589 18.0479 14.1824 17.167 14.8859 17.4668Z" fill="black"/>
</svg>
