<svg width="29" height="29" viewBox="0 0 29 29" fill="none" xmlns="http://www.w3.org/2000/svg">
<g filter="url(#filter0_d_1520_817)">
<circle cx="14.1636" cy="14.1636" r="10.1636" fill="white"/>
</g>
<path d="M17.1911 18.7243H8.76592V10.2991H13.8287L14.5946 9.5332H8.76592C8.56279 9.5332 8.36797 9.6139 8.22433 9.75754C8.0807 9.90118 8 10.096 8 10.2991V18.7243C8 18.9274 8.0807 19.1222 8.22433 19.2659C8.36797 19.4095 8.56279 19.4902 8.76592 19.4902H17.1911C17.3942 19.4902 17.589 19.4095 17.7327 19.2659C17.8763 19.1222 17.957 18.9274 17.957 18.7243V12.9799L17.1911 13.7458V18.7243Z" fill="#909094"/>
<path d="M19.3088 9.47177L18.0182 8.18119C17.9609 8.12375 17.8929 8.07819 17.818 8.0471C17.7431 8.016 17.6628 8 17.5816 8C17.5005 8 17.4202 8.016 17.3453 8.0471C17.2704 8.07819 17.2023 8.12375 17.1451 8.18119L11.8947 13.4622L11.4696 15.3043C11.4515 15.3936 11.4534 15.4858 11.4752 15.5742C11.4969 15.6627 11.538 15.7452 11.5955 15.8159C11.653 15.8866 11.7255 15.9436 11.8077 15.983C11.8898 16.0223 11.9797 16.0429 12.0708 16.0434C12.1179 16.0486 12.1654 16.0486 12.2125 16.0434L14.0699 15.6336L19.3088 10.3449C19.3662 10.2876 19.4118 10.2196 19.4429 10.1447C19.474 10.0698 19.49 9.98945 19.49 9.90834C19.49 9.82723 19.474 9.74692 19.4429 9.672C19.4118 9.59709 19.3662 9.52904 19.3088 9.47177ZM13.6716 14.9251L12.27 15.2353L12.5955 13.8452L16.5476 9.86622L17.6276 10.9462L13.6716 14.9251ZM18.0603 10.5134L16.9804 9.43347L17.574 8.82839L18.6616 9.916L18.0603 10.5134Z" fill="#909094"/>
<defs>
<filter id="filter0_d_1520_817" x="0" y="0" width="28.3274" height="28.3274" filterUnits="userSpaceOnUse" color-interpolation-filters="sRGB">
<feFlood flood-opacity="0" result="BackgroundImageFix"/>
<feColorMatrix in="SourceAlpha" type="matrix" values="0 0 0 0 0 0 0 0 0 0 0 0 0 0 0 0 0 0 127 0" result="hardAlpha"/>
<feMorphology radius="2" operator="dilate" in="SourceAlpha" result="effect1_dropShadow_1520_817"/>
<feOffset/>
<feGaussianBlur stdDeviation="1"/>
<feComposite in2="hardAlpha" operator="out"/>
<feColorMatrix type="matrix" values="0 0 0 0 0 0 0 0 0 0 0 0 0 0 0 0 0 0 0.1 0"/>
<feBlend mode="normal" in2="BackgroundImageFix" result="effect1_dropShadow_1520_817"/>
<feBlend mode="normal" in="SourceGraphic" in2="effect1_dropShadow_1520_817" result="shape"/>
</filter>
</defs>
</svg>
