<svg width="15" height="15" viewBox="0 0 15 15" fill="none" xmlns="http://www.w3.org/2000/svg">
<path fill-rule="evenodd" clip-rule="evenodd" d="M5.00977 7.90892V7.87961C4.41296 7.64874 3.90378 6.87385 3.62566 6.32661C2.51968 4.15035 3.46389 1.27546 5.77148 0.332947C8.25598 -0.681816 11.0917 0.708968 11.7371 3.3378C11.8503 3.7989 11.8841 4.33038 11.8276 4.8029C11.7483 5.46563 11.5351 6.07754 11.1914 6.64893C10.8917 7.14721 10.4698 7.58164 9.99023 7.90892C13.0312 8.73913 15 11.9827 15 15H13.7988C13.7988 14.1562 13.6478 13.3146 13.3048 12.5386C12.9767 11.7961 12.5124 11.082 11.9234 10.5194C9.60703 8.30707 5.93528 8.05039 3.45703 10.174C2.74136 10.7872 2.19872 11.5228 1.77988 12.3628C1.37316 13.1785 1.20117 14.0949 1.20117 15H0C0 11.9827 1.96873 8.73913 5.00977 7.90892ZM7.45924 7.58152C9.23766 7.58152 10.6793 6.13983 10.6793 4.36141C10.6793 2.583 9.23766 1.1413 7.45924 1.1413C5.68082 1.1413 4.23913 2.583 4.23913 4.36141C4.23913 6.13983 5.68082 7.58152 7.45924 7.58152Z" fill="#3C9081"/>
</svg>
