<svg width="19" height="19" viewBox="0 0 19 19" fill="none" xmlns="http://www.w3.org/2000/svg">
<path d="M19 9.5C19 14.7466 14.7466 19 9.5 19C4.25389 19 0 14.7466 0 9.5C0 4.25389 4.25389 0 9.5 0C14.7466 0 19 4.25389 19 9.5Z" fill="#FFCC4D"/>
<path d="M9.13692 9.29523C9.04403 9.21976 8.91155 9.21765 8.81497 9.28784C8.80864 9.29259 8.14997 9.7639 6.86114 9.7639C5.57283 9.7639 4.91364 9.29259 4.90836 9.2889C4.81178 9.21659 4.67878 9.2187 4.58589 9.29364C4.49194 9.36859 4.46028 9.49737 4.50883 9.60714C4.5405 9.67839 5.3005 11.3472 6.86114 11.3472C8.4223 11.3472 9.18178 9.67839 9.21344 9.60714C9.262 9.49789 9.23033 9.37017 9.13692 9.29523ZM14.4147 9.29523C14.3218 9.21976 14.1899 9.21712 14.0927 9.28784C14.0864 9.29259 13.4272 9.7639 12.1389 9.7639C10.8511 9.7639 10.1914 9.29259 10.1861 9.2889C10.0896 9.21659 9.95708 9.2187 9.86367 9.29364C9.76972 9.36859 9.73805 9.49737 9.78661 9.60714C9.81828 9.67839 10.5783 11.3472 12.1389 11.3472C13.7001 11.3472 14.4596 9.67839 14.4912 9.60714C14.5398 9.49789 14.5081 9.37017 14.4147 9.29523ZM11.6111 14.7778H7.38892C7.09758 14.7778 6.86114 14.5419 6.86114 14.25C6.86114 13.9581 7.09758 13.7222 7.38892 13.7222H11.6111C11.903 13.7222 12.1389 13.9581 12.1389 14.25C12.1389 14.5419 11.903 14.7778 11.6111 14.7778ZM3.16669 7.3889C2.87536 7.3889 2.63892 7.15245 2.63892 6.86112C2.63892 6.57031 2.87378 6.3344 3.16458 6.33334C3.24692 6.33228 5.04822 6.28795 6.43944 4.43334C6.61414 4.20112 6.94453 4.15256 7.17833 4.32778C7.41161 4.50248 7.45858 4.8334 7.28389 5.06667C5.56175 7.36251 3.2638 7.3889 3.16669 7.3889ZM15.8334 7.3889C15.7362 7.3889 13.4388 7.36251 11.7167 5.06667C11.5415 4.8334 11.589 4.50248 11.8222 4.32778C12.055 4.15203 12.3854 4.20006 12.5606 4.43334C13.9545 6.29165 15.7595 6.33281 15.836 6.33334C16.1263 6.33651 16.3606 6.57401 16.359 6.86376C16.358 7.15456 16.1236 7.3889 15.8334 7.3889Z" fill="#664500"/>
</svg>
