<svg width="21" height="13" viewBox="0 0 21 13" fill="none" xmlns="http://www.w3.org/2000/svg">
<path fill-rule="evenodd" clip-rule="evenodd" d="M17.3965 3.65402C15.1406 1.90625 12.7852 1 10.6289 1C8.47256 1 6.11717 1.90625 3.8613 3.65402C2.1694 4.94866 1.14099 6.2433 1.07464 6.30803C0.975119 6.4375 0.975119 6.59933 1.07464 6.69642C1.10782 6.76116 2.1694 8.02343 3.8613 9.35044C6.11717 11.0982 8.47256 12.0045 10.6289 12.0045C12.7852 12.0045 15.1406 11.0982 17.3965 9.35044C19.0884 8.0558 20.1168 6.76116 20.1832 6.69642C20.2827 6.56696 20.2827 6.40513 20.1832 6.30803C20.15 6.2433 19.0884 4.94866 17.3965 3.65402ZM10.6289 11.3571C6.28304 11.3571 2.60067 7.44084 1.77131 6.50223C2.60067 5.56361 6.28304 1.64732 10.6289 1.64732C14.9748 1.64732 18.6571 5.56361 19.4865 6.50223C18.6571 7.44084 14.9748 11.3571 10.6289 11.3571Z" fill="#909094" stroke="#909094" stroke-width="0.25"/>
<path fill-rule="evenodd" clip-rule="evenodd" d="M10.561 3.63086C8.84892 3.63086 7.44812 5.03166 7.44812 6.74375C7.44812 8.45584 8.84892 9.85664 10.561 9.85664C12.2731 9.85664 13.6739 8.45584 13.6739 6.74375C13.6739 5.03166 12.2731 3.63086 10.561 3.63086ZM10.561 9.32745C9.12908 9.32745 7.97731 8.17568 7.97731 6.74375C7.97731 5.31182 9.12908 4.16005 10.561 4.16005C11.9929 4.16005 13.1447 5.31182 13.1447 6.74375C13.1447 8.14455 11.9929 9.32745 10.561 9.32745Z" fill="#909094" stroke="#909094" stroke-width="0.25"/>
</svg>
