<svg width="14" height="15" viewBox="0 0 14 15" fill="none" xmlns="http://www.w3.org/2000/svg">
<path d="M8.81049 0.0384693C8.08585 0.138154 7.46858 0.398865 6.88197 0.858948C5.5784 1.8788 5.0493 3.62711 5.5669 5.20673C5.7816 5.87385 6.21101 6.52182 6.72861 6.96657C7.25004 7.41515 7.87882 7.72953 8.5191 7.85989C9.13254 7.99024 10.3096 7.99024 10.8579 7.85989L11.0342 7.81771L11.5863 8.36599C12.1154 8.89125 12.1461 8.91425 12.2458 8.91425C12.357 8.91425 12.449 8.85673 12.4988 8.75705C12.518 8.71871 12.5295 8.43117 12.5295 7.88673V7.07775L12.7979 6.81321C13.1851 6.4298 13.4803 6.00806 13.672 5.56331C14.389 3.90317 13.9021 1.96314 12.4873 0.85511C11.8892 0.387359 11.2796 0.134313 10.532 0.0307941C10.1716 -0.0113802 9.17088 -0.0113726 8.81049 0.0384693ZM10.6892 0.605898C11.755 0.832106 12.6253 1.49924 13.1123 2.46158C13.2196 2.67629 13.3653 3.12486 13.4152 3.38941C13.4612 3.64245 13.4612 4.32108 13.4152 4.56646C13.2618 5.39078 12.8631 6.06173 12.1806 6.65217L12.0042 6.80553L11.9966 7.3998L11.9889 7.99792L11.6093 7.62217L11.2298 7.24644L11.1109 7.26178C11.0457 7.26561 10.8694 7.30395 10.7198 7.33846C10.4745 7.39597 10.3786 7.3998 9.73449 7.3998C8.77598 7.40364 8.43475 7.33845 7.84431 7.04707C6.8743 6.57165 6.20718 5.70517 5.98481 4.62397C5.92346 4.33642 5.91579 3.6923 5.96947 3.39324C6.16117 2.32355 6.85513 1.39955 7.82897 0.904963C8.06668 0.786109 8.51143 0.644238 8.76064 0.605898C8.87183 0.590562 8.99452 0.571407 9.03286 0.563739C9.20156 0.529233 10.5013 0.567558 10.6892 0.605898Z" fill="#3C9081"/>
<path d="M9.45343 1.95934C9.21955 2.03219 9.11987 2.08969 8.95501 2.25455C8.7518 2.45775 8.63678 2.70697 8.62528 2.97152C8.61378 3.15939 8.61761 3.17855 8.69046 3.25523C8.79014 3.35875 8.93584 3.36643 9.05086 3.26675C9.1122 3.21307 9.13521 3.16706 9.16204 3.01753C9.19655 2.79516 9.28857 2.64947 9.4496 2.55745C9.69881 2.40792 9.99403 2.44626 10.1896 2.64563C10.5193 2.98686 10.3928 3.48911 9.92501 3.66164C9.54928 3.79967 9.49944 3.89935 9.49944 4.47828C9.49944 4.73133 9.51094 4.9192 9.53011 4.96138C9.54928 4.99972 9.60296 5.04956 9.65663 5.07256C9.74098 5.11473 9.76782 5.11474 9.85217 5.08023C10.0094 5.01889 10.0477 4.91536 10.0477 4.51663C10.0477 4.26741 10.0554 4.18308 10.0822 4.18308C10.1742 4.18308 10.4579 4.01437 10.5845 3.88401C11.1519 3.30507 10.9794 2.36957 10.2471 2.02834C9.98253 1.91332 9.70264 1.88649 9.45343 1.95934Z" fill="#3C9081"/>
<path d="M9.69644 5.65129C9.60059 5.67046 9.49707 5.81232 9.49707 5.92351C9.49707 6.13438 9.78079 6.26474 9.93032 6.11905C10.1412 5.92735 9.98016 5.60145 9.69644 5.65129Z" fill="#3C9081"/>
<path d="M1.51828 4.80037C1.41476 4.82337 1.21156 4.90004 1.0697 4.96522C0.854993 5.06874 0.770644 5.13008 0.575109 5.32562C0.368071 5.52882 0.318229 5.60167 0.210876 5.82404C-0.00382947 6.27262 4.55888e-06 6.20361 4.55888e-06 8.78008C4.55888e-06 11.3565 -0.00382947 11.2875 0.210876 11.7361C0.318229 11.9585 0.368071 12.0313 0.575109 12.2345C0.770644 12.4301 0.858827 12.4914 1.0697 12.5911C1.4646 12.7866 1.59879 12.802 2.64548 12.802H3.54265L4.06407 13.3234C4.75037 14.0174 4.81171 14.0557 4.98808 13.9752C5.1261 13.9138 5.14527 13.8333 5.14527 13.2966V12.802H6.5677C8.19716 12.802 8.247 12.7981 8.67641 12.5911C8.89495 12.4876 8.97546 12.4301 9.171 12.2307C9.37037 12.0352 9.42788 11.9547 9.5314 11.7361C9.7346 11.3182 9.7461 11.2147 9.73844 9.96479L9.73077 8.88742L9.63875 8.80693C9.56207 8.73791 9.5314 8.7264 9.44705 8.74174C9.3857 8.74941 9.32053 8.78775 9.27452 8.84143L9.19784 8.92195V9.98396C9.19784 11.1495 9.194 11.2109 9.02914 11.5291C8.92562 11.7361 8.68024 11.9853 8.48471 12.085C8.14732 12.2576 8.26617 12.246 6.44117 12.2614L4.7657 12.2767L4.69286 12.3534C4.62001 12.4262 4.61617 12.4454 4.60084 12.7445L4.5855 13.0589L4.22894 12.7023C4.0334 12.5029 3.84937 12.3266 3.8187 12.3035C3.77652 12.2729 3.57332 12.2652 2.76434 12.2652C1.96686 12.2652 1.73299 12.2575 1.60646 12.223C1.10037 12.0927 0.720802 11.7131 0.590445 11.207C0.5291 10.9731 0.5291 6.60618 0.590445 6.37614C0.720802 5.87004 1.10037 5.49048 1.60646 5.36012C1.73682 5.32561 2.02054 5.31796 3.26276 5.31796H4.76187L4.85005 5.23744C4.9229 5.17226 4.94207 5.13775 4.94207 5.0419C4.94207 4.94605 4.92673 4.91154 4.85005 4.84636L4.76187 4.76584L3.23592 4.76968C2.00137 4.76201 1.67547 4.76969 1.51828 4.80037Z" fill="#3C9081"/>
<path d="M1.65421 6.97027C1.47784 7.04311 1.43183 7.27317 1.56602 7.40352L1.63887 7.4802L3.73225 7.48786L5.82179 7.4917L5.91381 7.41118C5.98666 7.346 6.00583 7.31151 6.00583 7.21566C6.00583 7.11981 5.99049 7.0853 5.91381 7.02012L5.82563 6.9396L3.76676 6.94344C2.63572 6.95111 1.68488 6.95877 1.65421 6.97027Z" fill="#3C9081"/>
<path d="M1.65421 8.50396C1.47784 8.57681 1.43183 8.80686 1.56602 8.93722L1.63887 9.0139L4.62174 9.02155L7.60078 9.02539L7.6928 8.94487C7.76565 8.87969 7.78482 8.8452 7.78482 8.74935C7.78482 8.6535 7.76948 8.61899 7.6928 8.55381L7.60462 8.47329L4.65625 8.47713C3.03446 8.48097 1.68488 8.49246 1.65421 8.50396Z" fill="#3C9081"/>
<path d="M1.65421 10.0375C1.47784 10.1103 1.43183 10.3404 1.56602 10.4707L1.63887 10.5474L4.06964 10.5513C5.96749 10.5551 6.51192 10.5513 6.5656 10.5244C6.60394 10.5052 6.65761 10.4439 6.68445 10.3864C6.73429 10.2867 6.73429 10.2829 6.68445 10.1832C6.65761 10.1257 6.60394 10.0643 6.5656 10.0452C6.51192 10.0183 5.95982 10.0107 4.10415 10.0107C2.78524 10.0145 1.68488 10.026 1.65421 10.0375Z" fill="#3C9081"/>
<path d="M7.43277 10.0373C7.25641 10.1101 7.2104 10.3402 7.34459 10.4706C7.50945 10.6392 7.78934 10.5242 7.78934 10.2865C7.7855 10.1025 7.58997 9.96828 7.43277 10.0373Z" fill="#3C9081"/>
</svg>
