<svg width="12" height="10" viewBox="0 0 12 10" fill="none" xmlns="http://www.w3.org/2000/svg">
<path d="M6 9.99999C5.92105 10.0004 5.84278 9.9856 5.76969 9.95632C5.69659 9.92705 5.63011 9.88392 5.57406 9.8294L0.91268 5.2528C0.327975 4.67348 0 3.89134 0 3.07628C0 2.26121 0.327975 1.47907 0.91268 0.899747C1.50196 0.323561 2.30019 0 3.13238 0C3.96457 0 4.76281 0.323561 5.35209 0.899747L6 1.53506L6.64791 0.899747C7.23719 0.323561 8.03543 0 8.86762 0C9.69981 0 10.498 0.323561 11.0873 0.899747C11.672 1.47907 12 2.26121 12 3.07628C12 3.89134 11.672 4.67348 11.0873 5.2528L6.42594 9.8294C6.36989 9.88392 6.30341 9.92705 6.23031 9.95632C6.15722 9.9856 6.07895 10.0004 6 9.99999Z" fill="white"/>
</svg>
