<svg width="20" height="14" viewBox="0 0 20 14" fill="none" xmlns="http://www.w3.org/2000/svg">
<path fill-rule="evenodd" clip-rule="evenodd" d="M10 1.81268C7.97658 1.81268 5.78454 2.65577 3.67682 4.34196C2.07494 5.52228 1.14754 6.78692 1.06323 6.87123C0.978923 7.03985 0.978923 7.12416 1.06323 7.20847C1.06323 7.29278 2.07494 8.4731 3.67682 9.73774C4.09836 10.075 4.60422 10.4122 5.02576 10.6651L5.44731 10.1593C3.5082 9.06327 2.07494 7.5457 1.6534 6.95554C2.41218 6.11245 5.86885 2.40285 10 2.40285C11.0117 2.40285 12.0234 2.65577 12.9508 2.99301L13.4567 2.57147C12.2763 2.06561 11.096 1.81268 10 1.81268ZM18.9368 6.78692C18.9368 6.70261 17.9251 5.52228 16.3232 4.25765C15.9016 3.92041 15.3958 3.58317 14.9742 3.33025L14.5527 3.75179C16.4918 4.93212 17.9251 6.36538 18.3466 6.95554C17.5878 7.88294 14.1311 11.5082 10 11.5082C8.90398 11.5082 7.89227 11.2553 7.04918 10.9181L6.54333 11.3396C7.72365 11.8455 8.90398 12.0984 10 12.0984C12.0234 12.0984 14.2155 11.2553 16.3232 9.56912C17.9251 8.3888 18.8525 7.12416 18.9368 7.03985C19.0211 7.03985 19.0211 6.87123 18.9368 6.78692Z" fill="#909094" stroke="#909094" stroke-width="0.25"/>
<path fill-rule="evenodd" clip-rule="evenodd" d="M9.99989 4.08893C8.39802 4.08893 7.04907 5.43787 7.04907 7.03975C7.04907 7.5456 7.13338 7.96715 7.38631 8.38869L7.80785 8.05146C7.63924 7.62991 7.55493 7.29267 7.55493 6.95544C7.55493 5.60649 8.65095 4.51047 9.99989 4.51047C10.4214 4.51047 10.7587 4.59478 11.0959 4.7634L11.5175 4.42616C11.0116 4.17324 10.5057 4.08893 9.99989 4.08893ZM12.5292 5.60649L12.1919 5.94373C12.2762 6.28097 12.3605 6.6182 12.3605 6.95544C12.3605 8.30438 11.2645 9.4004 9.91558 9.4004C9.49404 9.4004 9.1568 9.31609 8.81956 9.14748L8.48233 9.48471C8.90387 9.73764 9.40973 9.90626 9.99989 9.90626C11.6018 9.90626 12.9507 8.55731 12.9507 6.95544C12.8664 6.53389 12.7821 6.02804 12.5292 5.60649Z" fill="#909094" stroke="#909094" stroke-width="0.25"/>
<path d="M6.20629 10.5808L5.70043 11.0023C5.44751 10.8337 5.19458 10.7494 4.94165 10.5808L5.44751 10.1592C5.70043 10.3279 5.95336 10.4122 6.20629 10.5808Z" fill="#909094"/>
<path d="M4.94163 10.5808C5.19456 10.7494 5.44748 10.8337 5.70041 11.0024L3.42407 13.1944H3.33976C3.17114 13.363 2.91821 13.363 2.74959 13.1944C2.66528 13.1101 2.66528 13.0258 2.66528 12.9415C2.66528 12.8572 2.66528 12.6885 2.8339 12.6885L4.94163 10.5808Z" fill="#909094"/>
<path d="M14.2156 2.90871L13.7097 3.41456C13.4568 3.33025 13.2039 3.16164 12.9509 3.07733L13.4568 2.57147C13.7097 2.65578 13.9626 2.8244 14.2156 2.90871Z" fill="#909094"/>
<path d="M12.1079 5.01641L11.7707 5.35365C11.602 5.18503 11.3491 5.01641 11.0962 4.8478L11.5177 4.51056C11.6864 4.59487 11.855 4.76349 12.1079 5.01641C12.1079 4.9321 12.1079 4.9321 12.1079 5.01641Z" fill="#909094"/>
<path d="M8.22957 8.6417L7.89233 8.97893C7.72371 8.81032 7.55509 8.55739 7.38647 8.30446L7.80802 7.96722C7.89233 8.22015 7.97664 8.47308 8.22957 8.6417Z" fill="#909094"/>
<path d="M7.808 8.97892L6.12182 10.5808C5.86889 10.4965 5.61596 10.3279 5.36304 10.1592L7.30215 8.30444C7.47077 8.55737 7.63938 8.8103 7.808 8.97892Z" fill="#909094"/>
<path d="M11.6862 5.26939L8.14518 8.64175C7.97656 8.47313 7.89225 8.2202 7.72363 7.96728L11.0117 4.84784C11.3489 4.93215 11.5175 5.10077 11.6862 5.26939Z" fill="#909094"/>
<path d="M13.7097 3.41451L12.0235 5.01638C11.8549 4.84776 11.602 4.67914 11.4333 4.51053L12.9509 3.07727C13.2038 3.16158 13.4568 3.24589 13.7097 3.41451Z" fill="#909094"/>
<path d="M16.6608 0.4637C16.6608 0.548009 16.6608 0.632318 16.5765 0.716628L14.2158 2.90866C13.9629 2.82436 13.71 2.65574 13.457 2.57143L15.9863 0.126464C16.1549 -0.0421546 16.4079 -0.0421546 16.5765 0.126464C16.6608 0.210773 16.6608 0.379391 16.6608 0.4637Z" fill="#909094"/>
<path d="M5.70017 11.0024L3.42383 13.1944L5.70017 11.0024Z" fill="#909094"/>
<path d="M7.80801 8.979L6.12183 10.5809L7.80801 8.979Z" fill="#909094"/>
<path d="M13.7099 3.41449L12.0237 5.01636L13.7099 3.41449Z" fill="#909094"/>
<path d="M16.5762 0.716614L14.2156 2.99296L16.5762 0.716614Z" fill="#909094"/>
</svg>
