<svg width="22" height="23" viewBox="0 0 22 23" fill="none" xmlns="http://www.w3.org/2000/svg">
<path d="M10.9992 0.75C11.4009 0.75 11.7855 0.895018 12.0797 1.15281C12.0895 1.16145 12.0996 1.16981 12.1098 1.17789L20.7243 8.7326C20.7243 8.73266 20.7244 8.73273 20.7245 8.73279C20.8913 8.87927 21.0235 9.05723 21.1136 9.25448C21.2037 9.45171 21.2499 9.66443 21.25 9.87901C21.25 9.87907 21.25 9.87913 21.25 9.87919V20.6994C21.25 21.1047 21.0852 21.4972 20.7858 21.7894C20.4857 22.0823 20.0749 22.25 19.6429 22.25H16.5C16.068 22.25 15.6572 22.0823 15.3571 21.7894C15.0576 21.4972 14.8929 21.1047 14.8929 20.6994V14.5645C14.8929 14.1563 14.7265 13.7685 14.4366 13.4855C14.1473 13.2032 13.7586 13.0477 13.3571 13.0477H8.64286C8.24136 13.0477 7.85275 13.2032 7.56342 13.4855C7.27348 13.7685 7.10714 14.1563 7.10714 14.5645V20.6994C7.10714 21.1047 6.94236 21.4972 6.6429 21.7894C6.34282 22.0823 5.93204 22.25 5.5 22.25H2.35714C1.9251 22.25 1.51432 22.0823 1.21424 21.7894C0.914785 21.4972 0.75 21.1047 0.75 20.6994V9.87919C0.75 9.87913 0.75 9.87907 0.75 9.87901C0.750076 9.66443 0.79634 9.45171 0.886415 9.25448C0.9765 9.05723 1.10869 8.87927 1.27551 8.73279C1.27559 8.73273 1.27566 8.73266 1.27574 8.7326L9.91834 1.15317C10.2126 0.895151 10.5974 0.75 10.9992 0.75Z" stroke="black" stroke-width="1.5"/>
</svg>
