<svg width="17" height="22" viewBox="0 0 17 22" fill="none" xmlns="http://www.w3.org/2000/svg">
<path d="M14.6673 9.53333H13.2006V6.6C13.2006 3.74 10.9273 1.46667 8.06729 1.46667C5.20729 1.46667 2.93395 3.74 2.93395 6.6V9.53333H1.46729V6.6C1.46729 2.93333 4.40062 0 8.06729 0C11.734 0 14.6673 2.93333 14.6673 6.6V9.53333Z" fill="#9B9B9B"/>
<path d="M13.9333 22H2.2C0.953333 22 0 21.0467 0 19.8V11C0 9.75338 0.953333 8.80005 2.2 8.80005H13.9333C15.18 8.80005 16.1333 9.75338 16.1333 11V19.8C16.1333 21.0467 15.18 22 13.9333 22ZM2.2 10.2667C1.76 10.2667 1.46667 10.56 1.46667 11V19.8C1.46667 20.24 1.76 20.5334 2.2 20.5334H13.9333C14.3733 20.5334 14.6667 20.24 14.6667 19.8V11C14.6667 10.56 14.3733 10.2667 13.9333 10.2667H2.2Z" fill="#9B9B9B"/>
<path d="M8.06676 14.6667C8.87678 14.6667 9.53343 14.0101 9.53343 13.2001C9.53343 12.39 8.87678 11.7334 8.06676 11.7334C7.25675 11.7334 6.6001 12.39 6.6001 13.2001C6.6001 14.0101 7.25675 14.6667 8.06676 14.6667Z" fill="#9B9B9B"/>
<path d="M8.43395 13.2001H7.70062L6.96729 17.6001H9.16729L8.43395 13.2001Z" fill="#9B9B9B"/>
</svg>
