<svg width="21" height="21" viewBox="0 0 21 21" fill="none" xmlns="http://www.w3.org/2000/svg">
<path d="M10.4962 0C4.70109 0 0 4.71223 0 10.521C0 14.2594 1.94699 17.5415 4.87705 19.4087C6.23497 20.2714 7.8071 20.835 9.49399 20.9922C9.84973 21.0114 10.1137 20.9961 10.3546 20.9347C10.4005 20.9232 10.4503 20.9079 10.4962 20.8926C10.5344 20.8811 10.5765 20.8657 10.6148 20.8504C10.6415 20.8389 10.6645 20.8312 10.6913 20.8197C10.7333 20.8005 10.7716 20.7814 10.8098 20.7622C11.0279 20.6472 11.2153 20.5053 11.376 20.3481C11.2803 20.3558 11.1847 20.3634 11.0891 20.3673C11.0049 20.4133 10.9131 20.4555 10.8137 20.49C10.7792 20.5015 10.7486 20.513 10.7142 20.5245C10.6836 20.536 10.6071 20.559 10.5 20.5781C10.4579 20.5858 10.412 20.5935 10.3585 20.6012C10.282 20.6127 10.1978 20.6203 10.1098 20.6242C9.7541 20.6395 9.29508 20.5781 8.89344 20.2752C8.88197 20.2637 8.86667 20.2561 8.85519 20.2446C8.10546 20.118 7.37486 19.9072 6.66721 19.6043C6.12022 19.3704 5.6 19.0943 5.10656 18.7684C4.54426 18.4003 4.02022 17.9709 3.53825 17.4878C2.63552 16.5829 1.92404 15.5247 1.42678 14.3514C0.914207 13.136 0.654098 11.8438 0.654098 10.5095C0.654098 9.17524 0.914207 7.88311 1.42678 6.66767C1.92404 5.49057 2.63169 4.43617 3.53825 3.5313C4.44098 2.62643 5.49672 1.91327 6.66721 1.41482C7.87978 0.901037 9.16885 0.640311 10.5 0.640311C11.8311 0.640311 13.1202 0.901037 14.3328 1.41482C15.5071 1.91327 16.559 2.62259 17.4617 3.5313C18.3645 4.43617 19.076 5.49441 19.5732 6.66767C20.0858 7.88311 20.3459 9.17524 20.3459 10.5095C20.3459 11.8438 20.0858 13.136 19.5732 14.3514C19.076 15.5285 18.3683 16.5829 17.4617 17.4878C16.9492 18.0016 16.3907 18.4502 15.7902 18.8336C15.3273 19.1288 14.8415 19.3857 14.3328 19.6004C13.8126 19.8228 13.277 19.9953 12.7339 20.1219C12.359 20.674 11.8005 20.8657 11.6667 20.9079C12.0071 20.8926 12.382 20.8542 12.7874 20.7775C13.541 20.6088 14.2678 20.3596 14.9486 20.0375C14.9831 20.0222 15.0175 20.003 15.0557 19.9877C15.0863 19.9723 15.1131 19.9608 15.1437 19.9455C15.1743 19.9302 15.2087 19.9148 15.2393 19.8957C15.2661 19.8842 15.2891 19.8688 15.3158 19.8573C15.3426 19.8458 15.3656 19.8305 15.3923 19.819C15.4153 19.8075 15.4344 19.796 15.4536 19.7845C15.4956 19.7615 15.5339 19.7423 15.576 19.7193C15.618 19.6963 15.6563 19.6733 15.6984 19.6503C15.7328 19.6311 15.7634 19.6119 15.7978 19.5928C18.9115 17.7677 21 14.3821 21 10.5057C20.9923 4.71223 16.2951 0 10.4962 0Z" fill="white"/>
<path d="M4.82892 10.9544L2.16906 10.6495L2.30347 9.47125L2.82275 9.53077L2.75593 10.1166L3.1767 10.1648L3.24008 9.60912L3.75269 9.66787L3.6893 10.2235L4.8965 10.3619L4.82892 10.9544Z" fill="white"/>
<path d="M2.82995 7.79403L5.44523 8.43992L5.24844 8.97763L4.8553 8.87793L4.75227 9.15944L5.11821 9.33348L4.92025 9.87436L2.51103 8.66545L2.82995 7.79403ZM3.14948 8.38345L3.13096 8.43406L4.30918 8.95165L4.38211 8.75238L3.14948 8.38345Z" fill="white"/>
<path d="M6.29288 7.28152L5.9583 7.69493L4.25323 6.72929L5.75289 7.94874L5.39502 8.39094L3.31586 6.70027L3.88338 5.99903L5.12469 6.68736L4.19572 5.61309L4.76853 4.90531L6.84769 6.59598L6.48558 7.04341L4.98593 5.82396L6.29288 7.28152Z" fill="white"/>
<path d="M6.99165 6.62603L5.42063 4.45311L5.88331 4.11701L7.45432 6.28992L6.99165 6.62603Z" fill="white"/>
<path d="M7.54862 6.21175L6.37785 3.79838L6.90986 3.53907L7.85206 5.48127L8.39919 5.21459L8.62775 5.68575L7.54862 6.21175Z" fill="white"/>
<path d="M9.39592 5.51204L8.85352 5.64314L8.64709 4.78502L7.76688 3.14537L8.33706 3.00755L8.7099 3.85317L8.65728 2.93016L9.22582 2.79274L9.1895 4.65393L9.39592 5.51204Z" fill="white"/>
<path d="M11.8417 5.54774L11.7757 5.30782C11.6461 5.46204 11.4727 5.52279 11.2555 5.49006C10.8333 5.42643 10.6633 5.12085 10.7455 4.57331L10.9179 3.42383C10.9367 3.29833 10.9698 3.19144 11.017 3.10316C11.0642 3.01487 11.1154 2.94934 11.1706 2.90654C11.227 2.8628 11.2924 2.8312 11.3667 2.81173C11.441 2.79227 11.5069 2.7829 11.5646 2.78365C11.6236 2.78345 11.6863 2.78836 11.7528 2.79838C11.8347 2.81073 11.9081 2.82803 11.9727 2.85027C12.0375 2.87139 12.0919 2.89777 12.1359 2.92938C12.181 2.96116 12.2195 2.99536 12.2514 3.03196C12.2834 3.06746 12.3077 3.10973 12.3241 3.15877C12.3418 3.20687 12.3546 3.25422 12.3623 3.30082C12.3713 3.34647 12.375 3.40098 12.3735 3.46434C12.3721 3.52659 12.3685 3.58454 12.3627 3.63818C12.358 3.69199 12.3503 3.75499 12.3394 3.82718L11.781 3.74302L11.8125 3.53311C11.8188 3.49091 11.8196 3.45525 11.8149 3.42615C11.8102 3.39705 11.8004 3.37569 11.7855 3.36208C11.7718 3.34753 11.7585 3.33758 11.7458 3.33225C11.7331 3.3258 11.7185 3.32132 11.7019 3.31882C11.6686 3.31381 11.6408 3.31416 11.6184 3.31987C11.5972 3.32575 11.5794 3.33444 11.5652 3.34593C11.5522 3.35758 11.5402 3.38076 11.5293 3.41547C11.5186 3.44906 11.5104 3.48133 11.5046 3.51226C11.4988 3.54319 11.4909 3.59197 11.4809 3.65861L11.327 4.68481C11.3212 4.72369 11.3174 4.75662 11.3156 4.7836C11.3149 4.81076 11.3172 4.84064 11.3225 4.87324C11.3278 4.90584 11.3403 4.93214 11.36 4.95214C11.3809 4.97119 11.4091 4.98339 11.4446 4.98874C11.5033 4.99759 11.5455 4.98067 11.5712 4.93797C11.5981 4.89433 11.6193 4.82087 11.6348 4.71758L11.6808 4.41105L11.5246 4.3875L11.5933 3.92937L12.3013 4.03609L12.0694 5.58206L11.8417 5.54774Z" fill="white"/>
<path d="M14.2279 3.59756L13.4228 6.1741L12.8995 5.9439L13.0232 5.55675L12.7492 5.43624L12.5533 5.79157L12.0269 5.56002L13.3799 3.22451L14.2279 3.59756ZM13.6212 3.88074L13.572 3.85907L12.9836 5.00581L13.1775 5.09111L13.6212 3.88074Z" fill="white"/>
<path d="M14.7193 5.64338C14.7193 5.64338 14.4657 5.96142 13.9586 6.59751L13.4912 6.2231L15.1626 4.12666L15.8716 4.69459C15.9442 4.75278 15.9983 4.81265 16.0339 4.8742C16.0701 4.93487 16.0902 4.99335 16.0941 5.04965C16.0986 5.10508 16.0879 5.16621 16.0619 5.23305C16.0374 5.29971 16.0065 5.36191 15.9691 5.41963C15.9323 5.47648 15.8839 5.54263 15.8238 5.61808C15.7923 5.65756 15.7655 5.68932 15.7435 5.71337C15.723 5.73723 15.693 5.76496 15.6535 5.79655C15.6155 5.82797 15.579 5.85044 15.5438 5.86396C15.5087 5.87748 15.466 5.88426 15.4157 5.88429C15.3664 5.88501 15.315 5.87478 15.2616 5.85358C15.2982 5.89583 15.3218 5.93915 15.3323 5.98352C15.3435 6.02701 15.3427 6.06946 15.3298 6.11086C15.3168 6.15226 15.3017 6.18831 15.2844 6.21901C15.2678 6.24884 15.2462 6.28042 15.2196 6.31376C14.9433 6.66032 14.7317 6.92212 14.5848 7.09917L14.1332 6.73738L14.7848 5.92013C14.8106 5.88767 14.8278 5.85898 14.8362 5.83407C14.8454 5.80986 14.844 5.78645 14.8319 5.76383C14.8214 5.74103 14.8085 5.72209 14.7933 5.70702C14.7781 5.69194 14.7534 5.67073 14.7193 5.64338ZM15.3231 4.8914L15.0115 5.28226L15.127 5.37481C15.1883 5.42389 15.27 5.38439 15.3721 5.25629C15.44 5.17119 15.4711 5.10698 15.4654 5.06366C15.4607 5.02104 15.4216 4.97028 15.348 4.91139L15.3231 4.8914Z" fill="white"/>
<path d="M14.627 7.14758L16.7824 5.55567L17.2659 6.21347C17.3969 6.39159 17.4467 6.55499 17.4154 6.70366C17.3857 6.85256 17.2922 6.98575 17.135 7.10325C17.135 7.10325 16.8008 7.35289 16.1323 7.85216C15.9167 8.01139 15.7249 8.08748 15.5569 8.08043C15.3896 8.07429 15.2368 7.97718 15.0985 7.78911L14.627 7.14758ZM16.7538 6.3176L15.3736 7.33691C15.3765 7.33895 15.381 7.34405 15.3869 7.35218C15.3909 7.35761 15.3978 7.36789 15.4075 7.38302C15.4179 7.39906 15.4264 7.4116 15.4331 7.42064C15.5002 7.51196 15.5721 7.52931 15.6488 7.47268L16.7123 6.68722C16.7908 6.62926 16.8352 6.57696 16.8454 6.53032C16.8572 6.48393 16.8406 6.42999 16.7954 6.3685C16.788 6.35855 16.7742 6.34159 16.7538 6.3176Z" fill="white"/>
<path d="M15.5091 8.40272L17.9866 7.38591L18.4349 8.48341L17.9543 8.68064L17.734 8.14125L17.2503 8.33976L17.4617 8.85733L16.9967 9.04818L16.7853 8.53061L16.2207 8.76232L16.4557 9.33757L15.972 9.53608L15.5091 8.40272Z" fill="white"/>
<path d="M18.8396 10.7468L16.1886 11.1209L16.108 10.5471L17.3931 10.0664L16.0668 10.2535L15.9862 9.67969L18.6372 9.3056L18.722 9.90945L17.4919 10.3586L18.76 10.1797L18.8396 10.7468Z" fill="white"/>
<path d="M18.7202 16.9778C18.7126 16.9855 18.7087 16.9932 18.7011 17.0008C18.6973 17.0085 18.6934 17.0123 18.6858 17.02C18.6437 17.0737 18.6016 17.1274 18.5557 17.181C18.3683 17.4111 18.1656 17.6335 17.9552 17.8482C17.7945 18.0131 17.6262 18.1703 17.4503 18.3313C17.2667 18.4962 17.0831 18.6495 16.888 18.7991C16.7732 18.8873 16.6546 18.9755 16.5361 19.0598C16.5055 19.0828 16.4749 19.102 16.4443 19.125C16.3525 19.1902 16.2568 19.2554 16.1574 19.3167C16.1536 19.3205 16.1497 19.3205 16.1459 19.3244C16.077 19.0905 15.9738 18.8643 15.8475 18.6572C15.4497 17.9862 14.7115 17.5683 13.9924 17.2922C14.9486 16.836 16.0197 16.6289 17.0754 16.6826H17.0792C17.259 16.6941 17.4388 16.7094 17.6224 16.7324C17.6415 16.7363 17.6607 16.7363 17.6798 16.7401C17.9973 16.7861 18.3071 16.8551 18.6131 16.9472C18.6399 16.9548 18.6705 16.9625 18.6973 16.974C18.7126 16.974 18.7164 16.9778 18.7202 16.9778Z" fill="white"/>
<path d="M19.8295 15.2448C19.7836 15.3368 19.7377 15.425 19.688 15.5132C19.4317 15.9809 19.1486 16.418 18.8235 16.8475C18.8005 16.8398 18.7776 16.8321 18.7546 16.8245C18.724 16.8168 18.6973 16.8053 18.6667 16.7976C18.5672 16.767 18.4639 16.7401 18.3645 16.7133C18.1503 16.6596 17.9284 16.6136 17.7104 16.5829C17.7066 16.5829 17.7066 16.5829 17.7027 16.5829C17.6836 16.5791 17.6683 16.5791 17.653 16.5752C17.4694 16.5484 17.282 16.5331 17.0945 16.5216C17.0907 16.5216 17.0907 16.5216 17.0869 16.5216C15.9508 16.4641 14.8071 16.7018 13.7896 17.2117C13.7169 17.1887 13.6404 17.1657 13.5678 17.1389C13.0169 16.9625 12.3858 16.8666 11.8656 16.8168C11.8503 16.6366 11.9 16.3874 11.8388 16.234C11.9383 16.165 12.0454 16.0883 12.1525 16.0193C13.1126 15.3943 14.1989 14.9725 15.3273 14.7808C15.9891 14.6696 16.6623 14.6351 17.3317 14.6811C17.3929 14.685 17.4579 14.6888 17.5191 14.6965C17.5574 14.7003 17.5956 14.7042 17.6339 14.708C17.8328 14.7272 18.0279 14.754 18.2229 14.7923C18.2306 14.7923 18.2421 14.7962 18.2497 14.7962C18.2765 14.8 18.3071 14.8077 18.3377 14.8115C18.7164 14.8844 19.0913 14.9841 19.4585 15.1067C19.512 15.1259 19.5694 15.1451 19.623 15.1643C19.6536 15.1758 19.688 15.1873 19.7186 15.1988C19.7492 15.2141 19.8027 15.2371 19.8295 15.2448Z" fill="white"/>
<path d="M20.4874 13.6191C20.4836 13.6306 20.4798 13.6459 20.476 13.6574C20.3918 13.922 20.3 14.1789 20.1967 14.4358C20.1508 14.5546 20.0973 14.6696 20.0475 14.7847C19.9978 14.892 19.9481 15.0032 19.8945 15.1106C19.8601 15.0952 19.8027 15.0761 19.7683 15.0607C19.6842 15.0301 19.6038 14.9994 19.5197 14.9725C19.5158 14.9725 19.5158 14.9687 19.512 14.9687C19.1448 14.846 18.7661 14.7425 18.3874 14.6696C18.3836 14.6696 18.3798 14.6658 18.376 14.6658C18.3492 14.662 18.3186 14.6543 18.2918 14.6505C18.2803 14.6466 18.2689 14.6466 18.2612 14.6428C18.1005 14.616 17.9361 14.5891 17.7716 14.57C17.7333 14.5661 17.6951 14.5623 17.6607 14.5585C17.6454 14.5546 17.6339 14.5546 17.6186 14.5546C17.5918 14.5508 17.5689 14.5508 17.5459 14.547C17.4809 14.5393 17.4158 14.5354 17.3546 14.5316C16.5667 14.4779 15.7672 14.5316 14.9907 14.6927C14.9869 14.6927 14.9831 14.6965 14.9792 14.6965C13.8011 14.9419 12.6765 15.4442 11.7011 16.1535C11.6399 16.1458 11.5672 16.1458 11.5022 16.1458C11.5022 16.0768 11.4984 16.0039 11.4984 15.9349C12.5082 15.5477 13.2197 14.5738 13.3191 13.5041C14.8721 12.9481 16.5628 12.7794 18.1962 13.0094C18.1962 13.0094 18.1962 13.0094 18.2 13.0094C18.5175 13.0554 18.8311 13.113 19.141 13.1896C19.4508 13.2625 19.7607 13.3545 20.0628 13.458C20.2005 13.5079 20.3459 13.5616 20.4874 13.6191Z" fill="white"/>
<path d="M6.93115 17.2577C6.86612 17.2846 6.80109 17.3076 6.73607 17.3344C6.65956 17.3651 6.58688 17.3996 6.51421 17.4341C6.28087 17.53 6.06667 17.645 5.85628 17.7945C5.75301 17.8559 5.6459 17.9287 5.55792 18.0207C5.16011 18.3428 4.88852 18.7569 4.73169 19.2477C4.49453 19.0905 4.2612 18.9218 4.03552 18.7454L4.03169 18.7416C3.80984 18.569 3.58033 18.3696 3.36995 18.1741C3.21311 18.0284 3.06393 17.8789 2.91475 17.7217C2.80382 17.6028 2.6929 17.4839 2.58579 17.3613C2.47869 17.2347 2.37541 17.112 2.27213 16.9778C3.79071 16.4909 5.48525 16.5867 6.93115 17.2577Z" fill="white"/>
<path d="M9.0388 16.2148C8.93934 16.3759 9.00437 16.6366 8.98525 16.8245C8.79781 16.8513 8.59891 16.8475 8.41148 16.8935C8.32732 16.8935 8.25082 16.9088 8.17432 16.9318C7.96011 16.9625 7.73443 17.0123 7.50874 17.0814C7.38251 17.1159 7.26393 17.1465 7.14535 17.1849C5.6153 16.4295 3.79454 16.3107 2.17268 16.8475C1.85137 16.4257 1.56066 15.9809 1.3082 15.5132C1.3082 15.5132 1.3082 15.5093 1.30437 15.5093C1.26229 15.4327 1.22404 15.3598 1.18579 15.2831C1.17814 15.2716 1.17432 15.2563 1.16667 15.2448C3.74481 14.2172 6.80874 14.5738 9.07322 16.1803C9.06175 16.1957 9.05027 16.2033 9.0388 16.2148Z" fill="white"/>
<path d="M9.36776 15.9349C9.36776 16.0039 9.36393 16.073 9.36393 16.1458H9.29126L9.2224 16.0998C6.90437 14.4243 3.75628 14.0523 1.09781 15.1067C1.04426 14.9994 0.994535 14.8882 0.948633 14.7847V14.7808C0.860655 14.5815 0.776502 14.3859 0.7 14.1789C0.631147 13.9948 0.56612 13.8031 0.504918 13.6152C1.93552 13.0478 3.5 12.8177 5.03005 12.9366C5.19836 12.9481 5.36667 12.9673 5.53115 12.9864C6.20437 13.0708 6.87377 13.2242 7.51639 13.4427H7.52022C7.52787 13.4465 7.53552 13.4465 7.54317 13.4504C7.64262 14.57 8.28907 15.4787 9.36776 15.9349Z" fill="white"/>
<path d="M8.3235 17.7562C7.95246 18.7032 8.18962 19.7231 8.85519 20.2522C8.86667 20.2637 8.88197 20.2714 8.89344 20.2829C9.29508 20.5858 9.7541 20.6472 10.1098 20.6318C10.2016 20.628 10.2858 20.6203 10.3585 20.6088V20.9347C10.1175 20.9961 9.85355 21.0114 9.49781 20.9922C9.42131 20.9884 9.34481 20.9846 9.25683 20.9769C9.25301 20.9769 9.24918 20.9769 9.24918 20.9769C7.65792 20.789 6.17377 20.2407 4.87705 19.4164C4.87705 19.4126 4.88087 19.4087 4.88087 19.4087C4.88853 19.3819 4.8847 19.355 4.86557 19.3359C4.92295 19.1327 5.00328 18.9486 5.10273 18.7799C5.60765 17.9364 6.61366 17.4763 7.54699 17.2309C8.06339 17.0737 8.54918 17.0238 9.07705 16.9663C9.11147 16.9587 9.13825 16.928 9.13825 16.8897C9.13825 16.7363 9.13825 16.5791 9.13825 16.4257C9.13825 16.3414 9.1459 16.3222 9.14973 16.3184C9.1612 16.2992 9.34863 16.2992 9.39836 16.303C9.40219 16.3375 9.40984 16.3835 9.43661 16.418C9.61257 16.6098 9.80765 16.767 9.98743 16.9548C10.0754 17.0469 10.1251 17.135 10.1519 17.2386C10.1825 17.3651 10.2973 17.7063 10.3393 17.8597C10.3432 17.875 10.347 17.8904 10.3508 17.898V19.1442C10.2896 18.9985 10.2093 18.8451 10.1022 18.6917C9.98361 18.5269 9.83443 18.362 9.64317 18.2163C9.11148 17.8022 8.53771 17.76 8.3235 17.7562Z" fill="white"/>
<path d="M12.0913 19.2784C12.076 19.3244 11.8579 19.8842 11.3721 20.3519C11.2115 20.5053 11.0279 20.651 10.806 20.766C10.7678 20.7852 10.7295 20.8044 10.6874 20.8235C10.6607 20.835 10.6377 20.8465 10.6109 20.8542C10.5727 20.8695 10.5306 20.8849 10.4923 20.8964V20.5858C10.5995 20.5628 10.6721 20.5398 10.7066 20.5321C10.741 20.5206 10.7754 20.5091 10.806 20.4976C10.9055 20.4631 10.9973 20.4209 11.0814 20.3749C11.7546 20.0107 12.0415 19.3934 12.0913 19.2784Z" fill="white"/>
<path d="M16.0311 19.4624C15.9202 19.5314 15.8055 19.6004 15.6945 19.6656C15.6525 19.6886 15.6142 19.7116 15.5721 19.7346C15.5339 19.7576 15.4918 19.7806 15.4497 19.7998C15.4306 19.8113 15.4077 19.8228 15.3885 19.8343C15.3694 19.8458 15.3464 19.8573 15.3273 19.865C15.2967 19.8803 15.2661 19.8957 15.2355 19.911C15.1743 19.9417 15.1131 19.9723 15.0519 20.003C14.3978 20.3213 13.7055 20.5743 12.9863 20.7507C12.9749 20.7545 12.9596 20.7584 12.9481 20.7584C12.8945 20.7699 12.841 20.7814 12.7874 20.789C12.382 20.8657 12.0033 20.9041 11.6667 20.9194C11.8005 20.8772 12.3628 20.6855 12.7339 20.1334C12.7721 20.0759 12.8066 20.0184 12.841 19.9532C13.3612 18.964 12.7645 17.9632 12.7339 17.9172C12.4891 17.9556 11.8235 18.0936 11.2459 18.6649C11.0585 18.8489 10.9208 19.0406 10.8175 19.2208C10.6645 19.4816 10.588 19.7193 10.5459 19.8612C10.5421 19.819 10.5344 19.7193 10.5038 19.5851V17.8789C10.5077 17.8712 10.5077 17.8597 10.5115 17.8482C10.5497 17.714 10.6721 17.3536 10.7066 17.2117C10.7295 17.1197 10.7754 17.0392 10.8596 16.951C11.0393 16.7593 11.2497 16.6098 11.4219 16.4027C11.4486 16.3682 11.4563 16.326 11.4601 16.2953C11.5902 16.2953 11.6628 16.2877 11.7202 16.3145C11.7355 16.4756 11.7164 16.7094 11.724 16.8858C11.724 16.9242 11.7546 16.9587 11.7929 16.9625C11.9115 16.974 12.0339 16.9893 12.1563 17.0047C13.4798 17.1772 15.1131 17.6258 15.794 18.8451C15.8934 19.033 15.9738 19.2362 16.0311 19.4624Z" fill="white"/>
<path d="M13.8049 9.54716C13.7399 10.0993 13.6672 10.6591 13.5907 11.2112C12.3781 11.0042 11.3645 10.199 10.347 9.55483C11.024 9.55866 11.7049 9.55866 12.3705 9.55866C12.8066 9.55866 13.2541 9.55866 13.6978 9.55866C13.7322 9.55482 13.7705 9.55482 13.8049 9.54716Z" fill="white"/>
<path d="M13.8317 9.21358C13.8317 9.25192 13.8317 9.2941 13.8279 9.33244C13.8279 9.36312 13.7743 9.35928 13.7208 9.35545C12.5082 9.35545 11.2803 9.35545 10.0639 9.35545C10.3087 9.03721 10.5918 8.65379 10.6645 8.5541L13.3765 8.00964C13.3918 8.04032 13.4224 8.06332 13.4607 8.05949C13.4721 8.05949 13.476 8.05949 13.5027 8.10166C13.7055 8.43907 13.8279 8.82249 13.8317 9.21358Z" fill="white"/>
<path d="M13.2656 7.8371C12.9519 7.90612 12.6306 7.96747 12.3169 8.02498C11.8503 8.10933 11.3798 8.21669 10.9093 8.30871C11.3989 7.75275 11.8273 7.34633 12.3437 7.02042C12.6803 7.19679 12.9902 7.50353 13.2656 7.8371Z" fill="white"/>
<path d="M10.7945 6.52581C10.3699 6.71368 9.97596 6.93607 9.62787 7.19679C8.80929 7.81027 8.04809 8.81099 7.21803 9.47814C7.21421 9.4398 7.21421 9.40146 7.21421 9.36695C7.19508 7.6914 8.82459 6.52964 10.4311 6.51814C10.5497 6.51047 10.6721 6.51431 10.7945 6.52581Z" fill="white"/>
<path d="M12.1563 6.91306C11.0623 7.6914 10.7142 8.24736 9.82678 9.41296C9.80383 9.43596 9.78852 9.45897 9.77322 9.47814C9.21475 10.2488 8.28525 11.0962 7.27158 11.2534C7.20273 10.8239 7.1224 10.3945 7.0459 9.96125C7.0459 9.83472 7.24863 9.83472 7.22568 9.70436C7.94098 9.1599 8.49563 8.50042 9.10765 7.90229C9.65847 7.33099 10.3852 6.87088 11.1617 6.56798C11.506 6.64467 11.8503 6.72902 12.1563 6.91306Z" fill="white"/>
<path d="M13.6022 11.4796C13.5792 11.4643 13.5678 11.4413 13.5716 11.4144C12.2902 11.192 11.1005 10.2373 9.97978 9.55866C9.95301 9.56633 9.92623 9.597 9.8918 9.64301C9.32951 10.4137 8.31585 11.3186 7.27923 11.4451C7.03443 11.6521 6.79727 11.84 6.79727 12.1889C6.80492 12.6222 7.18361 12.9864 7.60437 12.9711C7.64645 12.9711 7.68087 13.0018 7.6847 13.0439C7.69617 13.205 7.6847 13.3699 7.70765 13.5271C7.86448 14.5585 8.41913 15.2793 9.38688 15.7164C9.42514 15.7317 9.50164 15.7586 9.51311 15.8544C9.51694 15.8774 9.51311 15.9004 9.51311 15.9196C9.51311 15.9924 9.50929 16.0615 9.50929 16.1343C9.55519 16.1995 9.53989 16.2608 9.55519 16.3184C9.79617 16.6059 10.2016 16.8206 10.3011 17.2002C10.3355 17.3459 10.3814 17.4993 10.4197 17.6527C10.4197 17.6527 10.4197 17.6527 10.4197 17.6488C10.5153 17.3613 10.5077 17.089 10.7333 16.8551C10.9093 16.6634 11.1235 16.5139 11.2842 16.3184C11.2995 16.2608 11.2842 16.1995 11.3301 16.1343C11.3301 16.0615 11.3262 15.9886 11.3262 15.9158C11.3109 15.8276 11.3568 15.7317 11.4678 15.7125C11.9842 15.494 12.4011 15.1413 12.7033 14.6888C13.0246 14.2019 13.1814 13.6498 13.1585 13.0516C13.1546 12.9711 13.2426 12.9673 13.3038 12.9673C13.6863 12.9596 14.0344 12.5877 14.0459 12.2043C14.0421 11.8975 13.9005 11.679 13.6022 11.4796ZM12.2863 13.6958C12.2366 13.9642 11.9612 14.0907 11.8005 14.1712C11.6552 14.2441 11.4907 14.2939 10.588 14.3169C10.1022 14.3322 9.91093 14.3246 9.79618 14.3169C9.24918 14.2862 9.05027 14.2172 8.95847 14.1789C8.75574 14.0984 8.50328 13.9987 8.42678 13.7533C8.3541 13.5117 8.42678 13.2587 8.61803 13.0976C8.75191 12.9826 8.89727 12.9749 8.9929 13.0823C9.09235 13.1935 9.07322 13.3123 8.93169 13.4427C8.87814 13.4925 8.84372 13.5462 8.87049 13.6191C8.90109 13.6996 8.96612 13.7188 9.04645 13.7188C9.18033 13.7149 9.28361 13.6498 9.37158 13.5501C9.51694 13.3814 9.6623 13.2127 9.8153 13.0516C9.93388 12.9174 10.0295 12.9021 10.1863 12.9941C10.2973 13.0593 10.4005 13.0593 10.5115 12.9941C10.676 12.8982 10.7678 12.9174 10.894 13.0593C11.047 13.228 11.1962 13.4005 11.3454 13.5692C11.4333 13.6689 11.5404 13.7226 11.6781 13.7188C11.747 13.7149 11.8005 13.6881 11.8235 13.6229C11.8503 13.5539 11.8311 13.5002 11.7776 13.4542C11.7623 13.4427 11.747 13.4312 11.7317 13.4159C11.6284 13.32 11.6131 13.1935 11.6934 13.09C11.7661 12.9979 11.8962 12.9788 12.0071 13.0439C12.2251 13.1705 12.3361 13.4312 12.2863 13.6958Z" fill="white"/>
<path d="M10.8098 20.4976V20.766C10.7716 20.7852 10.7333 20.8044 10.6913 20.8235H10.106V20.6357C10.1978 20.6318 10.282 20.6242 10.3546 20.6127C10.4044 20.605 10.4541 20.5973 10.4962 20.5897C10.6033 20.5666 10.676 20.5436 10.7104 20.536C10.7448 20.5206 10.7792 20.5091 10.8098 20.4976Z" fill="white"/>
<path d="M10.8098 17.8559V19.2247C10.6568 19.4854 10.5803 19.7231 10.5383 19.865C10.5344 19.8228 10.5268 19.7231 10.4962 19.5889C10.4694 19.4624 10.4273 19.309 10.3546 19.1403C10.2934 18.9946 10.2131 18.8413 10.106 18.6879V17.8559H10.8098Z" fill="white"/>
</svg>
