<svg width="525" height="525" viewBox="0 0 525 525" fill="none" xmlns="http://www.w3.org/2000/svg">
<path d="M262.405 0.650391C117.887 0.650391 0.650391 118.164 0.650391 263.025C0.650391 356.252 49.2047 438.1 122.275 484.666C156.138 506.18 195.344 520.236 237.412 524.156C246.283 524.634 252.865 524.252 258.875 522.722C260.02 522.435 261.26 522.053 262.405 521.67C263.359 521.383 264.408 521.001 265.362 520.618C266.029 520.331 266.602 520.14 267.27 519.853C268.319 519.375 269.273 518.897 270.227 518.419C275.664 515.551 280.338 512.013 284.345 508.092C281.96 508.284 279.575 508.475 277.19 508.57C275.092 509.718 272.802 510.77 270.322 511.63C269.464 511.917 268.7 512.204 267.842 512.491C267.079 512.778 265.171 513.351 262.5 513.829C261.451 514.021 260.306 514.212 258.97 514.403C257.063 514.69 254.964 514.881 252.77 514.977C243.899 515.359 232.452 513.829 222.436 506.276C222.149 505.989 221.768 505.798 221.482 505.511C202.785 502.355 184.565 497.096 166.918 489.543C153.277 483.71 140.304 476.826 127.998 468.698C113.975 459.519 100.907 448.81 88.8875 436.762C66.3751 414.196 48.6323 387.806 36.2314 358.547C23.4489 328.236 16.9623 296.013 16.9623 262.738C16.9623 229.463 23.4489 197.24 36.2314 166.929C48.6323 137.575 66.2797 111.28 88.8875 88.7141C111.4 66.1484 137.728 48.3635 166.918 35.9332C197.157 23.1205 229.304 16.6185 262.5 16.6185C295.696 16.6185 327.843 23.1205 358.082 35.9332C387.367 48.3635 413.6 66.0528 436.112 88.7141C458.625 111.28 476.368 137.67 488.769 166.929C501.551 197.24 508.038 229.463 508.038 262.738C508.038 296.013 501.551 328.236 488.769 358.547C476.368 387.901 458.72 414.196 436.112 436.762C423.33 449.575 409.403 460.762 394.426 470.324C382.884 477.686 370.769 484.092 358.082 489.447C345.109 494.993 331.754 499.296 318.209 502.451C308.86 516.22 294.933 521.001 291.594 522.053C300.084 521.67 309.433 520.714 319.544 518.802C338.336 514.594 356.461 508.379 373.44 500.347C374.299 499.965 375.157 499.487 376.111 499.104C376.874 498.722 377.542 498.435 378.305 498.053C379.068 497.67 379.927 497.288 380.69 496.81C381.358 496.523 381.93 496.14 382.598 495.853C383.266 495.567 383.838 495.184 384.506 494.897C385.078 494.61 385.555 494.324 386.032 494.037C387.081 493.463 388.035 492.985 389.084 492.411C390.134 491.837 391.088 491.264 392.137 490.69C392.996 490.212 393.759 489.734 394.617 489.256C472.266 443.742 524.35 359.312 524.35 262.642C524.159 118.164 407.018 0.650391 262.405 0.650391Z" fill="#489789"/>
<path d="M121.074 273.831L54.7426 266.229L58.0944 236.845L71.0443 238.329L69.3779 252.938L79.871 254.14L81.4518 240.283L94.2351 241.748L92.6544 255.605L122.76 259.056L121.074 273.831Z" fill="#489789"/>
<path d="M71.2239 195.018L136.444 211.126L131.536 224.535L121.732 222.049L119.163 229.069L128.288 233.409L123.352 246.898L63.2705 216.75L71.2239 195.018ZM79.1924 209.717L78.7305 210.979L108.113 223.887L109.932 218.918L79.1924 209.717Z" fill="#489789"/>
<path d="M157.583 182.237L149.239 192.547L106.718 168.466L144.116 198.877L135.192 209.904L83.3414 167.742L97.4942 150.255L128.45 167.42L105.284 140.63L119.568 122.979L171.419 165.141L162.388 176.299L124.99 145.889L157.583 182.237Z" fill="#489789"/>
<path d="M175.008 165.891L135.83 111.702L147.369 103.321L186.547 157.509L175.008 165.891Z" fill="#489789"/>
<path d="M188.898 155.559L159.702 95.3747L172.969 88.9079L196.466 137.343L210.11 130.692L215.81 142.442L188.898 155.559Z" fill="#489789"/>
<path d="M234.966 138.11L221.44 141.379L216.292 119.98L194.341 79.0897L208.561 75.6529L217.858 96.741L216.546 73.7229L230.725 70.2959L229.819 116.71L234.966 138.11Z" fill="#489789"/>
<path d="M295.959 139L294.314 133.017C291.081 136.863 286.756 138.378 281.341 137.562C270.813 135.975 266.573 128.354 268.622 114.7L272.922 86.034C273.392 82.9043 274.215 80.2387 275.393 78.0371C276.571 75.8355 277.848 74.2011 279.223 73.1338C280.63 72.043 282.26 71.2549 284.113 70.7695C285.966 70.2841 287.611 70.0506 289.049 70.0691C290.52 70.0641 292.083 70.1866 293.741 70.4364C295.786 70.7446 297.614 71.176 299.227 71.7306C300.843 72.2574 302.199 72.915 303.296 73.7034C304.421 74.496 305.38 75.3488 306.176 76.2617C306.976 77.1469 307.58 78.2011 307.99 79.4241C308.432 80.6236 308.749 81.8043 308.942 82.9663C309.167 84.1048 309.26 85.4641 309.221 87.0443C309.186 88.5967 309.096 90.0419 308.952 91.3796C308.835 92.7215 308.642 94.2926 308.372 96.0929L294.446 93.9939L295.231 88.7593C295.389 87.7068 295.409 86.8177 295.292 86.092C295.175 85.3662 294.93 84.8336 294.557 84.4942C294.216 84.1312 293.886 83.8832 293.567 83.7502C293.252 83.5894 292.887 83.4778 292.472 83.4153C291.644 83.2904 290.95 83.2991 290.392 83.4416C289.861 83.5882 289.419 83.8047 289.065 84.0913C288.739 84.382 288.44 84.9601 288.169 85.8256C287.902 86.6633 287.697 87.4679 287.553 88.2392C287.409 89.0106 287.212 90.2271 286.963 91.8889L283.124 117.481C282.978 118.45 282.883 119.271 282.839 119.944C282.822 120.621 282.88 121.367 283.012 122.179C283.145 122.992 283.456 123.648 283.946 124.147C284.468 124.622 285.171 124.927 286.056 125.06C287.52 125.281 288.572 124.859 289.212 123.794C289.884 122.705 290.413 120.873 290.8 118.298L291.947 110.653L288.051 110.066L289.764 98.6413L307.421 101.303L301.637 139.856L295.959 139Z" fill="#489789"/>
<path d="M355.467 90.3667L335.388 154.62L322.34 148.88L325.423 139.225L318.591 136.22L313.704 145.081L300.579 139.306L334.32 81.0634L355.467 90.3667ZM340.337 97.4285L339.109 96.8882L324.436 125.485L329.271 127.613L340.337 97.4285Z" fill="#489789"/>
<path d="M367.72 141.385C367.72 141.385 361.397 149.317 348.75 165.179L337.094 155.842L378.776 103.561L396.457 117.724C398.268 119.176 399.617 120.669 400.504 122.203C401.408 123.716 401.909 125.175 402.005 126.579C402.119 127.961 401.852 129.486 401.202 131.152C400.592 132.815 399.821 134.366 398.888 135.806C397.972 137.223 396.764 138.873 395.264 140.754C394.479 141.739 393.812 142.531 393.262 143.131C392.752 143.726 392.004 144.417 391.018 145.205C390.072 145.989 389.16 146.549 388.283 146.886C387.406 147.223 386.341 147.392 385.089 147.393C383.858 147.411 382.577 147.156 381.246 146.627C382.159 147.681 382.746 148.761 383.009 149.868C383.289 150.952 383.267 152.011 382.945 153.043C382.623 154.076 382.246 154.975 381.814 155.74C381.4 156.484 380.861 157.272 380.198 158.103C373.308 166.746 368.031 173.275 364.368 177.69L353.105 168.668L369.354 148.287C369.999 147.477 370.426 146.762 370.636 146.141C370.867 145.537 370.831 144.953 370.53 144.389C370.268 143.821 369.947 143.348 369.567 142.972C369.187 142.596 368.572 142.067 367.72 141.385ZM382.779 122.633L375.007 132.38L377.889 134.688C379.417 135.912 381.454 134.927 384.001 131.732C385.693 129.61 386.469 128.009 386.329 126.928C386.21 125.865 385.234 124.6 383.401 123.131L382.779 122.633Z" fill="#489789"/>
<path d="M365.418 178.897L419.171 139.198L431.229 155.602C434.495 160.044 435.737 164.119 434.957 167.827C434.216 171.54 431.885 174.862 427.965 177.792C427.965 177.792 419.63 184.017 402.959 196.468C397.583 200.439 392.799 202.336 388.609 202.161C384.436 202.007 380.626 199.586 377.178 194.896L365.418 178.897ZM418.457 158.199L384.039 183.619C384.111 183.67 384.222 183.797 384.371 184C384.47 184.135 384.641 184.391 384.884 184.769C385.143 185.169 385.356 185.481 385.522 185.707C387.196 187.984 388.989 188.417 390.901 187.005L417.423 167.417C419.38 165.971 420.487 164.667 420.742 163.504C421.037 162.347 420.621 161.002 419.494 159.468C419.312 159.22 418.966 158.797 418.457 158.199Z" fill="#489789"/>
<path d="M387.416 210.198L449.201 184.841L460.381 212.21L448.396 217.129L442.901 203.677L430.839 208.628L436.112 221.535L424.515 226.295L419.242 213.387L405.163 219.166L411.023 233.511L398.961 238.462L387.416 210.198Z" fill="#489789"/>
<path d="M470.474 268.656L404.363 277.985L402.353 263.675L434.401 251.686L401.325 256.353L399.315 242.043L465.426 232.714L467.541 247.773L436.864 258.975L468.488 254.512L470.474 268.656Z" fill="#489789"/>
<path d="M467.496 424.045C467.306 424.236 467.21 424.427 467.019 424.618C466.924 424.81 466.829 424.905 466.638 425.096C465.588 426.435 464.539 427.774 463.394 429.112C458.72 434.849 453.664 440.395 448.418 445.75C444.412 449.861 440.214 453.782 435.826 457.798C431.247 461.909 426.669 465.734 421.804 469.463C418.942 471.662 415.985 473.861 413.028 475.965C412.265 476.539 411.501 477.017 410.738 477.59C408.449 479.216 406.064 480.841 403.584 482.371C403.489 482.467 403.393 482.467 403.298 482.563C401.581 476.73 399.005 471.088 395.857 465.925C385.937 449.192 367.526 438.77 349.592 431.885C373.44 420.507 400.15 415.343 426.478 416.682H426.573C431.057 416.969 435.54 417.351 440.119 417.925C440.596 418.021 441.073 418.021 441.55 418.116C449.467 419.264 457.194 420.985 464.825 423.28C465.493 423.471 466.256 423.662 466.924 423.949C467.305 423.949 467.401 424.045 467.496 424.045Z" fill="#489789"/>
<path d="M495.16 380.826C494.015 383.12 492.87 385.32 491.63 387.519C485.239 399.184 478.18 410.085 470.072 420.794C469.5 420.602 468.927 420.411 468.355 420.22C467.592 420.029 466.924 419.742 466.161 419.551C463.681 418.786 461.105 418.116 458.625 417.447C453.283 416.108 447.75 414.961 442.313 414.196C442.217 414.196 442.218 414.196 442.122 414.196C441.645 414.1 441.264 414.1 440.882 414.005C436.303 413.335 431.629 412.953 426.955 412.666C426.859 412.666 426.859 412.666 426.764 412.666C398.433 411.232 369.911 417.16 344.537 429.877C342.724 429.304 340.816 428.73 339.004 428.061C325.268 423.662 309.528 421.272 296.555 420.029C296.173 415.535 297.413 409.32 295.887 405.495C298.367 403.774 301.038 401.861 303.709 400.14C327.652 384.555 354.744 374.037 382.884 369.256C399.387 366.483 416.176 365.622 432.869 366.77C434.395 366.865 436.017 366.961 437.543 367.152C438.497 367.248 439.451 367.343 440.405 367.439C445.365 367.917 450.23 368.586 455.095 369.543C455.286 369.543 455.572 369.638 455.763 369.638C456.431 369.734 457.194 369.925 457.957 370.021C467.401 371.837 476.749 374.324 485.907 377.383C487.242 377.861 488.673 378.339 490.009 378.818C490.772 379.104 491.63 379.391 492.393 379.678C493.157 380.061 494.492 380.634 495.16 380.826Z" fill="#489789"/>
<path d="M511.567 340.284C511.472 340.571 511.376 340.953 511.281 341.24C509.182 347.838 506.893 354.244 504.317 360.65C503.173 363.614 501.837 366.483 500.597 369.351C499.357 372.029 498.117 374.802 496.781 377.479C495.923 377.096 494.492 376.618 493.634 376.236C491.535 375.471 489.532 374.706 487.433 374.037C487.338 374.037 487.338 373.941 487.242 373.941C478.085 370.881 468.641 368.3 459.197 366.483C459.102 366.483 459.006 366.387 458.911 366.387C458.243 366.292 457.48 366.1 456.812 366.005C456.526 365.909 456.24 365.909 456.049 365.814C452.043 365.144 447.941 364.475 443.839 363.997C442.885 363.901 441.931 363.806 441.073 363.71C440.691 363.614 440.405 363.614 440.024 363.614C439.356 363.519 438.783 363.519 438.211 363.423C436.589 363.232 434.968 363.136 433.442 363.041C413.791 361.702 393.854 363.041 374.49 367.057C374.394 367.057 374.299 367.152 374.203 367.152C344.823 373.272 316.778 385.798 292.453 403.487C290.927 403.296 289.114 403.296 287.493 403.296C287.493 401.575 287.397 399.758 287.397 398.037C312.581 388.379 330.323 364.092 332.803 337.415C371.532 323.551 413.695 319.343 454.428 325.081C454.428 325.081 454.428 325.081 454.523 325.081C462.441 326.228 470.263 327.662 477.989 329.575C485.716 331.391 493.443 333.686 500.979 336.268C504.413 337.511 508.038 338.849 511.567 340.284Z" fill="#489789"/>
<path d="M173.5 431.025C171.878 431.694 170.256 432.268 168.635 432.937C166.727 433.702 164.915 434.563 163.102 435.423C157.283 437.814 151.941 440.682 146.695 444.411C144.119 445.941 141.448 447.758 139.254 450.053C129.333 458.085 122.561 468.411 118.65 480.65C112.735 476.73 106.916 472.523 101.288 468.124L101.193 468.029C95.6603 463.726 89.9368 458.754 84.6903 453.877C80.7792 450.244 77.0589 446.515 73.3387 442.594C70.5723 439.63 67.806 436.666 65.135 433.606C62.4641 430.451 59.8885 427.391 57.3129 424.045C95.1833 411.901 137.442 414.292 173.5 431.025Z" fill="#489789"/>
<path d="M226.06 405.017C223.58 409.033 225.202 415.535 224.725 420.22C220.051 420.889 215.09 420.794 210.416 421.941C208.318 421.941 206.41 422.323 204.502 422.897C199.16 423.662 193.532 424.905 187.904 426.626C184.756 427.487 181.799 428.252 178.842 429.208C140.685 410.371 95.2787 407.407 54.8327 420.794C46.8199 410.276 39.5701 399.184 33.2743 387.519C33.2743 387.519 33.2743 387.423 33.1789 387.423C32.1296 385.511 31.1757 383.694 30.2217 381.782C30.031 381.495 29.9356 381.112 29.7448 380.826C94.0387 355.2 170.447 364.092 226.919 404.156C226.633 404.539 226.347 404.73 226.06 405.017Z" fill="#489789"/>
<path d="M234.264 398.037C234.264 399.758 234.169 401.479 234.169 403.296H232.356L230.639 402.148C172.832 360.363 94.3248 351.088 28.0277 377.383C26.6923 374.706 25.4522 371.933 24.3075 369.351V369.256C22.1135 364.284 20.0148 359.407 18.107 354.244C16.39 349.654 14.7683 344.873 13.2421 340.188C48.9185 326.037 87.9336 320.3 126.09 323.264C130.287 323.551 134.485 324.029 138.586 324.507C155.375 326.61 172.069 330.435 188.095 335.885H188.19C188.381 335.981 188.572 335.981 188.762 336.077C191.243 363.997 207.364 386.658 234.264 398.037Z" fill="#489789"/>
<path d="M208.222 443.455C198.969 467.072 204.884 492.507 221.482 505.702C221.768 505.989 222.149 506.18 222.436 506.467C232.452 514.021 243.899 515.551 252.77 515.168C255.059 515.072 257.158 514.881 258.97 514.594V522.722C252.961 524.252 246.379 524.634 237.507 524.156C235.6 524.061 233.692 523.965 231.498 523.774C231.402 523.774 231.307 523.774 231.307 523.774C191.624 519.088 154.612 505.415 122.275 484.857C122.275 484.762 122.37 484.666 122.37 484.666C122.561 483.997 122.465 483.327 121.988 482.849C123.419 477.782 125.422 473.192 127.903 468.985C140.494 447.949 165.582 436.475 188.858 430.355C201.736 426.435 213.85 425.192 227.014 423.758C227.873 423.567 228.541 422.802 228.541 421.845C228.541 418.021 228.541 414.1 228.541 410.276C228.541 408.172 228.731 407.694 228.827 407.598C229.113 407.12 233.787 407.12 235.027 407.216C235.123 408.077 235.313 409.224 235.981 410.085C240.369 414.865 245.234 418.786 249.718 423.471C251.912 425.766 253.152 427.965 253.819 430.547C254.582 433.702 257.444 442.212 258.494 446.037C258.589 446.419 258.684 446.802 258.78 446.993V478.069C257.253 474.435 255.25 470.61 252.579 466.786C249.622 462.674 245.902 458.563 241.132 454.929C227.873 444.602 213.564 443.551 208.222 443.455Z" fill="#489789"/>
<path d="M302.183 481.415C301.801 482.563 296.364 496.523 284.249 508.188C280.243 512.013 275.664 515.646 270.131 518.515C269.177 518.993 268.223 519.471 267.174 519.949C266.506 520.236 265.934 520.523 265.266 520.714C264.312 521.096 263.263 521.479 262.309 521.766V514.021C264.98 513.447 266.793 512.873 267.651 512.682C268.51 512.395 269.368 512.108 270.131 511.822C272.612 510.961 274.901 509.909 276.999 508.762C293.788 499.678 300.943 484.284 302.183 481.415Z" fill="#489789"/>
<path d="M400.436 486.005C397.67 487.726 394.808 489.447 392.042 491.073C390.992 491.646 390.038 492.22 388.989 492.794C388.035 493.367 386.986 493.941 385.937 494.419C385.46 494.706 384.887 494.993 384.41 495.28C383.933 495.566 383.361 495.853 382.884 496.045C382.121 496.427 381.358 496.81 380.595 497.192C379.068 497.957 377.542 498.722 376.016 499.487C359.704 507.423 342.438 513.734 324.504 518.132C324.218 518.228 323.837 518.323 323.551 518.323C322.215 518.61 320.88 518.897 319.544 519.088C309.433 521.001 299.989 521.957 291.594 522.339C294.933 521.288 308.956 516.507 318.209 502.738C319.163 501.304 320.021 499.869 320.88 498.244C333.853 473.575 318.972 448.618 318.209 447.471C312.104 448.427 295.505 451.869 281.101 466.116C276.427 470.706 272.993 475.487 270.417 479.981C266.602 486.483 264.694 492.411 263.645 495.949C263.549 494.897 263.359 492.411 262.595 489.065V446.515C262.691 446.324 262.691 446.037 262.786 445.75C263.74 442.403 266.793 433.415 267.651 429.877C268.223 427.583 269.368 425.575 271.467 423.375C275.95 418.594 281.197 414.865 285.489 409.702C286.157 408.841 286.348 407.79 286.443 407.025C289.687 407.025 291.499 406.834 292.93 407.503C293.311 411.519 292.834 417.351 293.025 421.75C293.025 422.706 293.788 423.567 294.742 423.662C297.699 423.949 300.752 424.332 303.805 424.714C336.81 429.017 377.542 440.204 394.522 470.61C397.002 475.296 399.005 480.363 400.436 486.005Z" fill="#489789"/>
<path d="M344.918 238.738C343.297 252.507 341.484 266.467 339.576 280.236C309.337 275.073 284.058 254.993 258.684 238.929C275.569 239.025 292.548 239.025 309.146 239.025C320.021 239.025 331.182 239.025 342.247 239.025C343.106 238.929 344.06 238.929 344.918 238.738Z" fill="#489789"/>
<path d="M345.586 230.419C345.586 231.375 345.586 232.427 345.491 233.383C345.491 234.148 344.155 234.053 342.82 233.957C312.581 233.957 281.96 233.957 251.625 233.957C257.73 226.021 264.789 216.459 266.602 213.973L334.234 200.395C334.616 201.16 335.379 201.734 336.333 201.638C336.619 201.638 336.715 201.638 337.382 202.69C342.438 211.104 345.491 220.666 345.586 230.419Z" fill="#489789"/>
<path d="M331.468 196.093C323.646 197.814 315.633 199.344 307.811 200.778C296.173 202.881 284.44 205.559 272.707 207.854C284.917 193.989 295.601 183.854 308.479 175.726C316.873 180.124 324.6 187.774 331.468 196.093Z" fill="#489789"/>
<path d="M269.845 163.391C259.257 168.077 249.431 173.622 240.751 180.124C220.337 195.423 201.354 220.379 180.654 237.017C180.559 236.061 180.559 235.104 180.559 234.244C180.082 192.459 220.719 163.487 260.783 163.2C263.74 163.009 266.793 163.105 269.845 163.391Z" fill="#489789"/>
<path d="M303.805 173.049C276.523 192.459 267.842 206.324 245.711 235.391C245.139 235.965 244.757 236.539 244.376 237.017C230.448 256.236 207.268 277.367 181.99 281.288C180.273 270.579 178.269 259.869 176.361 249.065C176.361 245.909 181.417 245.909 180.845 242.658C198.683 229.081 212.515 212.634 227.777 197.718C241.514 183.471 259.638 171.997 279.003 164.443C287.588 166.355 296.173 168.459 303.805 173.049Z" fill="#489789"/>
<path d="M339.862 286.929C339.29 286.547 339.004 285.973 339.099 285.304C307.143 279.758 277.476 255.949 249.527 239.025C248.859 239.216 248.191 239.981 247.333 241.128C233.31 260.348 208.031 282.913 182.18 286.069C176.075 291.232 170.161 295.917 170.161 304.618C170.352 315.423 179.796 324.507 190.289 324.124C191.338 324.124 192.196 324.889 192.292 325.941C192.578 329.957 192.292 334.069 192.864 337.989C196.775 363.71 210.607 381.686 234.741 392.587C235.695 392.969 237.603 393.638 237.889 396.029C237.984 396.602 237.889 397.176 237.889 397.654C237.889 399.471 237.794 401.192 237.794 403.009C238.938 404.634 238.557 406.164 238.938 407.598C244.948 414.77 255.059 420.124 257.54 429.59C258.398 433.224 259.543 437.049 260.497 440.873C260.497 440.873 260.497 440.873 260.497 440.778C262.882 433.606 262.691 426.818 268.319 420.985C272.707 416.204 278.049 412.475 282.055 407.598C282.437 406.164 282.055 404.634 283.2 403.009C283.2 401.192 283.105 399.375 283.105 397.559C282.723 395.359 283.868 392.969 286.634 392.491C299.512 387.041 309.91 378.244 317.445 366.961C325.458 354.818 329.369 341.049 328.797 326.132C328.702 324.124 330.896 324.029 332.422 324.029C341.961 323.838 350.642 314.563 350.928 305.001C350.832 297.351 347.303 291.901 339.862 286.929ZM307.048 342.196C305.808 348.889 298.94 352.045 294.933 354.053C291.308 355.869 287.206 357.112 264.694 357.686C252.579 358.069 247.81 357.877 244.948 357.686C231.307 356.921 226.347 355.2 224.057 354.244C219.001 352.236 212.706 349.75 210.798 343.63C208.985 337.606 210.798 331.296 215.567 327.28C218.906 324.411 222.531 324.22 224.916 326.897C227.396 329.67 226.919 332.634 223.389 335.885C222.054 337.128 221.195 338.467 221.863 340.284C222.626 342.292 224.248 342.77 226.251 342.77C229.59 342.674 232.165 341.049 234.359 338.563C237.984 334.355 241.609 330.148 245.425 326.132C248.382 322.786 250.767 322.403 254.678 324.698C257.444 326.324 260.02 326.324 262.786 324.698C266.888 322.308 269.177 322.786 272.325 326.324C276.141 330.531 279.861 334.834 283.582 339.041C285.776 341.527 288.446 342.865 291.881 342.77C293.598 342.674 294.933 342.005 295.505 340.379C296.173 338.658 295.696 337.32 294.361 336.172C293.979 335.885 293.598 335.598 293.216 335.216C290.64 332.826 290.259 329.67 292.262 327.089C294.075 324.794 297.318 324.316 300.084 325.941C305.522 329.096 308.288 335.598 307.048 342.196Z" fill="#489789"/>
<path d="M270.227 511.822V518.515C269.273 518.993 268.319 519.471 267.27 519.949H252.675V515.264C254.964 515.168 257.063 514.977 258.875 514.69C260.115 514.499 261.355 514.308 262.405 514.116C265.076 513.543 266.888 512.969 267.747 512.778C268.605 512.395 269.464 512.108 270.227 511.822Z" fill="#489789"/>
<path d="M270.227 445.941V480.077C266.411 486.578 264.503 492.507 263.454 496.045C263.359 494.993 263.168 492.507 262.405 489.16C261.737 486.005 260.688 482.18 258.875 477.973C257.349 474.339 255.346 470.515 252.675 466.69V445.941H270.227Z" fill="#489789"/>
</svg>
