<svg width="14" height="22" viewBox="0 0 14 22" fill="none" xmlns="http://www.w3.org/2000/svg">
<path d="M12.3128 0H1.53909C1.1309 0 0.739427 0.165561 0.450791 0.460261C0.162154 0.754961 0 1.15466 0 1.57143V20.4286C0 20.8453 0.162154 21.245 0.450791 21.5397C0.739427 21.8344 1.1309 22 1.53909 22H12.3128C12.721 22 13.1124 21.8344 13.4011 21.5397C13.6897 21.245 13.8519 20.8453 13.8519 20.4286V1.57143C13.8519 1.15466 13.6897 0.754961 13.4011 0.460261C13.1124 0.165561 12.721 0 12.3128 0ZM7.69547 20.4286H6.15638V18.8571H7.69547V20.4286ZM1.53909 17.2857V1.57143H12.3128V17.2857H1.53909Z" fill="#909094"/>
</svg>
