<svg width="23" height="23" viewBox="0 0 23 23" fill="none" xmlns="http://www.w3.org/2000/svg">
<path d="M20.9922 9.17392L20.3295 8.51117C19.9981 8.1798 19.8877 7.73796 19.8877 7.29613V6.41246C19.8877 4.53467 18.4517 3.09871 16.5739 3.09871H15.6902C15.2484 3.09871 14.8066 2.87779 14.4752 2.65688L13.8124 1.99413C12.5974 0.668625 10.3882 0.668625 9.17319 1.99413L8.51044 2.65688C8.17907 2.87779 7.73723 3.09871 7.2954 3.09871H6.41173C4.53394 3.09871 3.09798 4.53467 3.09798 6.41246V7.29613C3.09798 7.73796 2.87706 8.1798 2.65614 8.51117L1.99339 9.17392C0.667892 10.4994 0.667892 12.5981 1.99339 13.9236L2.65614 14.4759C2.98752 14.8073 3.09798 15.2491 3.09798 15.691V16.5746C3.09798 18.4524 4.53394 19.8884 6.41173 19.8884H7.2954C7.73723 19.8884 8.17907 20.1093 8.51044 20.3302L9.17319 20.993C10.4987 22.3185 12.5974 22.3185 13.9229 20.993L14.5857 20.3302C14.917 19.9988 15.3589 19.8884 15.8007 19.8884H16.6844C18.5622 19.8884 19.9981 18.4524 19.9981 16.5746V15.691C19.9981 15.2491 20.219 14.8073 20.44 14.4759L21.1027 13.8132C22.3177 12.4877 22.3177 10.389 20.9922 9.17392Z" stroke="#6F6F6F" stroke-width="1.5" stroke-miterlimit="10"/>
<path d="M8.73139 7.29614C9.5046 7.29614 10.1673 7.95889 10.1673 8.7321C10.1673 9.50531 9.5046 10.0576 8.73139 10.0576C7.95818 10.0576 7.40589 9.39485 7.40589 8.7321C7.29543 7.95889 7.95818 7.29614 8.73139 7.29614Z" fill="#6F6F6F"/>
<path d="M14.2543 15.691C15.0474 15.691 15.6903 15.0481 15.6903 14.255C15.6903 13.462 15.0474 12.8191 14.2543 12.8191C13.4613 12.8191 12.8184 13.462 12.8184 14.255C12.8184 15.0481 13.4613 15.691 14.2543 15.691Z" fill="#6F6F6F"/>
<path d="M15.5798 8.95299L8.95226 15.5805C8.73134 15.8014 8.51042 15.9119 8.17905 15.9119C7.84767 15.9119 7.62675 15.8014 7.40584 15.5805C6.964 15.1387 6.964 14.4759 7.40584 14.0341L14.0333 7.40657C14.4752 6.96474 15.1379 6.96474 15.5798 7.40657C16.0216 7.8484 16.0216 8.51115 15.5798 8.95299Z" fill="#6F6F6F"/>
</svg>
