<svg width="15" height="17" viewBox="0 0 15 17" fill="none" xmlns="http://www.w3.org/2000/svg">
<path d="M5.84045 0.0659561C5.14438 0.250849 4.56795 0.794647 4.35043 1.4744C4.27974 1.69736 4.26342 1.87138 4.24167 2.56745L4.22536 3.39946H2.90935C1.52809 3.39946 1.45196 3.4049 1.33776 3.58435C1.23987 3.72574 0 13.661 0 14.2701C0 14.9716 0.130513 15.3088 0.532928 15.6894C0.652565 15.7982 0.826582 15.9287 0.919028 15.9776C1.31601 16.1788 1.2725 16.1789 6.50933 16.1789H11.4036L11.7298 16.4997C12.1431 16.9075 12.3335 17 12.7631 17C13.1709 16.9946 13.4265 16.8912 13.6821 16.6139C13.9051 16.3746 14.0084 16.1517 14.0465 15.8363C14.0682 15.6731 14.1117 15.5317 14.2096 15.3794C14.5848 14.7595 14.5957 14.852 13.8235 8.75049C13.3776 5.18313 13.1709 3.64961 13.122 3.58435C13.0078 3.41033 12.9317 3.39946 11.5504 3.39946H10.2344L10.2181 2.56745C10.1963 1.87138 10.18 1.7028 10.1093 1.4744C9.89179 0.789209 9.30992 0.245407 8.60841 0.0605125C8.28213 -0.0210571 6.15586 -0.0210514 5.84045 0.0659561ZM8.6356 0.974092C8.88575 1.09373 9.0924 1.30581 9.23379 1.56683C9.31536 1.72454 9.32623 1.79525 9.33711 2.56745L9.34799 3.39946H7.23259H5.11176V2.64902C5.11176 1.82788 5.13351 1.69192 5.32384 1.42002C5.49242 1.16987 5.69363 1.01216 5.96009 0.919712C6.15042 0.854456 6.28637 0.843596 7.29241 0.854471L8.41264 0.859888L8.6356 0.974092ZM4.23623 4.89492C4.23623 5.37891 4.25255 5.59644 4.29061 5.69433C4.35043 5.83571 4.52445 5.95534 4.67671 5.95534C4.82898 5.95534 4.99756 5.83571 5.06281 5.69433C5.10088 5.59644 5.11719 5.37891 5.11719 4.89492V4.23692H7.23259H9.34799V4.89492C9.34799 5.37891 9.3643 5.59644 9.40237 5.69433C9.46219 5.83571 9.6362 5.95534 9.78847 5.95534C9.94073 5.95534 10.1093 5.83571 10.1746 5.69433C10.2126 5.59644 10.2289 5.37891 10.2289 4.89492V4.23692H11.3057H12.3824L12.4042 4.32393C12.4585 4.59583 13.6223 14.1015 13.6223 14.3082C13.6223 14.8139 13.6495 14.8248 12.9099 14.0852C12.3933 13.5795 12.1975 13.4 12.0289 13.3239C11.7353 13.1879 11.4308 13.1607 11.148 13.2369L10.9305 13.2967L10.7184 13.0901L10.5063 12.878L10.664 12.6659C10.887 12.3722 11.1589 11.8284 11.2785 11.4423C11.583 10.4798 11.5123 9.31062 11.0882 8.41334C10.615 7.38012 9.73953 6.56439 8.7063 6.18917C7.11295 5.61273 5.39453 5.98252 4.20904 7.16801C3.6598 7.71725 3.29001 8.36439 3.06162 9.19097C2.99636 9.44112 2.98004 9.60426 2.98004 10.1698C2.98004 10.7789 2.99092 10.8876 3.08881 11.2357C3.51841 12.8508 4.81266 14.058 6.44408 14.3626C6.85193 14.4387 7.56975 14.4387 7.9776 14.3626C8.57579 14.2484 9.19572 13.9928 9.67427 13.6556L9.9081 13.4925L10.1202 13.6991L10.3377 13.9112L10.2833 14.0471C10.1637 14.3353 10.2616 15.0314 10.4465 15.1837C10.4791 15.2109 10.5063 15.249 10.5063 15.2653C10.5063 15.287 8.61385 15.2979 5.96009 15.2925L1.41389 15.2816L1.24531 15.1674C1.15286 15.1076 1.02779 14.9879 0.967971 14.8955C0.766763 14.5855 0.766763 14.5692 1.4302 9.24535C1.76736 6.58615 2.0447 4.37287 2.05558 4.31849L2.07189 4.23147H3.15406H4.23079V4.89492H4.23623ZM8.06461 6.91788C8.56491 7.04296 9.14134 7.35837 9.51113 7.7064C10.0169 8.17951 10.2725 8.58734 10.49 9.23447C10.5933 9.54443 10.6042 9.62601 10.6042 10.1916C10.6096 10.7245 10.5987 10.855 10.5172 11.1269C10.1854 12.2743 9.3208 13.139 8.17337 13.4925C7.85253 13.5904 7.7492 13.6012 7.23259 13.6012C6.71598 13.6012 6.61265 13.5904 6.30269 13.4979C5.14438 13.1444 4.27974 12.2798 3.95345 11.1432C3.83382 10.7245 3.80663 9.99037 3.89907 9.54989C4.10028 8.53298 4.7746 7.65201 5.7045 7.1789C6.4332 6.80911 7.26522 6.71668 8.06461 6.91788ZM12.4314 14.8139L13.1818 15.5644V15.7384C13.1764 16.0103 13.0078 16.1789 12.7359 16.1789C12.6217 16.1789 12.5238 16.0973 11.8386 15.4066C11.1534 14.7214 11.0664 14.6236 11.0664 14.5094C11.0664 14.232 11.235 14.0635 11.5069 14.0635H11.6809L12.4314 14.8139Z" fill="#3C9081"/>
<path d="M5.22617 9.06589C5.03583 9.25622 5.07934 9.5825 5.30774 9.71845C5.40562 9.77827 5.61227 9.78369 7.22736 9.78369C8.84246 9.78369 9.04367 9.77827 9.14699 9.71845C9.38083 9.5825 9.41889 9.25622 9.22856 9.06589L9.11436 8.95168H7.22736H5.3458L5.22617 9.06589Z" fill="#3C9081"/>
<path d="M5.36748 10.681C5.30222 10.7136 5.20977 10.7789 5.17714 10.8278C5.09557 10.9475 5.09557 11.1813 5.17714 11.3009C5.30766 11.4912 5.43273 11.5021 6.59103 11.5021C7.74934 11.5021 7.87441 11.4858 8.00492 11.3009C8.04299 11.2465 8.07018 11.1432 8.07018 11.0671C8.07018 10.8876 7.97774 10.7571 7.80916 10.681C7.61882 10.6049 5.54693 10.6049 5.36748 10.681Z" fill="#3C9081"/>
</svg>
