<svg width="13" height="15" viewBox="0 0 13 15" fill="none" xmlns="http://www.w3.org/2000/svg">
<path d="M9.28554 6.56267C9.28554 7.30858 8.99207 8.02394 8.46968 8.55137C7.94729 9.07881 7.23877 9.37512 6.5 9.37512C5.76123 9.37512 5.05271 9.07881 4.53032 8.55137C4.00793 8.02394 3.71446 7.30858 3.71446 6.56267C3.71446 5.81677 4.00793 5.10141 4.53032 4.57398C5.05271 4.04654 5.76123 3.75023 6.5 3.75023C7.23877 3.75023 7.94729 4.04654 8.46968 4.57398C8.99207 5.10141 9.28554 5.81677 9.28554 6.56267ZM8.35703 6.56267C8.35703 6.0654 8.16138 5.5885 7.81312 5.23688C7.46486 4.88525 6.99251 4.68771 6.5 4.68771C6.00749 4.68771 5.53514 4.88525 5.18688 5.23688C4.83862 5.5885 4.64297 6.0654 4.64297 6.56267C4.64297 7.05994 4.83862 7.53685 5.18688 7.88847C5.53514 8.24009 6.00749 8.43763 6.5 8.43763C6.99251 8.43763 7.46486 8.24009 7.81312 7.88847C8.16138 7.53685 8.35703 7.05994 8.35703 6.56267ZM11.0961 11.2079C12.3152 9.97643 13 8.30659 13 6.56549C13 4.82439 12.3152 3.15455 11.0961 1.92309C10.4927 1.31342 9.77622 0.829782 8.98759 0.49981C8.19896 0.169838 7.35366 0 6.5 0C5.64634 0 4.80104 0.169838 4.01241 0.49981C3.22378 0.829782 2.50728 1.31342 1.90386 1.92309C0.684804 3.15455 0 4.82439 0 6.56549C0 8.30659 0.684804 9.97643 1.90386 11.2079L3.31613 12.6132L5.21308 14.4741L5.33657 14.5847C6.05617 15.1734 7.11003 15.1359 7.78785 14.4741L10.0488 12.2522L11.0961 11.2079ZM2.55846 2.58401C3.07599 2.06125 3.69045 1.64656 4.36675 1.36363C5.04306 1.08071 5.76794 0.935084 6.5 0.935084C7.23206 0.935084 7.95694 1.08071 8.63325 1.36363C9.30955 1.64656 9.92401 2.06125 10.4415 2.58401C11.458 3.61097 12.0424 4.99457 12.0729 6.4461C12.1033 7.89763 11.5774 9.30497 10.605 10.3745L10.4415 10.547L9.21497 11.7694L7.14439 13.8019L7.05711 13.8769C6.89657 13.999 6.70101 14.0651 6.5 14.0651C6.29898 14.0651 6.10343 13.999 5.94289 13.8769L5.85654 13.8019L3.08957 11.0785L2.55846 10.547L2.39504 10.3754C1.42256 9.30591 0.896678 7.89857 0.927127 6.44704C0.957575 4.99551 1.542 3.61097 2.55846 2.58401Z" fill="#3C9081"/>
</svg>
