<svg width="19" height="12" viewBox="0 0 19 12" fill="none" xmlns="http://www.w3.org/2000/svg">
<path fill-rule="evenodd" clip-rule="evenodd" d="M16.1883 3.45846C14.0987 1.83947 11.9169 1 9.9194 1C7.92195 1 5.74011 1.83947 3.65047 3.45846C2.08323 4.6577 1.1306 5.85695 1.06914 5.91691C0.976952 6.03684 0.976952 6.18674 1.06914 6.27669C1.09987 6.33665 2.08323 7.50592 3.65047 8.73515C5.74011 10.3541 7.92195 11.1936 9.9194 11.1936C11.9169 11.1936 14.0987 10.3541 16.1883 8.73515C17.7556 7.5359 18.7082 6.33665 18.7697 6.27669C18.8619 6.15676 18.8619 6.00686 18.7697 5.91691C18.7389 5.85695 17.7556 4.6577 16.1883 3.45846ZM9.9194 10.594C5.89376 10.594 2.48273 6.96626 1.71447 6.0968C2.48273 5.22735 5.89376 1.59962 9.9194 1.59962C13.945 1.59962 17.3561 5.22735 18.1243 6.0968C17.3561 6.96626 13.945 10.594 9.9194 10.594Z" fill="#909094" stroke="#909094" stroke-width="0.25"/>
<path fill-rule="evenodd" clip-rule="evenodd" d="M9.85569 3.43701C8.26975 3.43701 6.97217 4.7346 6.97217 6.32053C6.97217 7.90647 8.26975 9.20405 9.85569 9.20405C11.4416 9.20405 12.7392 7.90647 12.7392 6.32053C12.7392 4.7346 11.4416 3.43701 9.85569 3.43701ZM9.85569 8.71385C8.52927 8.71385 7.46237 7.64695 7.46237 6.32053C7.46237 4.99411 8.52927 3.92721 9.85569 3.92721C11.1821 3.92721 12.249 4.99411 12.249 6.32053C12.249 7.61812 11.1821 8.71385 9.85569 8.71385Z" fill="#909094" stroke="#909094" stroke-width="0.25"/>
</svg>
