<svg width="117" height="113" viewBox="0 0 117 113" fill="none" xmlns="http://www.w3.org/2000/svg">
<path d="M82.9601 37.9111C86.4409 40.6147 91.4762 40.0064 94.1798 36.4918C96.8833 33.0109 96.275 27.9756 92.7604 25.272C89.7865 22.9402 85.6636 23.0754 82.8587 25.3396L81.1014 23.9879L78.4992 24.7989L78.8034 22.1968L76.6068 20.4733L74.0046 21.2843L74.3087 18.6822L72.4163 17.229L70.8279 17.7359L70.9969 16.1476L69.8817 15.3027L67.3809 15.5393L67.043 19.358L80.1214 29.5301C79.3441 32.5378 80.3241 35.8497 82.9601 37.9111ZM92.4901 35.1738C91.7128 36.1876 90.2597 36.3566 89.2796 35.5793C88.2658 34.802 88.0968 33.3489 88.8741 32.3688C89.6514 31.355 91.1045 31.1861 92.0845 31.9633C93.0646 32.7406 93.2673 34.1599 92.4901 35.1738Z" fill="#EBEBEB"/>
<path d="M93.4705 7.36071C94.9574 5.53582 94.687 2.83228 92.8622 1.34533C91.0373 -0.14162 88.3337 0.128735 86.8468 1.95363C85.5626 3.50816 85.5964 5.70479 86.7454 7.25933L86.0019 8.17178L86.4074 9.59114L85.0219 9.38837L84.0756 10.5374L84.4812 11.9567L83.0956 11.754L82.2845 12.734L82.5211 13.5789L81.6762 13.4775L81.2031 14.052L81.3045 15.4038L83.366 15.6403L88.9758 8.78007C90.5641 9.2194 92.3552 8.71248 93.4705 7.36071ZM92.1525 2.22398C92.6932 2.66331 92.7608 3.44058 92.3214 3.94749C91.8821 4.4882 91.1049 4.55579 90.5979 4.11646C90.0572 3.67714 89.9896 2.89987 90.429 2.39295C90.8683 1.88604 91.6118 1.78465 92.1525 2.22398Z" fill="#EBEBEB"/>
<path d="M102.492 96.2059L110.839 108.372L113.847 108.439L108.372 95.9355L102.492 96.2059Z" fill="#263238"/>
<path d="M14.2214 96.814L9.82812 108.304H12.0248L19.7299 96.8816L14.2214 96.814Z" fill="#263238"/>
<path d="M12.3312 55.0784L12.6691 69.9479C12.7029 72.0431 14.3927 73.7328 16.5217 73.8004L99.7232 75.6591C101.92 75.6929 103.745 73.9356 103.745 71.739V53.828C103.745 48.5561 99.8584 44.0614 94.6203 43.3518C79.3791 41.2565 47.9842 38.0461 22.6047 42.6083C16.5217 43.6559 12.196 48.9616 12.3312 55.0784Z" fill="#FF8A00"/>
<path d="M11.9588 60.2491C11.9588 60.2491 5.09858 57.0725 3.71301 60.2491C2.32745 63.4258 3.88198 67.3121 5.43652 69.5088C6.99106 71.7054 6.95726 98.4705 6.95726 98.4705L110.909 97.3552L112.125 71.5702C112.125 71.5702 117.127 65.4196 116.789 62.7837C116.485 60.1477 112.26 56.2952 107.428 60.2491C102.595 64.2031 101.345 72.4489 101.345 72.4489L18.4811 73.0572C18.5149 73.091 18.7853 61.4995 11.9588 60.2491Z" fill="#FF8A00"/>
<path d="M100.33 77.619C100.33 77.6528 81.9116 77.7203 59.2019 77.7203C36.4921 77.7203 18.0742 77.6866 18.0742 77.619C18.0742 77.5852 36.4921 77.5176 59.2019 77.5176C81.9116 77.5176 100.33 77.5852 100.33 77.619Z" fill="#263238"/>
<path d="M18.0743 88.9738C18.0743 88.9738 18.0743 88.94 18.0743 88.9062C18.0743 88.8386 18.0743 88.771 18.0743 88.6697C18.0743 88.4669 18.0743 88.1627 18.0405 87.7572C18.0405 86.9462 18.0405 85.7971 18.0405 84.3778C18.0405 81.5053 18.0743 77.5851 17.9391 73.2257C17.8715 71.0628 17.7701 68.9676 17.466 67.1089C17.3984 66.8723 17.3308 66.6696 17.297 66.433C17.1956 66.2303 17.128 65.9937 17.0266 65.7909C16.8577 65.3854 16.6549 64.9799 16.4521 64.6081C16.0466 63.8647 15.6411 63.2226 15.2017 62.6481C14.7624 62.1073 14.2893 61.6342 13.85 61.2963C13.4106 60.9583 13.0051 60.688 12.6334 60.519C11.9237 60.1811 11.4844 60.0797 11.4844 60.0459C11.4844 60.0459 11.5182 60.0459 11.552 60.0459C11.6196 60.0459 11.6871 60.0797 11.7885 60.1135C11.9913 60.1473 12.2954 60.2825 12.6672 60.4514C13.0389 60.6204 13.4444 60.857 13.9176 61.2287C14.3569 61.5666 14.83 62.0398 15.3031 62.5805C15.7762 63.1212 16.2156 63.7971 16.5873 64.5405C16.7901 64.9123 16.9928 65.3178 17.1618 65.7233C17.2632 65.9261 17.3308 66.1289 17.4322 66.3654C17.4998 66.602 17.5673 66.8048 17.6349 67.0413C17.9729 68.9338 18.0405 70.9952 18.1419 73.1919C18.277 77.5513 18.2432 81.5053 18.2094 84.3778C18.1756 85.7971 18.1756 86.9462 18.1756 87.7572C18.1756 88.129 18.1756 88.4669 18.1756 88.6697C18.1756 88.771 18.1756 88.8386 18.1756 88.9062C18.0743 88.94 18.0743 88.9738 18.0743 88.9738Z" fill="#263238"/>
<path d="M11.1468 66.2306C11.1468 66.2306 11.2482 66.163 11.4172 66.1292C11.5861 66.0954 11.8903 66.1292 12.1944 66.332C12.3296 66.4334 12.4648 66.5685 12.5662 66.7375C12.6676 66.9065 12.7014 67.143 12.6676 67.3796C12.6 67.8189 12.2282 68.292 11.6875 68.4272C11.1468 68.5286 10.6399 68.1907 10.4033 67.8189C10.2682 67.6162 10.2344 67.3796 10.2344 67.1768C10.2344 66.9741 10.302 66.7713 10.3696 66.6361C10.5385 66.332 10.7751 66.163 10.9441 66.0954C11.113 66.0278 11.2144 66.0278 11.2144 66.0278C11.2144 66.0278 11.113 66.0616 10.9778 66.163C10.8427 66.2644 10.6061 66.4334 10.4709 66.7037C10.3358 66.9741 10.302 67.3796 10.5047 67.7175C10.7075 68.0555 11.1468 68.3258 11.6199 68.2583C12.0593 68.1569 12.3972 67.7513 12.4648 67.3796C12.5324 66.9741 12.3296 66.6361 12.0931 66.4334C11.8565 66.2306 11.5861 66.1968 11.4172 66.1968C11.2482 66.2306 11.1468 66.2644 11.1468 66.2306Z" fill="#263238"/>
<path d="M11.622 72.9214C11.622 72.9214 11.3855 72.7524 11.1489 72.3807C10.9123 72.009 10.6758 71.4007 10.6758 70.691C10.6758 69.9813 10.8785 69.373 11.1151 69.0013C11.3517 68.5957 11.5544 68.4268 11.5882 68.4268C11.622 68.4606 11.4193 68.6633 11.2503 69.0351C11.0475 69.4068 10.8785 70.0151 10.8785 70.6572C10.8785 71.3331 11.0813 71.9076 11.2841 72.2793C11.4531 72.6848 11.6558 72.8876 11.622 72.9214Z" fill="#263238"/>
<path d="M10.54 62.8848C10.5738 62.8848 10.5062 63.0875 10.4386 63.3917C10.371 63.6958 10.371 64.1352 10.4724 64.6083C10.5738 65.0814 10.7765 65.4531 10.9455 65.7235C11.1145 65.9938 11.2496 66.129 11.2496 66.129C11.2496 66.129 11.0469 66.0276 10.8441 65.7911C10.6413 65.5545 10.4048 65.149 10.3034 64.6421C10.202 64.1352 10.2358 63.6958 10.3372 63.3579C10.4048 63.0537 10.5062 62.8848 10.54 62.8848Z" fill="#263238"/>
<path d="M8.51063 66.6359C8.54443 66.6021 8.84858 66.9062 9.35549 67.1766C9.82861 67.4131 10.2679 67.5145 10.2679 67.5483C10.2679 67.5821 9.79482 67.5821 9.2879 67.3118C8.74719 67.0414 8.47684 66.6359 8.51063 66.6359Z" fill="#263238"/>
<path d="M111.279 88.9739C111.279 89.0077 87.826 89.0753 58.9319 89.0753C30.004 89.0753 6.55078 89.0415 6.55078 88.9739C6.55078 88.9064 30.004 88.8726 58.9319 88.8726C87.8598 88.8726 111.279 88.9064 111.279 88.9739Z" fill="#263238"/>
<path d="M99.9608 72.5503C99.9945 72.5503 100.062 76.2339 100.062 80.7623C100.062 85.2907 100.028 88.9743 99.9608 88.9743C99.8932 88.9743 99.8594 85.2907 99.8594 80.7623C99.8594 76.2339 99.927 72.5503 99.9608 72.5503Z" fill="#263238"/>
<path d="M65.2516 44.1968C65.2516 44.1968 65.184 44.1968 65.0826 44.1968C64.9812 44.1968 64.8122 44.1968 64.6095 44.2306C64.1702 44.2306 63.5619 44.2644 62.7846 44.2982C61.1963 44.332 58.932 44.3995 56.0933 44.4671C50.4497 44.5685 42.6432 44.7375 34.0594 44.9065C31.8966 44.974 29.8014 44.9403 27.7737 45.0754C25.746 45.2106 23.8198 45.481 22.0625 46.1231C20.3052 46.7313 18.7844 47.7452 17.703 48.9618C17.1623 49.5701 16.723 50.246 16.385 50.9218C16.0133 51.5977 15.7767 52.3074 15.574 52.9495C15.1684 54.3013 14.9995 55.5517 14.8981 56.6669C14.7967 57.7821 14.7967 58.7621 14.7629 59.5394C14.7629 60.3167 14.7629 60.925 14.7967 61.3643C14.7967 61.567 14.7967 61.736 14.7967 61.8374C14.7967 61.9388 14.7967 62.0064 14.7967 62.0064C14.7967 62.0064 14.7967 61.9388 14.7967 61.8374C14.7967 61.736 14.7967 61.567 14.7629 61.3643C14.7291 60.9587 14.7291 60.3505 14.6953 59.5394C14.6953 58.7621 14.6953 57.7821 14.7967 56.6669C14.8981 55.5517 15.067 54.2675 15.4726 52.9157C15.6753 52.2398 15.9457 51.5301 16.2836 50.8543C16.6216 50.1446 17.0947 49.4687 17.6354 48.8604C18.7168 47.61 20.2714 46.5624 22.0287 45.9541C23.786 45.312 25.7798 45.0416 27.7737 44.9065C29.8014 44.7713 31.8966 44.7713 34.0594 44.7375C42.677 44.5685 50.4497 44.4333 56.0933 44.332C58.8982 44.2982 61.1963 44.2644 62.7846 44.2306C63.5619 44.2306 64.1702 44.2306 64.6095 44.1968C64.8122 44.1968 64.9812 44.1968 65.0826 44.1968C65.184 44.1968 65.2516 44.1968 65.2516 44.1968Z" fill="#263238"/>
<path d="M38.6244 55.7883C38.6244 55.7883 38.523 55.8559 38.354 55.9911C38.1851 56.1262 37.9485 56.3628 37.8133 56.7345C37.6781 57.1063 37.6781 57.5794 38.0161 57.9849C38.3202 58.3905 38.8947 58.6608 39.4354 58.5256C40.0099 58.3905 40.3817 57.8835 40.4831 57.4104C40.5844 56.9035 40.3479 56.4642 40.0775 56.1938C39.8072 55.9235 39.503 55.8221 39.2665 55.7883C39.0637 55.7545 38.9285 55.7545 38.9285 55.7545C38.9285 55.7545 39.0637 55.7207 39.2665 55.7207C39.503 55.7545 39.841 55.8221 40.1451 56.1262C40.3141 56.2614 40.4493 56.4304 40.5507 56.6669C40.652 56.9035 40.6858 57.1739 40.6182 57.4442C40.5169 57.9849 40.1113 58.5594 39.4692 58.7284C38.8271 58.8636 38.1851 58.5594 37.8809 58.1201C37.7119 57.8835 37.6106 57.647 37.6106 57.3766C37.5768 57.1401 37.6443 56.9035 37.7119 56.7007C37.8809 56.329 38.1175 56.0586 38.3202 55.9573C38.523 55.7883 38.6244 55.7545 38.6244 55.7883Z" fill="#263238"/>
<path d="M37.2044 64.5406C37.1706 64.5406 37.0692 64.1689 36.934 63.5268C36.8326 62.9185 36.7312 62.0061 37.0016 61.026C37.272 60.046 37.9141 59.3363 38.4548 59.0322C38.7251 58.8632 38.9955 58.7956 39.1644 58.7618C39.3334 58.728 39.4348 58.728 39.4348 58.728C39.4348 58.7618 39.0293 58.7956 38.5223 59.1336C38.0154 59.4715 37.4071 60.1812 37.1706 61.0936C36.934 62.0061 37.0016 62.8847 37.0692 63.5268C37.1706 64.1351 37.2382 64.5406 37.2044 64.5406Z" fill="#263238"/>
<path d="M38.4545 50.5498C38.4883 50.5836 38.218 50.8202 37.9476 51.2933C37.6773 51.7664 37.4745 52.5437 37.6773 53.3547C37.88 54.1658 38.3869 54.7741 38.8263 55.112C39.2656 55.45 39.6035 55.5514 39.6035 55.5514C39.6035 55.5514 39.5022 55.5514 39.367 55.4838C39.2318 55.45 38.9952 55.3486 38.7587 55.1796C38.2856 54.8755 37.7111 54.2334 37.5083 53.3885C37.3055 52.5099 37.5759 51.6988 37.8462 51.2257C37.9814 50.9891 38.1504 50.7864 38.2518 50.685C38.3532 50.5836 38.4545 50.5498 38.4545 50.5498Z" fill="#263238"/>
<path d="M38.1512 57.3089C38.1512 57.3765 37.3063 57.3765 36.3263 57.7145C35.3462 58.0524 34.6366 58.5255 34.6028 58.4917C34.569 58.4579 35.2449 57.8834 36.2587 57.5455C37.2725 57.2075 38.1512 57.2751 38.1512 57.3089Z" fill="#263238"/>
<g opacity="0.3">
<path d="M27.1992 77.9231C30.4435 80.4239 34.6002 81.6743 38.6893 81.3701C37.8444 85.3578 36.9658 89.3118 36.1209 93.2995C35.8844 94.3471 35.6816 95.5299 36.2223 96.4762C36.9996 97.7941 38.7907 97.9293 40.3114 97.8955C42.0011 97.8617 43.7584 97.8279 45.2792 97.0507C47.4082 95.9355 48.5572 93.6037 49.3683 91.3394C50.1793 89.0752 50.889 86.6758 52.6125 84.9861C54.5388 87.1827 57.2085 88.7035 60.0811 89.2442C60.9259 89.4132 61.8722 89.447 62.548 88.9062C63.2239 88.3655 63.4267 87.4193 63.2577 86.5744C63.0888 85.7296 62.6156 84.9861 62.1425 84.2764C60.4866 81.7081 58.8307 79.1735 57.2085 76.6051C56.5327 75.5575 55.823 74.4761 54.674 73.9692C53.7953 73.5974 52.7815 73.6312 51.8015 73.665C43.7246 74.1381 35.7154 75.3547 27.8413 77.281" fill="black"/>
</g>
<g opacity="0.3">
<path d="M53.6613 39.9047C51.6674 45.1766 44.1989 46.3932 41.5629 51.3948C38.9608 56.3288 42.1712 62.8849 39.5015 67.8188C38.5214 69.6437 36.7979 70.9955 35.8517 72.8204C35.2096 74.037 34.8717 75.5239 33.824 76.4364C32.6074 77.5178 30.715 77.484 29.228 76.8081C27.7749 76.1322 26.6259 74.8818 25.5782 73.6314C23.6182 71.2996 21.7595 68.7989 20.847 65.8925C19.2587 60.891 20.7119 55.2473 23.8885 51.0906C27.0652 46.9339 31.7626 44.0952 36.6966 42.4055C41.6643 40.7158 46.9024 40.0737 52.1068 39.6006" fill="black"/>
</g>
<path d="M29.6328 25.9814C30.4101 24.8324 31.4239 23.7848 32.6743 23.1765C33.9247 22.5344 35.4116 22.3316 36.7296 22.7709C38.0476 23.2102 39.1628 24.3255 39.4332 25.6772C39.6359 26.7586 39.3656 27.9752 39.9063 28.9215C40.5484 30.0029 42.1029 30.3746 42.6436 31.5236C42.9816 32.1995 42.8464 33.0444 42.4746 33.7203C42.1029 34.3962 41.5622 34.9369 40.9877 35.4438C41.3256 35.6803 41.6636 35.9507 41.9001 36.2886C42.1367 36.6266 42.2719 37.0997 42.1029 37.4714C41.9339 37.877 41.4946 38.1135 41.0891 38.2825C39.2304 39.0598 37.1014 39.2625 35.1075 38.857C34.5668 38.7556 33.9585 38.5866 33.5192 38.9246" fill="#263238"/>
<path d="M43.1511 30.0034L42.0697 33.3152L49.4707 37.5057L42.0359 37.7423L42.5766 43.7576L56.8716 40.243C56.8716 40.2768 57.7503 34.4304 43.1511 30.0034L42.1373 29.7668C41.7656 29.6654 41.4614 29.4289 41.3263 29.0571C41.2249 28.7868 41.0221 28.5502 40.7518 28.415L39.5352 27.7729V28.753L40.211 29.5303L40.1097 31.3889C40.0421 32.2 40.6166 32.9773 41.3938 33.1462L42.0697 33.3152" fill="#B78876"/>
<path d="M26.9617 41.9662C26.6575 41.9662 23.954 42.6421 22.3656 44.6022C20.8111 46.596 18.5469 54.0308 18.5469 54.0308L24.2919 55.0108L26.7589 61.229C26.7589 61.229 41.4256 59.3027 40.6483 58.5254C39.8711 57.7482 38.2489 56.5654 38.2489 56.5654L41.6284 45.3119L45.6837 43.1152L44.3319 37.5054L36.1537 38.6206L26.9617 41.9662Z" fill="#FAFAFA"/>
<path d="M40.9872 47.9481C40.9872 47.9819 36.4249 48.0494 30.7475 48.0494C25.1038 48.0494 20.5078 48.0157 20.5078 47.9481C20.5078 47.8805 25.07 47.8467 30.7475 47.8467C36.4249 47.8805 40.9872 47.9143 40.9872 47.9481Z" fill="#FF8A00"/>
<path d="M40.0731 51.2601C40.0731 51.2939 35.5109 51.3615 29.8334 51.3615C24.1898 51.3615 19.5938 51.3277 19.5938 51.2601C19.5938 51.2263 24.156 51.1587 29.8334 51.1587C35.5109 51.1925 40.0731 51.2263 40.0731 51.2601Z" fill="#FF8A00"/>
<path d="M40.0754 54.8416C40.0754 54.8754 36.5946 54.943 32.3365 54.943C28.0447 54.943 24.5977 54.9092 24.5977 54.8416C24.5977 54.774 28.0785 54.7402 32.3365 54.7402C36.6284 54.7402 40.0754 54.8078 40.0754 54.8416Z" fill="#FF8A00"/>
<path d="M41.2551 58.2889C41.2551 58.3227 37.7743 58.3903 33.5162 58.3903C29.2244 58.3903 25.7773 58.3565 25.7773 58.2889C25.7773 58.2551 29.2582 58.1875 33.5162 58.1875C37.8081 58.1875 41.2551 58.2213 41.2551 58.2889Z" fill="#FF8A00"/>
<path d="M44.9403 43.5208C44.9403 43.5546 42.6422 43.6222 39.8373 43.6222C36.9986 43.6222 34.7344 43.5884 34.7344 43.5208C34.7344 43.487 37.0324 43.4194 39.8373 43.4194C42.6422 43.4194 44.9403 43.4532 44.9403 43.5208Z" fill="#FF8A00"/>
<path d="M45.3113 40.0061C45.3113 40.0399 43.0471 40.1413 40.2084 40.2088C37.4035 40.2764 35.1055 40.2764 35.1055 40.2426C35.1055 40.2088 37.3697 40.1075 40.2084 40.0399C43.0133 39.9723 45.3113 39.9385 45.3113 40.0061Z" fill="#FF8A00"/>
<path d="M25.5075 49.6714C25.5413 49.6714 25.3047 50.9218 24.9668 52.4425C24.6289 53.9633 24.2909 55.1799 24.2571 55.1799C24.2233 55.1799 24.4599 53.9295 24.7978 52.4087C25.1358 50.888 25.4399 49.6714 25.5075 49.6714Z" fill="#263238"/>
<path d="M41.495 91.8804L37.2031 105.364L42.3737 105.871L47.2062 94.1784L41.495 91.8804Z" fill="#B78876"/>
<path d="M45.2802 100.633L42.8132 106.716C42.8132 106.716 48.1865 111.245 47.8485 112.427L35.8516 108.102L39.2986 98.4365L45.2802 100.633Z" fill="#455A64"/>
<path d="M39.2983 104.857C39.0279 104.823 38.7914 105.026 38.7576 105.297C38.7238 105.567 38.9266 105.803 39.1969 105.837C39.4673 105.871 39.7714 105.634 39.7714 105.364C39.7714 105.094 39.5011 104.823 39.2645 104.857" fill="#E0E0E0"/>
<path d="M35.8516 108.102L36.2233 107.155L47.5782 111.684C47.5782 111.684 48.0175 112.123 47.8147 112.461L35.8516 108.102Z" fill="#E0E0E0"/>
<path d="M43.0169 106.749C42.9831 106.817 42.679 106.716 42.341 106.817C41.9693 106.885 41.7327 107.087 41.6989 107.054C41.6651 107.02 41.8679 106.716 42.3072 106.614C42.7128 106.479 43.0507 106.682 43.0169 106.749Z" fill="#263238"/>
<path d="M44.0973 107.73C44.0973 107.798 43.7931 107.798 43.5228 107.967C43.2186 108.136 43.0834 108.372 43.0159 108.372C42.9483 108.372 43.0497 108 43.3876 107.798C43.7593 107.561 44.0973 107.662 44.0973 107.73Z" fill="#263238"/>
<path d="M44.2643 109.487C44.1967 109.487 44.2305 109.149 44.5009 108.879C44.7713 108.608 45.0754 108.575 45.1092 108.642C45.1092 108.71 44.8726 108.811 44.6699 109.048C44.4333 109.251 44.3319 109.487 44.2643 109.487Z" fill="#263238"/>
<path d="M43.4207 105.297C43.3869 105.33 43.1503 105.161 42.8124 105.06C42.4744 104.959 42.1703 104.959 42.1703 104.925C42.1365 104.857 42.4745 104.756 42.88 104.857C43.2517 104.959 43.4883 105.263 43.4207 105.297Z" fill="#263238"/>
<path d="M43.8962 104.046C43.8962 104.08 43.6596 104.012 43.2879 103.809C43.1189 103.708 42.9161 103.573 42.7134 103.404C42.612 103.302 42.5106 103.201 42.443 103.1C42.4092 103.032 42.3416 102.998 42.3078 102.897C42.274 102.795 42.274 102.66 42.4092 102.559C42.5106 102.491 42.612 102.491 42.7134 102.525C42.8148 102.559 42.8823 102.593 42.9161 102.627C43.0513 102.694 43.1527 102.795 43.2541 102.897C43.4568 103.1 43.592 103.269 43.6596 103.471C43.8286 103.843 43.8624 104.08 43.8286 104.08C43.7948 104.08 43.7272 103.843 43.5244 103.539C43.4231 103.37 43.2879 103.201 43.0851 103.032C42.9837 102.964 42.8823 102.863 42.781 102.795C42.6796 102.728 42.5444 102.66 42.5106 102.728C42.4768 102.762 42.4768 102.762 42.5106 102.795C42.5106 102.829 42.5782 102.897 42.612 102.931C42.6796 103.032 42.781 103.133 42.8485 103.235C43.0175 103.404 43.1865 103.573 43.3555 103.674C43.6934 103.911 43.93 104.012 43.8962 104.046Z" fill="#263238"/>
<path d="M43.7919 104.113C43.7582 104.113 43.7244 103.877 43.8595 103.471C43.9271 103.269 44.0285 103.066 44.1637 102.829C44.2313 102.728 44.3327 102.626 44.434 102.525C44.5354 102.424 44.7044 102.288 44.9409 102.356C45.0761 102.39 45.1099 102.525 45.1437 102.626C45.1437 102.728 45.1437 102.795 45.1099 102.863C45.0761 102.998 45.0423 103.133 44.9747 103.269C44.8396 103.505 44.6706 103.674 44.5016 103.809C44.1637 104.046 43.8933 104.012 43.8933 103.978C43.8933 103.944 44.1299 103.911 44.4002 103.674C44.5354 103.573 44.7044 103.404 44.8058 103.167C44.8734 103.066 44.9072 102.931 44.9072 102.829C44.9409 102.694 44.9072 102.559 44.8734 102.559C44.8058 102.525 44.6706 102.593 44.603 102.694C44.5016 102.795 44.4002 102.863 44.3327 102.964C44.1637 103.167 44.0623 103.336 43.9947 103.505C43.8595 103.877 43.8257 104.113 43.7919 104.113Z" fill="#263238"/>
<path d="M57.7148 79.1738L64.102 90.2583L69.3401 86.9127L62.9192 75.6592L57.7148 79.1738Z" fill="#B78876"/>
<path d="M67.5491 83.7363L70.8609 89.4138C70.8609 89.4138 77.7549 87.9606 78.4646 88.9744L67.6843 95.7671L62.1758 87.1158L67.5491 83.7363Z" fill="#455A64"/>
<path d="M67.2127 91.0696C67.0437 91.2723 67.0437 91.5765 67.2127 91.7793C67.3816 91.9482 67.7196 91.9482 67.8886 91.7793C68.0575 91.6103 68.0575 91.2048 67.8886 91.0358C67.6858 90.8668 67.3141 90.9006 67.1789 91.1372" fill="#E0E0E0"/>
<path d="M67.6514 95.767L67.1445 94.8884L77.6883 88.704C77.6883 88.704 78.2966 88.6027 78.4656 88.9744L67.6514 95.767Z" fill="#E0E0E0"/>
<path d="M70.9613 89.2783C70.9951 89.3459 70.7585 89.5149 70.5895 89.8528C70.4206 90.1908 70.4544 90.4949 70.3868 90.4949C70.3192 90.5287 70.2178 90.157 70.4206 89.7514C70.5895 89.3459 70.9613 89.2107 70.9613 89.2783Z" fill="#263238"/>
<path d="M72.4151 89.0085C72.4489 89.0423 72.2799 89.2789 72.2461 89.6168C72.2123 89.9548 72.3137 90.2251 72.2461 90.2589C72.2123 90.2927 71.9757 90.0223 72.0433 89.583C72.0771 89.1775 72.3813 88.9747 72.4151 89.0085Z" fill="#263238"/>
<path d="M73.901 89.9546C73.8672 89.9884 73.6306 89.7856 73.563 89.4139C73.5292 89.0421 73.6982 88.7718 73.732 88.8056C73.7996 88.8394 73.732 89.0759 73.7658 89.3801C73.8334 89.6842 73.9348 89.9208 73.901 89.9546Z" fill="#263238"/>
<path d="M70.0856 88.0619C70.0856 88.1295 69.8152 88.1971 69.5111 88.3999C69.2069 88.6026 69.0379 88.8392 69.0041 88.8054C68.9366 88.7716 69.0379 88.4336 69.3759 88.1971C69.7138 87.9943 70.0856 87.9943 70.0856 88.0619Z" fill="#263238"/>
<path d="M69.4091 86.9128C69.4091 86.9466 69.2401 87.0818 68.8684 87.2507C68.6994 87.3183 68.4629 87.3859 68.1925 87.4197C68.0573 87.4535 67.9222 87.4535 67.787 87.4535C67.7194 87.4535 67.6518 87.4535 67.5504 87.4197C67.449 87.3859 67.3477 87.2845 67.3477 87.1493C67.3477 87.048 67.4152 86.9466 67.5166 86.879C67.5842 86.8114 67.6856 86.8114 67.7532 86.7776C67.8884 86.7438 68.0235 86.71 68.1587 86.6762C68.4291 86.6424 68.6656 86.6424 68.8684 86.6762C69.2739 86.7438 69.4767 86.879 69.4767 86.9128C69.4767 86.9466 69.2401 86.8452 68.8684 86.8114C68.6656 86.8114 68.4629 86.8114 68.2263 86.8452C68.0911 86.879 67.9897 86.9128 67.8546 86.9466C67.7194 86.9804 67.618 87.048 67.618 87.1156C67.618 87.1494 67.618 87.1493 67.6518 87.1831C67.6856 87.1831 67.7532 87.1831 67.8208 87.2169C67.956 87.2169 68.0911 87.2169 68.1925 87.2169C68.4291 87.1831 68.6656 87.1493 68.8346 87.0818C69.1725 87.0142 69.3753 86.879 69.4091 86.9128Z" fill="#263238"/>
<path d="M69.3722 87.0479C69.3722 87.0817 69.1356 86.9465 68.8991 86.6086C68.7977 86.4396 68.6625 86.2369 68.5949 85.9665C68.5611 85.8313 68.5273 85.6962 68.5273 85.561C68.5273 85.4258 68.5273 85.223 68.6963 85.0879C68.7977 85.0203 68.9329 85.0541 69.0005 85.0879C69.0681 85.1216 69.1356 85.1892 69.1694 85.2568C69.2708 85.3582 69.3384 85.4934 69.406 85.6286C69.5074 85.8651 69.5412 86.1355 69.5412 86.3382C69.5074 86.7438 69.3384 86.9465 69.3046 86.9465C69.2708 86.9465 69.406 86.71 69.3722 86.3382C69.3722 86.1693 69.3384 85.9327 69.237 85.7299C69.1694 85.6286 69.1018 85.5272 69.0343 85.4258C68.9329 85.3244 68.8315 85.2568 68.7977 85.2906C68.7301 85.3244 68.6963 85.4596 68.7301 85.5948C68.7301 85.7299 68.7639 85.8651 68.7639 85.9665C68.8315 86.2031 68.8991 86.4058 69.0005 86.5748C69.2032 86.8452 69.406 87.0141 69.3722 87.0479Z" fill="#263238"/>
<path d="M38.7251 77.619L51.2628 69.1028L59.1707 84.513L66.3688 80.6267C66.3688 80.6267 58.0892 60.4177 55.1153 59.7756C53.4594 59.4039 34.3319 63.0537 34.3319 63.0537L32.2028 61.9722L26.7957 61.3301L26.4578 62.2088C24.5653 67.0414 24.7681 72.4485 27.0661 77.1121L27.3364 77.6528H38.7251V77.619Z" fill="#263238"/>
<path d="M34.2994 66.94C34.4008 67.3793 44.7757 77.0783 44.7757 77.0783L38.7941 97.1859L47.7158 98.9094L56.6713 74.6789L40.281 58.5928L32.8125 61.7356L34.2994 66.94Z" fill="#263238"/>
<path d="M51.2645 69.0688C51.2983 69.1026 48.4934 71.0627 45.0464 73.3945C41.5656 75.7601 38.7607 77.6188 38.7269 77.585C38.6931 77.5512 41.498 75.5911 44.945 73.2593C48.392 70.9275 51.2308 69.035 51.2645 69.0688Z" fill="#455A64"/>
<path d="M57.6853 81.6065C57.6853 81.6065 57.5839 81.4376 57.3811 81.1334C57.1784 80.8293 56.9418 80.3899 56.6377 79.8154C56.0294 78.7002 55.1845 77.1457 54.3058 75.4222C53.4272 73.6987 52.6499 72.1103 52.1092 70.9613C51.8389 70.3868 51.6361 69.9137 51.4671 69.5758C51.332 69.2378 51.2306 69.0688 51.2644 69.0688C51.2644 69.0688 51.3657 69.2378 51.5347 69.542C51.7037 69.8799 51.9402 70.353 52.2106 70.8937C52.7851 72.0427 53.5962 73.6311 54.441 75.3546C55.3197 77.0781 56.1307 78.6664 56.739 79.7816C57.0432 80.3223 57.2797 80.7617 57.4487 81.0996C57.6177 81.4376 57.7191 81.6065 57.6853 81.6065Z" fill="#455A64"/>
<path d="M46.6689 73.496C46.7027 73.5298 46.2971 74.4761 45.7226 75.6589C45.1481 76.8417 44.6412 77.7541 44.6074 77.7203C44.5736 77.6865 44.9792 76.7403 45.5537 75.5575C46.0944 74.3747 46.6013 73.4622 46.6689 73.496Z" fill="#455A64"/>
<path d="M18.5483 54.0645L16.5206 61.5668C16.2502 62.5468 16.3854 63.5607 16.8585 64.4393C17.7034 65.9938 19.4945 66.8049 21.218 66.3994L37.2703 62.4454L35.5806 59.0998L22.9077 60.1812L24.2595 55.0445L18.5483 54.0645Z" fill="#B78876"/>
<path d="M25.6797 65.4196L25.9162 64.3382L34.6014 62.7836L37.136 49.3335L53.3234 47.4072L50.5861 61.7698L25.6797 65.4196Z" fill="#455A64"/>
<path d="M44.401 56.5653C43.9616 56.4977 43.7251 56.0246 43.7927 55.5177C43.894 55.0446 44.2996 54.7066 44.7389 54.7742C45.1782 54.8418 45.4148 55.3149 45.3472 55.8219C45.2458 56.3288 44.8403 56.6667 44.401 56.5653Z" fill="#EBEBEB"/>
<path d="M28.043 26.9275L28.0768 27.9076L28.4485 42.4391C28.4823 44.1288 29.9692 45.4468 31.7941 45.3792C33.619 45.3116 35.0722 43.8923 35.0722 42.1687C35.0722 40.3776 35.0722 38.4852 35.0722 38.4852C35.0722 38.4852 37.3702 38.0796 37.8095 35.0719C38.0461 33.585 37.9109 31.118 37.7757 29.1241C37.6405 27.333 36.0184 25.9813 34.2273 26.2178L28.043 26.9275Z" fill="#B78876"/>
<path d="M36.5937 30.7803C36.5937 30.9831 36.4247 31.1521 36.2219 31.1859C36.0192 31.1859 35.8164 31.0507 35.8164 30.8479C35.8164 30.6451 35.9854 30.4762 36.1881 30.4424C36.4247 30.4424 36.5937 30.5776 36.5937 30.7803Z" fill="#263238"/>
<path d="M37.2676 30.4085C37.2338 30.4761 36.9297 30.2395 36.5242 30.2395C36.1186 30.2395 35.8145 30.4423 35.7469 30.4085C35.7131 30.3747 35.7807 30.3071 35.9159 30.2057C36.051 30.1043 36.2538 30.0029 36.5242 30.0029C36.7945 30.0029 36.9973 30.1043 37.1325 30.2057C37.2338 30.2733 37.2676 30.3747 37.2676 30.4085Z" fill="#263238"/>
<path d="M32.5038 30.9492C32.5038 31.152 32.3349 31.3209 32.1321 31.3547C31.9293 31.3547 31.7266 31.2196 31.7266 31.0168C31.7266 30.814 31.8955 30.6451 32.0983 30.6113C32.3011 30.5775 32.5038 30.7464 32.5038 30.9492Z" fill="#263238"/>
<path d="M33.1778 30.51C33.144 30.5776 32.8399 30.3411 32.4343 30.3411C32.0288 30.3411 31.7246 30.5438 31.657 30.51C31.6233 30.4762 31.6908 30.4086 31.826 30.3073C31.9612 30.2059 32.164 30.1045 32.4343 30.1045C32.7047 30.1045 32.9074 30.2059 33.0426 30.3073C33.144 30.4086 33.2116 30.51 33.1778 30.51Z" fill="#263238"/>
<path d="M34.6998 33.5851C34.6998 33.5513 34.9702 33.5175 35.3757 33.45C35.4771 33.45 35.5785 33.4162 35.6123 33.3486C35.6461 33.281 35.5785 33.1458 35.5447 33.0444C35.4433 32.7741 35.3419 32.5375 35.2067 32.2334C34.7674 31.0844 34.4295 30.1381 34.4633 30.1381C34.4971 30.1043 34.9026 31.0168 35.3757 32.1658C35.4771 32.4361 35.5785 32.7065 35.6799 32.9768C35.7137 33.112 35.7812 33.2472 35.7475 33.3824C35.7137 33.45 35.6461 33.5175 35.5785 33.5513C35.5109 33.5851 35.4433 33.5851 35.4095 33.5851C34.9702 33.6189 34.7336 33.6189 34.6998 33.5851Z" fill="#263238"/>
<path d="M35.0709 38.4855C35.0709 38.4855 33.0433 38.6545 31.0156 37.4717C31.0156 37.4717 32.0295 39.5331 35.0371 39.1952L35.0709 38.4855Z" fill="#AA6550"/>
<path d="M33.3501 29.8341C33.3164 29.9355 32.877 29.8679 32.4039 29.9017C31.897 29.9355 31.5253 30.0369 31.4577 29.9355C31.4239 29.9017 31.4915 29.7666 31.6604 29.6652C31.8294 29.5638 32.066 29.4624 32.3701 29.4624C32.6743 29.4286 32.9446 29.4962 33.1136 29.5976C33.2826 29.699 33.3501 29.8003 33.3501 29.8341Z" fill="#263238"/>
<path d="M37.0644 28.9559C36.9968 29.0573 36.6926 28.9559 36.3547 28.9559C36.0167 28.9559 35.7126 29.0235 35.645 28.9221C35.6112 28.8883 35.645 28.787 35.7802 28.6856C35.9154 28.5842 36.1181 28.5166 36.3547 28.5166C36.5912 28.5166 36.794 28.618 36.9292 28.6856C37.0644 28.8208 37.0982 28.9221 37.0644 28.9559Z" fill="#263238"/>
<path d="M34.6649 35.1062C34.5635 35.14 34.4283 35.1062 34.2932 35.0724C34.1918 35.0386 34.0566 35.0048 33.9552 34.971C33.8538 34.9372 33.7524 34.9034 33.6511 34.8696C33.5497 34.8358 33.4145 34.7682 33.3469 34.6669C33.2793 34.5655 33.2793 34.3965 33.4483 34.2613C33.6173 34.1261 33.9214 34.0248 34.2594 34.1261C34.5973 34.2275 34.7663 34.4979 34.8339 34.7006C34.8677 34.9034 34.7663 35.0724 34.6649 35.1062Z" fill="#AA6550"/>
<path d="M34.7354 35.0384C34.7016 35.0721 34.4988 34.6666 33.9919 34.5314C33.5188 34.3963 33.1133 34.6666 33.1133 34.6328C33.1133 34.6328 33.1809 34.5314 33.316 34.4301C33.485 34.3625 33.7554 34.2949 34.0257 34.3625C34.2961 34.4301 34.4988 34.6328 34.6002 34.768C34.7354 34.937 34.7354 35.0384 34.7354 35.0384Z" fill="#263238"/>
<path d="M31.5248 24.9674C32.4711 26.3867 32.2345 28.5158 30.9841 29.6986C30.2744 30.3745 29.193 30.8814 29.1254 31.8614C29.0578 32.9428 30.3082 33.7539 30.3082 34.8353C30.3082 35.9505 29.024 36.6602 28.7537 37.7416C28.5509 38.6203 29.0916 39.4989 29.6999 40.1748C30.3082 40.8507 31.0517 41.4252 31.3896 42.2363C31.7952 43.1487 31.6938 44.2301 31.2883 45.1426C30.8827 46.055 30.2406 46.8323 29.5986 47.5758C28.6861 47.2378 27.7737 47.0351 26.8274 46.9675C26.895 46.5957 26.9626 46.2578 26.9964 45.8861C27.0302 46.2916 26.6584 46.6633 26.2529 46.7985C25.8474 46.9337 25.4081 46.8661 25.0025 46.7985C23.7521 46.5957 22.5018 46.2916 21.2852 45.8523C21.7921 45.3453 22.3328 44.8046 22.6369 44.1625C22.9411 43.5205 23.0425 42.7094 22.6707 42.0673C22.3666 41.5604 21.8259 41.2224 21.5555 40.7155C21.15 39.9383 21.4879 38.9582 22.0624 38.2823C22.6369 37.6402 23.448 37.2009 24.1239 36.6602C24.7998 36.1195 25.4419 35.376 25.5094 34.4974C25.577 33.3484 24.6646 32.3345 24.766 31.1855C24.9011 29.9014 26.2529 29.0903 26.7936 27.9075C27.1654 27.0626 27.1316 25.9812 27.7399 25.2715C28.1792 24.7308 28.9227 24.4943 29.5986 24.5281C30.3082 24.5619 30.9503 24.8322 31.5586 25.2039" fill="#263238"/>
<path d="M35.3105 38.823C34.7698 39.1271 34.8036 39.9382 35.1415 40.4789C35.4794 41.0196 36.0202 41.3914 36.3243 41.8983C36.8988 42.8445 36.6622 44.1963 35.7836 44.8722L37.0678 45.3791L37.3381 45.2101L38.1492 44.7708L37.7775 45.6832H38.6223C39.501 45.6832 40.3458 45.1763 40.7514 44.3991C41.1569 43.6218 41.0893 42.608 40.5824 41.8983C40.2444 41.4252 39.7037 41.0534 39.6024 40.4789C39.4672 39.803 39.9741 39.1609 40.2444 38.5188C40.6838 37.4374 40.2782 36.0519 39.332 35.376" fill="#263238"/>
<path d="M11.6538 11.2812C11.789 11.3826 11.8903 11.5516 11.8565 11.7206L11.5862 13.951C11.5524 14.0862 11.4848 14.2214 11.3496 14.2889C11.2145 14.3565 11.0793 14.3565 10.9441 14.3227C10.6062 14.1876 10.2006 14.1876 9.82889 14.3565C9.49095 14.4917 9.22059 14.7621 9.11921 15.0662C9.01783 15.3704 9.05162 15.7421 9.22059 16.08C9.38957 16.4518 9.72751 16.7221 10.0655 16.8235C10.7751 17.0263 11.6538 16.6207 11.9579 15.9111C12.0593 15.6745 12.3297 15.5731 12.5662 15.7083C12.8028 15.8097 12.9042 16.08 12.769 16.3166C12.2621 17.4318 10.9103 18.0401 9.7951 17.7022C9.22059 17.5332 8.71368 17.0939 8.40953 16.5194C8.13918 15.9787 8.07159 15.3366 8.24056 14.7959C8.44333 14.2551 8.84886 13.782 9.42336 13.5455C9.82889 13.3765 10.2682 13.3089 10.7075 13.3427L10.9441 11.6192C10.9779 11.3826 11.2145 11.1799 11.451 11.2137C11.5524 11.2137 11.5862 11.2475 11.6538 11.2812Z" fill="#FF8A00"/>
<path d="M11.1484 10.2671C11.1822 10.0644 11.3512 9.9292 11.554 9.9292C11.7567 9.96299 11.8919 10.132 11.8919 10.3347C11.8581 10.5375 11.6891 10.6727 11.4864 10.6727C11.2836 10.6389 11.1484 10.4699 11.1484 10.2671Z" fill="#FF8A00"/>
<path d="M20.5771 23.6159C20.5771 23.6159 20.4757 23.6159 20.2729 23.6835C20.0702 23.7173 19.7998 23.8525 19.5971 24.1228C19.4957 24.258 19.3943 24.427 19.3267 24.6298C19.2929 24.8325 19.2929 25.0691 19.3605 25.2718C19.4957 25.7112 19.935 26.1167 20.4757 26.1505C21.0164 26.1843 21.4895 25.8464 21.6923 25.407C21.7937 25.2043 21.8275 24.9677 21.8275 24.7649C21.7937 24.5622 21.7261 24.3932 21.6247 24.2242C21.422 23.9201 21.1854 23.7511 21.0164 23.6835C20.8474 23.6159 20.7123 23.5821 20.7123 23.5821C20.7123 23.5821 20.7461 23.5821 20.7799 23.5821C20.8137 23.5821 20.8474 23.5821 20.8812 23.6159C20.915 23.6159 20.9488 23.6497 21.0164 23.6497C21.2192 23.7173 21.4895 23.8863 21.6923 24.1904C21.7937 24.3594 21.8613 24.5284 21.8951 24.7649C21.9289 24.9677 21.8951 25.2381 21.7599 25.4408C21.6247 25.7112 21.4557 25.9139 21.2192 26.0491C20.9826 26.1843 20.7123 26.2857 20.4419 26.2519C20.1378 26.2181 19.9012 26.1167 19.6984 25.9139C19.4957 25.745 19.3605 25.5084 19.2591 25.2718C19.1915 25.0353 19.1915 24.7987 19.2253 24.5622C19.2929 24.3594 19.3943 24.1566 19.4957 24.0215C19.7322 23.7511 20.0364 23.6159 20.2392 23.5821C20.2729 23.5821 20.3405 23.5483 20.3743 23.5483C20.4081 23.5483 20.4419 23.5483 20.4757 23.5483C20.5433 23.6159 20.5771 23.6159 20.5771 23.6159Z" fill="#263238"/>
<path d="M23.4165 27.2656C23.4165 27.2656 23.3489 27.2656 23.2137 27.2994C23.1123 27.3332 22.9434 27.4008 22.7744 27.5698C22.6392 27.7387 22.5378 28.0091 22.6392 28.2795C22.7406 28.5498 22.9772 28.7864 23.3151 28.8202C23.6531 28.854 23.9572 28.6174 24.0586 28.3808C24.1938 28.1105 24.1262 27.8401 24.0248 27.6712C23.9234 27.4684 23.7544 27.367 23.6531 27.3332C23.5517 27.2994 23.4841 27.2656 23.4841 27.2656C23.4841 27.2656 23.5517 27.2656 23.6868 27.2994C23.822 27.3332 23.991 27.4346 24.1262 27.6374C24.1938 27.7387 24.2613 27.8739 24.2613 28.0091C24.2951 28.1443 24.2613 28.3132 24.1938 28.4484C24.0586 28.7188 23.7206 28.9891 23.3489 28.9553C22.9772 28.9215 22.673 28.6512 22.6054 28.347C22.5378 28.2119 22.5716 28.0429 22.6054 27.9077C22.6392 27.7725 22.7068 27.6712 22.7744 27.5698C22.9434 27.4008 23.1123 27.2994 23.2475 27.2994C23.3489 27.2656 23.4165 27.2656 23.4165 27.2656Z" fill="#263238"/>
<path d="M20.881 16.8909C20.881 16.8909 20.881 16.8233 20.9148 16.7219C20.9148 16.6206 20.9486 16.4516 20.9824 16.215C20.9824 16.1136 21.0162 15.9785 21.05 15.8433C21.05 15.7081 21.05 15.5729 21.0838 15.404C21.0838 15.235 21.0838 15.066 21.1176 14.8971C21.1176 14.7957 21.1176 14.6943 21.1176 14.6267C21.1176 14.5253 21.1176 14.4239 21.1176 14.3225C21.1176 13.5115 20.9148 12.4977 20.5431 11.3824C20.1713 10.2672 19.5293 9.05064 18.5492 7.93543C18.414 7.80025 18.3127 7.66507 18.1775 7.5299C18.0423 7.39472 17.9071 7.25954 17.772 7.12437C17.7044 7.05678 17.6368 6.98919 17.5692 6.9216C17.5016 6.85401 17.434 6.78642 17.3326 6.71883C17.1637 6.58366 17.0285 6.48227 16.8595 6.3471C16.7919 6.27951 16.6905 6.21192 16.6229 6.17813C16.5216 6.11054 16.454 6.07674 16.3526 6.00915C16.1836 5.90777 16.0147 5.80639 15.8119 5.67121C15.6429 5.56983 15.4401 5.46844 15.2374 5.40086C15.136 5.36706 15.0346 5.29947 14.9332 5.26568C14.8994 5.23188 14.8319 5.23188 14.7981 5.19809L14.6291 5.1305C14.2236 4.99532 13.818 4.79256 13.3787 4.72497C13.1759 4.65738 12.9394 4.58979 12.7366 4.556C12.5 4.5222 12.2973 4.48841 12.0607 4.45462C11.9593 4.45462 11.8242 4.42082 11.7228 4.42082C11.6214 4.42082 11.4862 4.42082 11.3848 4.38703C11.1483 4.38703 10.9117 4.35323 10.6752 4.35323C10.202 4.38703 9.72891 4.38703 9.222 4.45462C9.08682 4.48841 8.98544 4.48841 8.85026 4.5222C8.78267 4.5222 8.71508 4.5222 8.68129 4.556L8.51232 4.58979C8.27576 4.65738 8.0392 4.72497 7.80264 4.75876C7.56608 4.82635 7.32952 4.92774 7.09296 4.99532C6.99157 5.02912 6.8564 5.06291 6.72122 5.1305L6.38328 5.29947C5.91016 5.50224 5.47083 5.77259 5.03151 6.04295C4.82874 6.21192 4.59218 6.3471 4.38941 6.51607L4.22044 6.61745C4.15285 6.65125 4.11906 6.71883 4.08527 6.75263L3.78112 7.02298L3.47697 7.29334L3.20661 7.59749L2.86867 7.90163L2.73349 8.03681C2.6997 8.1044 2.66591 8.13819 2.59832 8.20578C2.42935 8.40855 2.26037 8.64511 2.0914 8.84787C1.95623 9.08443 1.78725 9.32099 1.65208 9.55755C1.11137 10.5038 0.705837 11.5514 0.469277 12.6666C0.266511 13.7818 0.198922 14.8971 0.334099 15.9785C0.367894 16.2488 0.401688 16.5192 0.469277 16.7895C0.536865 17.0599 0.604454 17.3302 0.672042 17.5668L0.705837 17.7696L0.773425 17.9723L0.908602 18.3441L1.04378 18.7158L1.17896 19.0875L1.34793 19.4593L1.44931 19.6283L1.55069 19.7972C1.68587 20.0338 1.82105 20.2366 1.95623 20.4731C2.26037 20.8786 2.53073 21.318 2.90247 21.6897L3.13903 21.9601C3.20661 22.0614 3.308 22.129 3.40938 22.2304C3.61215 22.3994 3.78112 22.5684 3.95009 22.7373C4.15285 22.9063 4.35562 23.0415 4.55839 23.1767L4.69356 23.278C4.76115 23.3118 4.79495 23.3456 4.86253 23.3794C4.96392 23.447 5.0653 23.5146 5.16668 23.5822C5.57221 23.8525 6.01154 24.0553 6.45087 24.2581C6.65363 24.3595 6.89019 24.427 7.12675 24.5284C7.22813 24.5622 7.32952 24.596 7.46469 24.6636C7.56608 24.6974 7.70125 24.7312 7.80264 24.765C8.0392 24.8326 8.24196 24.8664 8.47852 24.934C8.71508 24.9678 8.91785 25.0015 9.15441 25.0353C9.59373 25.1367 10.0331 25.1367 10.4724 25.1705H10.6414C10.7089 25.1705 10.7427 25.1705 10.8103 25.1705C10.9117 25.1705 11.0131 25.1705 11.1483 25.1705C11.351 25.1705 11.5876 25.1705 11.7904 25.1367C11.9931 25.1029 12.1959 25.0691 12.3987 25.0353C12.5 25.0353 12.6014 25.0015 12.7028 25.0015C12.8042 24.9678 12.9056 24.9678 13.007 24.934C13.2097 24.9002 13.4125 24.8326 13.5815 24.7988C13.6828 24.765 13.7842 24.7312 13.8518 24.6974C13.9532 24.6636 14.0208 24.6298 14.1222 24.596C14.2911 24.5284 14.4939 24.4608 14.6629 24.3933C14.8319 24.3257 15.0008 24.2243 15.1698 24.1567C16.5216 23.5146 17.5692 22.6697 18.3803 21.7911C18.4816 21.6897 18.583 21.5883 18.6844 21.4869C18.7858 21.3856 18.8534 21.2504 18.9548 21.149C19.0223 21.0476 19.1237 20.9462 19.1913 20.8448C19.2251 20.7773 19.2589 20.7435 19.2927 20.6759C19.3265 20.6083 19.3603 20.5745 19.3941 20.5069C19.5293 20.3041 19.6644 20.1014 19.7658 19.8986C19.8672 19.6958 19.9686 19.4931 20.07 19.3241C20.1038 19.2227 20.1713 19.1551 20.2051 19.0538C20.2389 18.9524 20.3065 18.8848 20.3065 18.7834C20.3741 18.6144 20.4417 18.4455 20.4755 18.3103C20.5431 18.1751 20.5769 18.0399 20.6445 17.9047C20.6783 17.7696 20.7121 17.6682 20.7459 17.5668C20.8134 17.364 20.8472 17.1951 20.881 17.0937C20.8472 16.9585 20.881 16.8909 20.881 16.8909C20.881 16.8909 20.881 16.9585 20.8472 17.0599C20.8134 17.1613 20.7796 17.3302 20.7121 17.533C20.6783 17.6344 20.6445 17.7696 20.6107 17.9047C20.5769 18.0399 20.5093 18.1751 20.4755 18.3103C20.4079 18.4455 20.3741 18.6144 20.3065 18.7834C20.2727 18.8848 20.2389 18.9524 20.2051 19.0538C20.1713 19.1551 20.1038 19.2227 20.07 19.3241C19.9686 19.4931 19.901 19.6958 19.7658 19.8986C19.6306 20.1014 19.5293 20.3041 19.3941 20.5069C19.3603 20.5745 19.3265 20.6083 19.2927 20.6759C19.2589 20.7435 19.2251 20.7773 19.1913 20.8448C19.1237 20.9462 19.0223 21.0476 18.9548 21.1828C18.8872 21.2842 18.7858 21.4194 18.6844 21.5207C18.583 21.6221 18.4816 21.7235 18.3803 21.8249C17.603 22.7035 16.5216 23.5484 15.1698 24.1905C15.0008 24.2581 14.8319 24.3595 14.6629 24.427C14.4939 24.4946 14.2911 24.5622 14.1222 24.6298C14.0208 24.6636 13.9532 24.6974 13.8518 24.7312C13.7504 24.765 13.6828 24.7988 13.5815 24.8326C13.3787 24.8664 13.2097 24.934 13.007 24.9678C12.9056 25.0015 12.8042 25.0015 12.7028 25.0353C12.6014 25.0353 12.5 25.0691 12.3987 25.0691C12.1959 25.1029 11.9931 25.1367 11.7904 25.1705C11.5876 25.2043 11.351 25.2043 11.1483 25.2043C11.0469 25.2043 10.9455 25.2043 10.8103 25.2043C10.7427 25.2043 10.7089 25.2043 10.6414 25.2043H10.4724C10.0331 25.1705 9.59373 25.1705 9.15441 25.1029C8.91785 25.0691 8.71508 25.0353 8.47852 25.0015C8.24196 24.934 8.0392 24.9002 7.80264 24.8326C7.70125 24.7988 7.56608 24.765 7.46469 24.7312C7.36331 24.6974 7.22813 24.6636 7.12675 24.596C6.89019 24.4946 6.68743 24.427 6.45087 24.3257C6.01154 24.1229 5.57221 23.9201 5.16668 23.6498C5.0653 23.5822 4.96392 23.5146 4.86253 23.447C4.79495 23.4132 4.76115 23.3794 4.69356 23.3456L4.55839 23.2442C4.35562 23.1091 4.15285 22.9401 3.95009 22.7711C3.74732 22.6022 3.57835 22.4332 3.37559 22.2642C3.2742 22.1628 3.17282 22.0952 3.10523 21.9939L2.83488 21.6897C2.46314 21.3856 2.19279 20.9462 1.85484 20.5069C1.71967 20.2703 1.58449 20.0676 1.44931 19.831L1.34793 19.662L1.24655 19.4931L1.07757 19.1213L0.908602 18.7496L0.773425 18.3779L0.638248 18.0061L0.570659 17.8034L0.536865 17.6006C0.469277 17.3302 0.401688 17.0599 0.334099 16.7895C0.300305 16.5192 0.266511 16.2488 0.198922 15.9785C0.0975393 14.8971 0.165128 13.748 0.367894 12.6328C0.638248 11.5176 1.04378 10.47 1.58449 9.48997C1.71967 9.25341 1.88864 9.01685 2.02381 8.78029C2.19279 8.57752 2.36176 8.37475 2.53073 8.13819C2.56452 8.07061 2.59832 8.03681 2.66591 7.96922L2.80108 7.83405L3.07144 7.5299L3.34179 7.22575L3.64594 6.95539L3.95009 6.68504C3.98388 6.65125 4.05147 6.58366 4.08527 6.54986L4.25424 6.44848C4.457 6.27951 4.69356 6.14433 4.89633 5.97536C5.33565 5.705 5.77498 5.43465 6.28189 5.23188L6.61984 5.06291C6.72122 4.99532 6.8564 4.96153 6.99157 4.92774C7.22813 4.86015 7.46469 4.75876 7.70125 4.69118C7.93781 4.62359 8.17437 4.556 8.44473 4.5222L8.6137 4.48841C8.68129 4.48841 8.74888 4.45462 8.78267 4.45462C8.91785 4.42082 9.01923 4.42082 9.15441 4.38703C9.62753 4.28564 10.1344 4.28564 10.6076 4.28564C10.8441 4.28564 11.0807 4.31944 11.3172 4.31944C11.4186 4.31944 11.5538 4.31944 11.6552 4.35323C11.7566 4.35323 11.8917 4.38703 11.9931 4.38703C12.2297 4.42082 12.4662 4.45462 12.669 4.48841C12.9056 4.5222 13.1083 4.58979 13.3449 4.65738C13.7842 4.75876 14.1898 4.92774 14.5953 5.09671L14.7643 5.1643C14.7981 5.19809 14.8656 5.19809 14.8994 5.23188C15.0008 5.26568 15.1022 5.33327 15.2036 5.36706C15.4064 5.46844 15.5753 5.53603 15.7781 5.67121C15.9471 5.77259 16.1498 5.90777 16.3188 6.00915C16.4202 6.07674 16.4878 6.11054 16.5892 6.17813C16.6567 6.24571 16.7581 6.3133 16.8257 6.3471C16.9947 6.48227 17.1299 6.58366 17.2988 6.71883C17.3664 6.78642 17.4678 6.85401 17.5354 6.9216C17.603 6.98919 17.6706 7.05678 17.7382 7.12437C17.8733 7.25954 18.0085 7.39472 18.1437 7.5299C18.2789 7.66507 18.3803 7.80025 18.5154 7.96922C19.4955 9.08443 20.1376 10.301 20.5093 11.4162C20.881 12.5315 21.05 13.5453 21.05 14.3901C21.05 14.4915 21.05 14.5929 21.05 14.6943C21.05 14.7957 21.05 14.8971 21.05 14.9646C21.05 15.1336 21.0162 15.3364 21.0162 15.4716C21.0162 15.6405 21.0162 15.7757 20.9824 15.9109C20.9486 16.0461 20.9486 16.1812 20.9148 16.2826C20.881 16.4854 20.8472 16.6544 20.8472 16.7895C20.881 16.8571 20.881 16.8909 20.881 16.8909Z" fill="#263238"/>
</svg>
