<svg width="13" height="17" viewBox="0 0 13 17" fill="none" xmlns="http://www.w3.org/2000/svg">
<path d="M1.83848 0.0398006C1.70248 0.116093 1.69253 0.165848 1.68921 0.653454V1.12779H1.97116H2.25311V0.845841V0.563893H7.34477H12.4364V7.6292V14.6945H12.1545H11.8725V14.993V15.2916H12.2838C12.5061 15.2916 12.7383 15.275 12.798 15.2551C13.0169 15.1788 13.0003 15.7759 13.0003 7.61261V0.192385L12.9041 0.0961905L12.8079 -3.8147e-06H7.35472C3.31788 0.00331306 1.88823 0.0132637 1.83848 0.0398006Z" fill="#3C9081"/>
<path d="M0.166073 1.72825C-0.0130473 1.7979 0.000220906 1.31693 0.000220906 9.33754C0.000220906 15.4077 0.00685499 16.8108 0.0433425 16.8573C0.0665618 16.8904 0.126269 16.9303 0.176024 16.9502C0.235731 16.9734 2.00372 16.9833 5.63919 16.9833C11.5468 16.9833 11.1952 16.9966 11.2715 16.7843C11.3213 16.635 11.3246 4.85953 11.2748 4.72022C11.235 4.61407 8.45536 1.81449 8.31605 1.7382C8.23976 1.69839 7.64269 1.69176 4.23608 1.69508C1.75825 1.69508 0.215829 1.70834 0.166073 1.72825ZM7.8981 3.58247L7.90805 4.90929L8.00093 4.99885L8.09049 5.09173L9.41731 5.10168L10.7441 5.11163L10.7375 10.7572L10.7275 16.4028L5.64583 16.4128L0.560801 16.4194V9.33754V2.25566H4.22613H7.88815L7.8981 3.58247ZM9.41731 3.59906L10.3295 4.51124H9.39077H8.45536V3.59906C8.45536 3.09818 8.46531 2.68687 8.4819 2.68687C8.49517 2.68687 8.91643 3.09818 9.41731 3.59906Z" fill="#3C9081"/>
<path d="M2.25293 4.22919V4.51114H3.38072H4.50852V4.22919V3.94724H3.38072H2.25293V4.22919Z" fill="#3C9081"/>
<path d="M2.25293 5.95407V6.23602L5.64626 6.22939L9.03628 6.21944L9.04623 5.94412L9.05619 5.67213H5.6529H2.25293V5.95407Z" fill="#3C9081"/>
<path d="M2.25293 7.64582V7.92776H4.50852H6.76411V7.64582V7.36387H4.50852H2.25293V7.64582Z" fill="#3C9081"/>
<path d="M7.32764 7.64582V7.92776L8.18343 7.92113L9.03591 7.91118L9.04586 7.63587L9.05582 7.36387H8.19007H7.32764V7.64582Z" fill="#3C9081"/>
<path d="M2.25293 9.33747V9.61942H5.6529H9.05287V9.33747V9.05552H5.6529H2.25293V9.33747Z" fill="#3C9081"/>
<path d="M2.25293 11.0292V11.3112H3.24804H4.24647L4.23652 11.0359L4.22657 10.7639L3.24141 10.7539L2.25293 10.7473V11.0292Z" fill="#3C9081"/>
<path d="M4.80737 11.0292V11.3112H6.93028H9.05651L9.04655 11.0359L9.0366 10.7639L6.92365 10.7539L4.80737 10.7473V11.0292Z" fill="#3C9081"/>
<path d="M2.25293 12.7209V13.0028H5.6529H9.05619L9.04623 12.7275L9.03628 12.4555L5.64626 12.4456L2.25293 12.4389V12.7209Z" fill="#3C9081"/>
<path d="M2.25293 14.4292V14.7277L2.81019 14.7211L3.36414 14.7111V14.4292V14.1472L2.81019 14.1373L2.25293 14.1306V14.4292Z" fill="#3C9081"/>
<path d="M3.94409 14.4292V14.7277L6.49158 14.7211L9.03575 14.7111V14.4292V14.1472L6.49158 14.1373L3.94409 14.1306V14.4292Z" fill="#3C9081"/>
</svg>
