<svg width="19" height="19" viewBox="0 0 19 19" fill="none" xmlns="http://www.w3.org/2000/svg">
<path d="M10.2249 16.791C10.8381 16.791 11.7069 16.791 12.729 16.791C16.1018 16.791 16.1018 16.791 16.3573 16.6888C17.0728 16.4332 17.6349 15.82 17.7371 15.1046C17.7882 14.9512 17.7882 12.856 17.7882 8.86994C17.7882 3.9129 17.7882 2.83973 17.7371 2.63531C17.5838 1.81766 16.9195 1.20441 16.1529 1.0511C15.9996 1 14.4154 1 11.247 1C7.36311 1 6.49435 1 6.34104 1.0511C5.57449 1.25552 5.01235 1.81766 4.80794 2.5331C4.75684 2.68641 4.75684 3.45297 4.75684 7.03021V10.1986V10.5052" stroke="#3C9081" stroke-width="0.75" stroke-miterlimit="10"/>
<path d="M10.0203 16.791C10.0714 16.791 10.1736 16.791 10.2247 16.791" stroke="#3C9081" stroke-width="0.75" stroke-miterlimit="10"/>
<path d="M8.38443 3.65743C8.74215 3.91294 8.74215 4.42398 8.38443 4.62839C8.28222 4.6795 8.18001 4.6795 7.77118 4.6795C7.31125 4.6795 7.26015 4.6795 7.15794 4.57729C6.80022 4.37288 6.80022 3.86184 7.15794 3.65743C7.26015 3.60632 7.36236 3.60632 7.77118 3.60632C8.23111 3.60632 8.28222 3.60632 8.38443 3.65743Z" fill="#3C9081"/>
<path d="M15.3341 3.65743C15.4874 3.75963 15.6407 3.91294 15.6407 4.16846C15.6407 4.37288 15.5385 4.52619 15.3341 4.62839C15.2319 4.6795 15.1297 4.7306 12.5234 4.7306C10.0193 4.7306 9.86603 4.7306 9.76382 4.6795C9.4061 4.47508 9.4061 3.91294 9.71272 3.70853C9.81492 3.65743 9.91713 3.60632 12.5234 3.60632C14.8742 3.60632 15.2319 3.60632 15.3341 3.65743Z" fill="#3C9081"/>
<path d="M8.33422 6.82576C8.64084 6.97907 8.74305 7.3879 8.53863 7.64342C8.38532 7.84783 8.28311 7.89893 7.77208 7.89893C7.26104 7.89893 7.10773 7.84783 7.00553 7.69452C6.80111 7.439 6.85222 7.08128 7.10773 6.92797C7.26104 6.77466 7.26104 6.77466 7.77208 6.77466C8.1298 6.77466 8.23201 6.77466 8.33422 6.82576Z" fill="#3C9081"/>
<path d="M15.2833 6.82582C15.4366 6.87692 15.5899 7.08134 15.641 7.23465C15.6921 7.43906 15.5388 7.69458 15.3344 7.79679C15.2322 7.84789 15.0278 7.84789 12.5748 7.84789C9.91746 7.84789 9.91746 7.84789 9.76415 7.74568C9.55973 7.64348 9.45752 7.49017 9.50863 7.23465C9.50863 7.03023 9.61084 6.87692 9.81525 6.77472C10.0197 6.72361 15.0789 6.72361 15.2833 6.82582Z" fill="#3C9081"/>
<path d="M8.38457 10.0454C8.53788 10.1476 8.64008 10.3009 8.64008 10.5054C8.64008 10.7098 8.53788 10.8631 8.38457 10.9653C8.28236 11.0164 8.18015 11.0675 7.77132 11.0675C7.20919 11.0675 7.10698 11.0164 6.95367 10.812C6.80036 10.5565 6.85146 10.3009 7.10698 10.0965C7.20919 9.99432 7.26029 9.99432 7.77132 9.99432C8.23126 9.94322 8.28236 9.94322 8.38457 10.0454Z" fill="#3C9081"/>
<path d="M15.3853 10.0454C15.5386 10.1476 15.6408 10.3009 15.6408 10.5054C15.6408 10.7098 15.5386 10.8631 15.3853 10.9653C15.2831 11.0164 15.1809 11.0675 12.5746 11.0675C10.2238 11.0675 9.86611 11.0675 9.7639 11.0164C9.40617 10.812 9.40617 10.2498 9.7639 10.0965C9.86611 10.0454 9.96831 9.99432 12.5746 9.99432C15.1809 9.94322 15.232 9.94322 15.3853 10.0454Z" fill="#3C9081"/>
<path d="M15.3345 13.2137C15.7433 13.4182 15.6922 13.9803 15.3345 14.1847C15.1812 14.2358 15.079 14.2869 13.1882 14.2869C11.0418 14.2869 11.0418 14.2869 10.8374 14.0825C10.6841 13.9292 10.6841 13.6226 10.8374 13.4182C11.0418 13.2137 10.9907 13.2137 13.1882 13.2137C15.1812 13.1115 15.2323 13.1115 15.3345 13.2137Z" fill="#3C9081"/>
<path d="M2.55866 11.834C1.84321 12.0384 1.28107 12.6006 1.07666 13.4182C0.974448 13.8271 0.974448 14.4403 1.07666 14.798C1.48548 16.0756 2.76307 17.251 4.39838 17.9153C4.705 18.0176 4.705 18.0176 4.90942 17.9665C5.21604 17.8642 6.03369 17.4554 6.39142 17.1999C7.87342 16.2289 8.63997 14.9513 8.48666 13.7249C8.33335 12.4984 7.51569 11.6807 6.39142 11.6807C5.88038 11.6807 5.31824 11.9362 4.90942 12.2429L4.705 12.4473L4.50059 12.2429C3.98955 11.8851 3.223 11.6807 2.55866 11.834Z" stroke="#3C9081" stroke-width="0.75" stroke-miterlimit="10"/>
</svg>
